<?xml version="1.0" standalone="no"?>
<!DOCTYPE svg PUBLIC "-//W3C//DTD SVG 1.1//EN" "http://www.w3.org/Graphics/SVG/1.1/DTD/svg11.dtd" >
<svg>
<metadata>
Created by FontForge 20090914 at Fri Nov 21 23:04:50 2014
 By www-data
&#194;&#169; 2004 Just Another Foundry. All Rights Reserved.
</metadata>
<defs>
<font id="MashineRounded-Regular" horiz-adv-x="850" >
  <font-face 
    font-family="Mashine Rounded"
    font-weight="400"
    font-stretch="normal"
    units-per-em="1000"
    panose-1="0 0 5 0 0 0 0 0 0 0"
    ascent="700"
    descent="-300"
    x-height="639.998"
    cap-height="641"
    bbox="-2 -256 1419.08 939.999"
    underline-thickness="40"
    underline-position="-160"
    unicode-range="U+0020-U+2122"
  />
<missing-glyph horiz-adv-x="500" 
d="M0 0v700h500v-700h-500zM250 395l170 255h-340zM280 350l170 -255v510zM80 50h340l-170 255zM50 605v-510l170 255z" />
    <glyph glyph-name=".notdef" horiz-adv-x="500" 
d="M0 0v700h500v-700h-500zM250 395l170 255h-340zM280 350l170 -255v510zM80 50h340l-170 255zM50 605v-510l170 255z" />
    <glyph glyph-name="space" unicode=" " horiz-adv-x="434" 
 />
    <glyph glyph-name="space" unicode="&#xa0;" horiz-adv-x="434" 
 />
    <glyph glyph-name="exclam" unicode="!" horiz-adv-x="423" 
d="M162 261v346c0 12.667 2.66699 21.667 8 27s14.333 8 27 8h49c13.333 0 22.5 -2.66699 27.5 -8s7.5 -14.333 7.5 -27v-346c0 -12.667 -2.5 -21.667 -7.5 -27s-14.167 -8 -27.5 -8h-49c-12.667 0 -21.667 2.66699 -27 8s-8 14.333 -8 27zM157 34l1.00098 46.002
c0.666992 13.333 3.5 22.666 8.5 27.999s13.833 8 26.5 8l57 1c13.333 0 22.666 -2.5 27.999 -7.5s8 -13.833 8 -26.5v-50c0 -12.667 -2.66699 -21.667 -8 -27s-14.333 -8 -27 -8h-60c-13.333 0 -22.5 2.66699 -27.5 8s-7.16699 14.666 -6.5 27.999z" />
    <glyph glyph-name="quotedbl" unicode="&#x22;" horiz-adv-x="508" 
d="M99 410v197c0 12.667 2.5 21.667 7.5 27s14.167 8 27.5 8h44c13.333 0 22.5 -2.66699 27.5 -8s7.5 -14.333 7.5 -27v-197c0 -13.333 -2.5 -22.5 -7.5 -27.5s-14.167 -7.5 -27.5 -7.5h-44c-13.333 0 -22.5 2.5 -27.5 7.5s-7.5 14.167 -7.5 27.5zM294 410v197
c0 12.667 2.66699 21.667 8 27s14.333 8 27 8h44c12.667 0 21.667 -2.66699 27 -8s8 -14.333 8 -27v-197c0 -13.333 -2.66699 -22.5 -8 -27.5s-14.333 -7.5 -27 -7.5h-44c-12.667 0 -21.667 2.5 -27 7.5s-8 14.167 -8 27.5z" />
    <glyph glyph-name="numbersign" unicode="#" 
d="M748 206l0.000976562 -26.001c0 -13.333 -2.66699 -22.5 -8 -27.5s-14.333 -7.5 -27 -7.5h-98v-112c0 -12.667 -2.5 -21.667 -7.5 -27s-14.167 -8 -27.5 -8h-32c-13.333 0 -22.5 2.66699 -27.5 8s-7.5 14.333 -7.5 27v112h-177v-112c0 -12.667 -2.66699 -21.667 -8 -27
s-14.333 -8 -27 -8h-33c-13.333 0 -22.5 2.66699 -27.5 8s-7.5 14.333 -7.5 27v112h-97c-13.333 0 -22.5 2.5 -27.5 7.5s-7.5 14.167 -7.5 27.5v26c0 13.333 2.5 22.5 7.5 27.5s14.167 7.5 27.5 7.5h97v160h-97c-13.333 0 -22.5 2.5 -27.5 7.5s-7.5 14.167 -7.5 27.5v25
c0 12.667 2.5 21.667 7.5 27s14.167 8 27.5 8h97v111c0 12.667 2.66699 21.5 8 26.5s14.666 7.5 27.999 7.5h32c12.667 0 21.667 -2.66699 27 -8s8 -14.666 8 -27.999v-109h177v111c0 12.667 2.5 21.667 7.5 27s14.167 8 27.5 8h32c13.333 0 22.5 -2.66699 27.5 -8
s7.5 -14.333 7.5 -27v-111h98c12.667 0 21.667 -2.66699 27 -8s8 -14.333 8 -27v-25c0 -13.333 -2.66699 -22.5 -8 -27.5s-14.333 -7.5 -27 -7.5h-98v-160h98c12.667 0 21.667 -2.5 27 -7.5s8 -14.167 8 -27.5zM336.001 400.999v-160h177v160h-177z" />
    <glyph glyph-name="dollar" unicode="$" 
d="M378 25l0.998047 65h-112c-18 0 -33 6 -45 18l-33 34c-12.667 13.333 -13 26 -1 38l31 32c12.667 13.333 25 14 37 2l33 -34h270l31 31l1 14l-46 46l-235 -1c-17.333 0 -32.333 6.33301 -45 19l-63 63c-12.667 12.667 -19 27.667 -19 45l-1 49
c0 10.667 2.66699 17.667 8 21c0 6.66699 3.33301 13.334 10 20.001l43 44c12 12 27 18 45 18h90v65c0 18 9 27 27 27h62c18 0 27 -9 27 -27v-65h96c18 0 33 -6 45 -18l34 -33c12 -12 12 -24.333 0 -37l-32 -35c-11.333 -12.667 -23.666 -12.334 -36.999 0.999023l-31 32
h-257l-34 -36v-10l44 -44h233c18 0 33.333 -6.33301 46 -19l63 -63c12.667 -12.667 19 -27.667 19 -45l1 -51c0 -10.667 -3 -18 -9 -22c0.666992 -6 -2.66602 -12.667 -9.99902 -20l-40 -40c-12.667 -12.667 -28 -19 -46 -19h-85v-64c0 -18 -9 -27 -27 -27h-62
c-18 0 -27 8.66699 -27 26z" />
    <glyph glyph-name="percent" unicode="%" horiz-adv-x="928" 
d="M319 624l48 -48.001c12.667 -12.667 19 -28 19 -46v-91c0 -17.333 -6.66699 -32.666 -20 -45.999l-48 -47c-12 -12 -27 -18 -45 -18h-97c-18 0 -33 6 -45 18l-50 49c-12 12 -18 27 -18 45v90c0 18 6.33301 33.333 19 46l48 48c12.667 12.667 28 19 46 19h97
c18 0 33.333 -6.33301 46 -19zM289 525.999l-30 28h-67l-31 -29v-79l30 -29h66l31 30zM122 43.999l617.999 618c12.667 12.667 25.334 12.667 38.001 0l28 -28c12.667 -12.667 13 -25 1 -37l-620 -619c-12 -12 -24 -12 -36 0l-30 29c-12 12 -11.667 24.333 1 37z
M797.999 291.999l47.001 -47c12.667 -12.667 19 -27.667 19 -45l1 -93c0 -16.667 -6.66699 -31.667 -20 -45l-48 -47c-12 -12 -27 -18 -45 -18h-97c-18.667 0 -34.334 6.33301 -47.001 19l-48 47c-12 12 -18 27 -18 45v91c0 18 6 33 18 45l50 49c12 12 27 18 45 18h97
c18 0 33.333 -6.33301 46 -19zM768 194.999l-30 28h-67l-31 -30v-78l30 -29h66l31 29z" />
    <glyph glyph-name="ampersand" unicode="&#x26;" horiz-adv-x="801" 
d="M695 25l-25.0029 -25.002c-9.33301 -9.33301 -17.333 -14.166 -24 -14.499s-14.667 3.83398 -24 12.501l-93 88l-67 -67c-16 -16 -35.667 -24 -59 -24h-133c-23.333 0 -42.666 8 -57.999 24l-112 118c-15.333 16 -15 32.333 1 49l140 149c5.33301 5.33301 10 9 14 11
l-122 117c-8.66699 8.66699 -13 16.667 -13 24s4.33301 16 13 26l95 105c16 18 35.667 27 59 27h184c22.667 0 42.334 -8 59.001 -24l30 -29c17.333 -17.333 18 -33.666 2 -48.999l-36 -37c-9.33301 -8.66699 -17.333 -12.834 -24 -12.501s-14.667 5.5 -24 15.5l-30 33h-133
l-53 -55l266 -254l80 81c9.33301 9.33301 17.5 14 24.5 14s15.167 -4.66699 24.5 -14l27 -25c9.33301 -8.66699 14 -16.334 14 -23.001s-4.66699 -14.667 -14 -24l-80 -81l92 -87c16.667 -15.333 16.334 -31.666 -0.999023 -48.999zM394.997 97.998l59.001 60l-123 116
c-2.66699 -4 -5.33398 -7.33301 -8.00098 -10l-97 -101l63 -65h106z" />
    <glyph glyph-name="quotesingle" unicode="'" horiz-adv-x="314" 
d="M99 410v197c0 12.667 2.5 21.667 7.5 27s14.167 8 27.5 8h46c13.333 0 22.5 -2.66699 27.5 -8s7.5 -14.333 7.5 -27v-197c0 -13.333 -2.5 -22.5 -7.5 -27.5s-14.167 -7.5 -27.5 -7.5h-46c-13.333 0 -22.5 2.5 -27.5 7.5s-7.5 14.167 -7.5 27.5z" />
    <glyph glyph-name="parenleft" unicode="(" horiz-adv-x="491" 
d="M130 80l-0.00292969 473.998c0 23.333 8.33301 43.333 25 60l111 111c9.33301 9.33301 17.5 14.166 24.5 14.499s15.167 -4.16699 24.5 -13.5l32 -33c8.66699 -9.33301 12.834 -17.5 12.501 -24.5s-5.16602 -15.167 -14.499 -24.5l-101 -99v-457l101 -98
c10 -9.33301 15 -17.666 15 -24.999s-4.66699 -15.666 -14 -24.999l-30 -30c-9.33301 -9.33301 -17.666 -14.166 -24.999 -14.499s-15.333 4.16699 -24 13.5l-113 112c-16 16 -24 35.667 -24 59z" />
    <glyph glyph-name="parenright" unicode=")" horiz-adv-x="491" 
d="M360 553l0.00195312 -473.997c0 -23.333 -8 -43 -24 -59l-113 -112c-16.667 -16.667 -32.667 -16.667 -48 0l-32 33c-9.33301 8.66699 -13.833 16.667 -13.5 24s5.5 15.666 15.5 24.999l102 99v456l-102 99c-10 9.33301 -15 17.666 -15 24.999s4.66699 15.666 14 24.999
l30 30c9.33301 9.33301 17.666 14 24.999 14s15.666 -4.66699 24.999 -14l111 -111c16.667 -16.667 25 -36.667 25 -60z" />
    <glyph glyph-name="asterisk" unicode="*" horiz-adv-x="620" 
d="M353 655l80 85.999c12 12.667 24 13 36 1l28 -29c12 -12 11.667 -23.667 -1 -35l-92 -81l93 -82c12.667 -11.333 13 -23 1 -35l-28 -29c-12 -11.333 -24.333 -10.666 -37 2.00098l-83 85l4 -116c0.666992 -18.667 -8 -28 -26 -28h-38c-18 0 -26.667 9.33301 -26 28l4 116
l-82 -86c-13.333 -13.333 -25.666 -14 -36.999 -2l-26 27c-13.333 13.333 -13.333 25.666 0 36.999l93 83l-93 79c-13.333 11.333 -14 23 -2 35l27 28c13.333 12.667 25.666 13.334 36.999 2.00098l84 -86l-4 115c-0.666992 18.667 8 28 26 28h38
c17.333 0 26 -9.33301 26 -28z" />
    <glyph glyph-name="plus" unicode="+" horiz-adv-x="635" 
d="M260 266l-165 -2c-12.667 0 -21.5 2.66699 -26.5 8s-7.5 14.333 -7.5 27v45c0 12.667 2.5 21.667 7.5 27s13.833 8 26.5 8l165 -1l-2 164c0 12.667 2.66699 21.5 8 26.5s14.333 7.5 27 7.5h48c12.667 0 21.667 -2.5 27 -7.5s8 -13.833 8 -26.5l-1 -164l164 1
c12.667 0 21.5 -2.66699 26.5 -8s7.5 -14.333 7.5 -27v-45c0 -12.667 -2.5 -21.667 -7.5 -27s-13.833 -8 -26.5 -8l-164 2l1 -166c0 -12.667 -2.66699 -21.5 -8 -26.5s-14.333 -7.5 -27 -7.5h-48c-12.667 0 -21.667 2.5 -27 7.5s-8 13.833 -8 26.5z" />
    <glyph glyph-name="comma" unicode="," horiz-adv-x="326" 
d="M104 -68v159.001c0 12.667 2.66699 21.667 8 27s14.333 8 27 8h48c12.667 0 21.667 -2.66699 27 -8s8 -14.333 8 -27v-120c0 -22.667 -8 -42.334 -24 -59.001l-29 -30c-9.33301 -9.33301 -17 -14.333 -23 -15s-12.667 2.33301 -20 9l-2 2
c-13.333 12.667 -20 30.667 -20 54z" />
    <glyph glyph-name="hyphen" unicode="-" horiz-adv-x="456" 
d="M358 264h-262c-13.333 0 -22.5 2.66699 -27.5 8s-7.5 14.333 -7.5 27v45c0 13.333 2.5 22.5 7.5 27.5s14.167 7.5 27.5 7.5h262c13.333 0 22.5 -2.5 27.5 -7.5s7.5 -14.167 7.5 -27.5v-45c0 -12.667 -2.5 -21.667 -7.5 -27s-14.167 -8 -27.5 -8z" />
    <glyph glyph-name="hyphen" unicode="&#xad;" horiz-adv-x="456" 
d="M358 264h-262c-13.333 0 -22.5 2.66699 -27.5 8s-7.5 14.333 -7.5 27v45c0 13.333 2.5 22.5 7.5 27.5s14.167 7.5 27.5 7.5h262c13.333 0 22.5 -2.5 27.5 -7.5s7.5 -14.167 7.5 -27.5v-45c0 -12.667 -2.5 -21.667 -7.5 -27s-14.167 -8 -27.5 -8z" />
    <glyph glyph-name="period" unicode="." horiz-adv-x="326" 
d="M98 33v56c0 12.667 2.66699 21.667 8 27s14.333 8 27 8h59c13.333 0 22.5 -2.66699 27.5 -8s7.5 -14.333 7.5 -27v-56c0 -12.667 -2.5 -21.667 -7.5 -27s-14.167 -8 -27.5 -8h-59c-12.667 0 -21.667 2.66699 -27 8s-8 14.333 -8 27z" />
    <glyph glyph-name="slash" unicode="/" horiz-adv-x="642" 
d="M454 540l-2 67.999c-0.666992 12.667 1.5 21.5 6.5 26.5s14.167 7.5 27.5 7.5h46c12.667 0 21.667 -2.5 27 -7.5s8 -13.833 8 -26.5l-1 -70c0 -23.333 -8 -43.333 -24 -60l-354 -377l1 -67c0 -13.333 -2.5 -22.666 -7.5 -27.999s-13.833 -8 -26.5 -8h-46
c-12.667 0 -21.667 2.5 -27 7.5s-8 13.833 -8 26.5l1 71c0 23.333 8 43.333 24 60z" />
    <glyph glyph-name="zero" unicode="0" 
d="M607 620l106 -106c16.667 -16.667 25 -36.667 25 -60v-270c0 -23.333 -8 -43 -24 -59l-108 -106c-16 -16 -35.667 -24 -59 -24h-245c-23.333 0 -43 8 -59 24l-108 107c-16 16 -24 35.667 -24 59v269c0 23.333 8 43 24 59l107 108c16 16 35.667 24 59 24h246
c23.333 0 43.333 -8.33301 60 -25zM620 450l-89 87h-213l-88 -88v-258l88 -88h213l88 88z" />
    <glyph glyph-name="one" unicode="1" 
d="M705 0h-512c-12.667 0 -21.667 2.66699 -27 8s-8 14.333 -8 27v41c0 12.667 2.5 21.667 7.5 27s13.833 8 26.5 8l225 -1v418h-79l-101 -103c-16.667 -16.667 -32.667 -16.667 -48 0l-33 34c-17.333 16.667 -17.333 33.667 0 51l106 106c16.667 16.667 36.667 25 60 25
h184c13.333 0 22.5 -2.5 27.5 -7.5s7.5 -14.167 7.5 -27.5v-496l165 1c12.667 0 21.5 -2.66699 26.5 -8s7.5 -14.333 7.5 -27v-41c0 -12.667 -2.66699 -21.667 -8 -27s-14.333 -8 -27 -8z" />
    <glyph glyph-name="two" unicode="2" 
d="M602 107l-2 71.002c-0.666992 12.667 1.5 21.667 6.5 27s14.167 8 27.5 8h38c13.333 0 22.5 -2.5 27.5 -7.5s7.5 -14.167 7.5 -27.5v-143c0 -12.667 -2.5 -21.667 -7.5 -27s-14.167 -8 -27.5 -8h-527c-12.667 0 -21.667 2.66699 -27 8s-8 14.333 -8 27v114
c0 23.333 8.33301 43.666 25 60.999l130 135c16.667 17.333 36.334 26 59.001 26l155 -1l98 99l-67 68h-240l-63 -65c-9.33301 -10 -17.5 -15.167 -24.5 -15.5s-15.167 4.16699 -24.5 13.5l-35 34c-9.33301 8.66699 -13.833 16.667 -13.5 24s5.16602 15.666 14.499 24.999
l66 66c16.667 16.667 36.667 25 60 25h293c22.667 0 42.667 -8.66699 60 -26l114 -116c8.66699 -9.33301 13 -17.333 13 -24s-4.33301 -14.667 -13 -24l-167 -168c-16 -16 -35.333 -24 -58 -24l-154 2l-95 -99v-58h359z" />
    <glyph glyph-name="three" unicode="3" 
d="M256 541l-56.998 -60.0029c-8.66699 -8.66699 -16.334 -13 -23.001 -13s-14.667 4.33301 -24 13l-41 40c-8.66699 8.66699 -13 16.667 -13 24s4.33301 15.333 13 24l52 51c16 16 35.667 24 59 24h329c23.333 0 43.333 -8.33301 60 -25l110 -110
c9.33301 -9.33301 14.166 -17.666 14.499 -24.999s-4.16699 -15.666 -13.5 -24.999l-132 -140l133 -141c8.66699 -9.33301 13 -17.666 13 -24.999s-4.33301 -15.666 -13 -24.999l-110 -108c-16 -16 -35.667 -24 -59 -24h-334c-24 0 -44.333 8.33301 -61 25l-46 45
c-10 9.33301 -15.167 17.666 -15.5 24.999s4.16699 15.333 13.5 24l38 37c17.333 17.333 34.333 17 51 -1l50 -52h268l69 70l-93 96l-228 -2c-12.667 0 -21.5 2.66699 -26.5 8s-7.5 14.333 -7.5 27v41c0 12.667 2.5 21.667 7.5 27s13.833 8 26.5 8l228 -1l93 95l-71 73h-260
z" />
    <glyph glyph-name="four" unicode="4" 
d="M601 153v-118c0 -12.667 -2.5 -21.667 -7.5 -27s-13.833 -8 -26.5 -8l-51 -1c-13.333 0 -22.5 2.5 -27.5 7.5s-7.5 14.167 -7.5 27.5l2 119l-373 -2c-12.667 0 -21.5 2.66699 -26.5 8s-7.5 14.333 -7.5 27v96c0 23.333 8 43.333 24 60l263 274c16 16.667 35.667 25 59 25
h145c12.667 0 21.667 -2.5 27 -7.5s8 -13.833 8 -26.5l-1 -348l134 1c12.667 0 21.5 -2.66699 26.5 -8s7.5 -14.333 7.5 -27v-39c0 -12.667 -2.5 -21.667 -7.5 -27s-13.833 -8 -26.5 -8zM484 537l-52 -3l-223 -233v-42h274z" />
    <glyph glyph-name="five" unicode="5" 
d="M722 236l0.998047 -90.999c0 -14.667 -3.33301 -24.334 -10 -29.001c0.666992 -7.33301 -4.33301 -16.333 -15 -27l-70 -69c-16 -16 -35.667 -24 -59 -24h-331c-23.333 0 -43 8 -59 24l-44 43c-9.33301 9.33301 -14.166 17.5 -14.499 24.5s3.83398 15.167 12.501 24.5
l36 37c8.66699 8.66699 16.667 13 24 13s15.333 -4.33301 24 -13l46 -45h280l53 56l2 64l-56 56l-359 -2c-12.667 0 -21.5 2.66699 -26.5 8s-7.5 14.333 -7.5 27v292c0 12.667 2.5 21.667 7.5 27s14.167 8 27.5 8h479c12.667 0 21.667 -2.66699 27 -8s8 -14.333 8 -27v-41
c0 -12.667 -2.5 -21.667 -7.5 -27s-13.833 -8 -26.5 -8l-398 1v-143h303c23.333 0 43 -8 59 -24l70 -69c16 -16 24 -35.333 24 -58z" />
    <glyph glyph-name="six" unicode="6" 
d="M235 463l0.000976562 -117.999l13 13c16.667 16.667 37 25 61 25h279c23.333 0 43.333 -8.33301 60 -25l61 -61c16.667 -16.667 25 -36.667 25 -60v-96c0 -14.667 -3.33301 -24.334 -10 -29.001c2 -8 -2 -17 -12 -27l-67 -66c-16 -16 -35.667 -24 -59 -24h-314
c-23.333 0 -43.333 8.33301 -60 25l-72 72c-16.667 16.667 -25 36.667 -25 60v317c0 23.333 8.33301 43.333 25 60l90 90c16.667 16.667 36.667 25 60 25h310c23.333 0 43 -8 59 -24l45 -46c16.667 -16.667 16.667 -32.667 0 -48l-36 -35
c-9.33301 -8.66699 -17.333 -13 -24 -13s-14.334 4.33301 -23.001 13l-45 47h-268zM304.001 278.001l-69 -70v-39l67 -67h257l46 47l2 80l-48 49h-255z" />
    <glyph glyph-name="seven" unicode="7" 
d="M459 220l1.00098 -187.996c0 -12.667 -2.66699 -21.5 -8 -26.5s-14.333 -7.5 -27 -7.5h-49c-13.333 0 -22.5 2.66699 -27.5 8s-7.5 14.333 -7.5 27v184c0 23.333 8.33301 43.666 25 60.999l246 256h-400l-57 -60c-8.66699 -9.33301 -16.5 -13.833 -23.5 -13.5
s-15.167 5.16602 -24.5 14.499l-35 35c-9.33301 9.33301 -14 17.666 -14 24.999s4.66699 15.666 14 24.999l56 56c16.667 16.667 36.667 25 60 25h453c23.333 0 43 -8.33301 59 -25l47 -50c15.333 -16 14.666 -32.667 -2.00098 -50z" />
    <glyph glyph-name="eight" unicode="8" 
d="M733 434c0 -14 -3.33398 -23.335 -10.001 -28.002c0.666992 -8.66699 -3.66602 -17.334 -12.999 -26.001l-61 -58l61 -59c10.667 -10.667 15.667 -20 15 -28c6.66699 -4.66699 10 -14 10 -28l-1 -68c0 -22.667 -8 -42 -24 -58l-63 -62c-16 -16 -35.667 -24 -59 -24h-329
c-23.333 0 -43 8 -59 24l-63 62c-16 16 -24 35.333 -24 58l-1 66c0 13.333 3.33301 22.333 10 27c-2 8.66699 3 18.334 15 29.001l61 59l-60 56c-10.667 10 -15.667 18.667 -15 26c-6.66699 4.66699 -10 14.334 -10 29.001l1 70c0 22.667 8.33301 42.334 25 59.001l60 60
c16.667 16.667 36.667 25 60 25h330c22.667 0 42.667 -8.66699 60 -26l59 -60c16 -16 24 -35.333 24 -58zM297.999 268.998l-63 -66v-1v-51l50 -49h280l49 47l-2 52l-65 68h-249zM299.999 372.998h249l61 64l2 54l-48 47h-281l-46 -45l1 -57z" />
    <glyph glyph-name="nine" unicode="9" 
d="M619 175l0.000976562 120.001l-13 -13c-16 -16 -35.667 -24 -59 -24h-285c-23.333 0 -43 8 -59 24l-64 65c-16 16 -24 35.333 -24 58l-1 92c0 14 3.33301 23.333 10 28c-2 7.33301 2.66699 16.666 14 27.999l67 67c16.667 16.667 36.667 25 60 25h306
c23.333 0 43.333 -8.33301 60 -25l77 -77c16.667 -16.667 25 -36.667 25 -60v-312c0 -23.333 -8 -43 -24 -59l-93 -92c-16 -16 -35.667 -24 -59 -24h-309c-23.333 0 -43 8 -59 24l-45 44c-9.33301 8.66699 -13.833 16.667 -13.5 24s5.16602 15.666 14.499 24.999l34 34
c9.33301 9.33301 17.5 13.833 24.5 13.5s15.167 -5.16602 24.5 -14.499l43 -46h272zM551.001 363.001l68 68v43l-65 67h-272l-49 -52l-1 -77l50 -49h269z" />
    <glyph glyph-name="colon" unicode=":" horiz-adv-x="403" 
d="M138 132l1.00098 54.002c0.666992 13.333 3.5 22.666 8.5 27.999s13.833 8 26.5 8l55 1c13.333 0 22.666 -2.5 27.999 -7.5s8 -13.833 8 -26.5v-58c0 -12.667 -2.5 -21.667 -7.5 -27s-14.167 -8 -27.5 -8h-58c-13.333 0 -22.5 2.66699 -27.5 8
s-7.16699 14.666 -6.5 27.999zM137.001 452.002v58c0 13.333 2.5 22.5 7.5 27.5s14.167 7.5 27.5 7.5h58c13.333 0 22.5 -2.5 27.5 -7.5s7.5 -14.167 7.5 -27.5v-58c0 -13.333 -2.5 -22.5 -7.5 -27.5s-14.167 -7.5 -27.5 -7.5h-58c-13.333 0 -22.5 2.5 -27.5 7.5
s-7.5 14.167 -7.5 27.5z" />
    <glyph glyph-name="semicolon" unicode=";" horiz-adv-x="326" 
d="M103 -69l2.00195 158.998c0 12.667 2.5 21.334 7.5 26.001s13.833 7.33398 26.5 8.00098l47 1c13.333 0 22.666 -2.5 27.999 -7.5s8 -13.833 8 -26.5v-120c0 -22.667 -8 -42.334 -24 -59.001l-29 -30c-16.667 -16.667 -31.334 -18.667 -44.001 -6l-2 2
c-13.333 12.667 -20 30.334 -20 53.001zM97.002 353.998v56c0 13.333 2.5 22.5 7.5 27.5s14.167 7.5 27.5 7.5h60c13.333 0 22.5 -2.5 27.5 -7.5s7.5 -14.167 7.5 -27.5v-56c0 -13.333 -2.5 -22.5 -7.5 -27.5s-14.167 -7.5 -27.5 -7.5h-60c-13.333 0 -22.5 2.5 -27.5 7.5
s-7.5 14.167 -7.5 27.5z" />
    <glyph glyph-name="less" unicode="&#x3c;" horiz-adv-x="635" 
d="M349 83l-213.002 212.998c-9.33301 9.33301 -14.166 17.666 -14.499 24.999s4.16699 15.333 13.5 24l216 217c8.66699 9.33301 16.667 13.833 24 13.5s15.666 -5.16602 24.999 -14.499l30 -30c9.33301 -9.33301 14.166 -17.666 14.499 -24.999
s-4.16699 -15.333 -13.5 -24l-159 -157l161 -160c9.33301 -8.66699 13.833 -16.667 13.5 -24s-5.16602 -15.666 -14.499 -24.999l-33 -33c-9.33301 -9.33301 -17.666 -14 -24.999 -14s-15.666 4.66699 -24.999 14z" />
    <glyph glyph-name="equal" unicode="=" horiz-adv-x="635" 
d="M507 166h-379c-13.333 0 -22.5 2.66699 -27.5 8s-7.5 14.333 -7.5 27v35c0 13.333 2.5 22.5 7.5 27.5s14.167 7.5 27.5 7.5h379c12.667 0 21.667 -2.5 27 -7.5s8 -14.167 8 -27.5v-35c0 -12.667 -2.66699 -21.667 -8 -27s-14.333 -8 -27 -8zM507 372h-379
c-13.333 0 -22.5 2.66699 -27.5 8s-7.5 14.333 -7.5 27v36c0 12.667 2.5 21.667 7.5 27s14.167 8 27.5 8h379c12.667 0 21.667 -2.66699 27 -8s8 -14.333 8 -27v-36c0 -12.667 -2.66699 -21.667 -8 -27s-14.333 -8 -27 -8z" />
    <glyph glyph-name="greater" unicode="&#x3e;" horiz-adv-x="635" 
d="M286 561l213.002 -212.998c9.33301 -9.33301 14.166 -17.666 14.499 -24.999s-4.16699 -15.333 -13.5 -24l-216 -217c-8.66699 -9.33301 -16.667 -13.833 -24 -13.5s-15.666 5.16602 -24.999 14.499l-30 30c-9.33301 9.33301 -14.166 17.666 -14.499 24.999
s4.16699 15.333 13.5 24l160 158l-162 159c-9.33301 8.66699 -13.833 16.667 -13.5 24s5.16602 15.666 14.499 24.999l33 33c9.33301 9.33301 17.666 14 24.999 14s15.666 -4.66699 24.999 -14z" />
    <glyph glyph-name="question" unicode="?" horiz-adv-x="734" 
d="M511 619l99.999 -107.003c8.66699 -9.33301 13 -17.666 13 -24.999s-4.33301 -15.666 -13 -24.999l-239 -244c-10 -10 -18.333 -15.167 -25 -15.5s-14.667 4.16699 -24 13.5l-26 27c-9.33301 9.33301 -14.166 17.833 -14.499 25.5s4.16699 15.834 13.5 24.501l184 187
l-57 57h-160l-61 -62c-16.667 -16.667 -32.667 -16.667 -48 0l-34 35c-9.33301 9.33301 -14 17.333 -14 24s4.66699 14.667 14 24l63 62c16 16 35.333 24 58 24l212 1c22 0 41.333 -8.66699 58 -26zM297.999 33.9971l1.00098 50.002c0.666992 13.333 3.5 22.666 8.5 27.999
s13.833 8 26.5 8l55 1c13.333 0 22.666 -2.5 27.999 -7.5s8 -13.833 8 -26.5v-54c0 -12.667 -2.5 -21.667 -7.5 -27s-14.167 -8 -27.5 -8h-58c-13.333 0 -22.5 2.66699 -27.5 8s-7.16699 14.666 -6.5 27.999z" />
    <glyph glyph-name="at" unicode="@" horiz-adv-x="970" 
d="M847 446l-1.00195 -144.001c0 -22.667 -8.33301 -42.334 -25 -59.001l-91 -91c-9.33301 -9.33301 -17.666 -14 -24.999 -14s-15.666 4.66699 -24.999 14l-53 53l-28 -29c-15.333 -16 -35 -24 -59 -24h-121c-23.333 0 -43 8 -59 24l-42 41c-16 16 -24 35.667 -24 59v81
c0 23.333 8 43 24 59l39 40c17.333 17.333 37.333 26 60 26h137c24 0 43.667 -8 59 -24l34 -35c16.667 -16.667 25 -36.667 25 -60l-1 -93l29 -27l46 44v152l-117 116h-285l-119 -119v-227l124 -124h393l53 54c9.33301 8.66699 17.5 12.834 24.5 12.501
s15.167 -5.16602 24.5 -14.499l15 -15c8.66699 -9.33301 13 -17.333 13 -24s-4.33301 -14.667 -13 -24l-55 -54c-16 -16 -35.667 -24 -59 -24h-415c-23.333 0 -43.333 8.33301 -60 25l-123 123c-16.667 16.667 -25 36.667 -25 60v236c0 23.333 8 43 24 59l121 122
c16 16 35.667 24 59 24h322c23.333 0 43 -8 59 -24l116 -117c16 -16 24 -35.333 24 -58zM540.998 391.999l-108 -1l-37 -36v-81l37 -36h105l37 37v80z" />
    <glyph glyph-name="A" unicode="A" horiz-adv-x="886" 
d="M761 419l-0.000976562 -384.001c0 -12.667 -2.33301 -21.5 -7 -26.5s-13.667 -7.83301 -27 -8.5l-48 -1c-13.333 0 -22.666 2.33301 -27.999 7s-8 13.334 -8 26.001l2 149h-405l1 -149c0 -12.667 -2.66699 -21.5 -8 -26.5s-14.333 -7.5 -27 -7.5h-47
c-12.667 0 -21.667 2.66699 -27 8s-8 14.333 -8 27v385c0 24 8.33301 44.333 25 61l138 141c17.333 17.333 37.333 26 60 26h191c23.333 0 43 -8 59 -24l139 -142c16.667 -16.667 25 -37 25 -61zM645.999 411.999l-126 124h-155l-125 -123v-131h405z" />
    <glyph glyph-name="B" unicode="B" horiz-adv-x="903" 
d="M139 35v570.001c0 12.667 2.5 21.667 7.5 27s14.167 8 27.5 8h461c24 0 44.333 -8.33301 61 -25l63 -62c15.333 -15.333 23 -33.666 23 -54.999l-1 -58c0 -22 -8.66699 -41.667 -26 -59l-60 -59l66 -66c16.667 -16.667 25 -36.334 25 -59.001l1 -54
c0 -20.667 -8.33301 -39.334 -25 -56.001l-64 -63c-16 -16 -35.667 -24 -59 -24h-465c-13.333 0 -22.5 2.66699 -27.5 8s-7.5 14.333 -7.5 27zM259 103.001h354l60 60l1 27l-79 79h-336v-166zM664 443.001l-2 38l-54 56h-349v-165h336z" />
    <glyph glyph-name="C" unicode="C" horiz-adv-x="911" 
d="M729 620l60.001 -59.001c8.66699 -8.66699 13 -16.667 13 -24s-4.33301 -15.333 -13 -24l-40 -39c-8.66699 -9.33301 -16.667 -13.833 -24 -13.5s-15.333 5.16602 -24 14.499l-57 61h-309l-92 -92v-247l93 -93h310l57 60c8.66699 9.33301 16.5 13.833 23.5 13.5
s15.167 -5.16602 24.5 -14.499l36 -36c9.33301 -9.33301 14.166 -17.666 14.499 -24.999s-4.16699 -15.333 -13.5 -24l-59 -58c-16 -16 -35.667 -24 -59 -24h-354c-23.333 0 -43.333 8.33301 -60 25l-109 109c-16.667 16.667 -25 36.667 -25 60v259c0 23.333 8 43 24 59
l111 112c16 16 35.667 24 59 24h354c23.333 0 43 -8 59 -24z" />
    <glyph glyph-name="D" unicode="D" horiz-adv-x="970" 
d="M656 0h-482c-13.333 0 -22.5 2.66699 -27.5 8s-7.5 14.333 -7.5 27v570c0 12.667 2.5 21.667 7.5 27s14.167 8 27.5 8h482c23.333 0 43 -8 59 -24l108 -109c16 -16 24 -35.667 24 -59v-257c0 -23.333 -8.33301 -43.333 -25 -60l-106 -106
c-16.667 -16.667 -36.667 -25 -60 -25zM256 532v-424h378l88 89v245l-89 90h-377z" />
    <glyph glyph-name="E" unicode="E" horiz-adv-x="829" 
d="M139 35v570c0 12.667 2.5 21.667 7.5 27s14.167 8 27.5 8h445c23.333 0 43.333 -8.33301 60 -25l39 -39c9.33301 -9.33301 14.166 -17.666 14.499 -24.999s-4.16699 -15.333 -13.5 -24l-37 -36c-8.66699 -9.33301 -16.667 -13.833 -24 -13.5s-15.333 5.16602 -24 14.499
l-40 43h-340v-158l332 1c12.667 0 21.5 -2.66699 26.5 -8s7.5 -14.333 7.5 -27v-45c0 -12.667 -2.5 -21.667 -7.5 -27s-13.833 -8 -26.5 -8l-332 2v-160h346l40 42c8.66699 8.66699 16.334 13 23.001 13s14.667 -4.33301 24 -13l36 -35c8.66699 -9.33301 13 -17.333 13 -24
s-4.33301 -14.667 -13 -24l-40 -39c-16.667 -16.667 -37 -25 -61 -25h-448c-13.333 0 -22.5 2.66699 -27.5 8s-7.5 14.333 -7.5 27z" />
    <glyph glyph-name="F" unicode="F" horiz-adv-x="753" 
d="M256 252l1 -220.002c0 -12.667 -2.66699 -21.5 -8 -26.5s-14.333 -7.5 -27 -7.5h-48c-13.333 0 -22.5 2.66699 -27.5 8s-7.5 14.333 -7.5 27v572c0 12.667 2.5 21.667 7.5 27s14.167 8 27.5 8h421c22.667 0 42.334 -8 59.001 -24l26 -25
c9.33301 -9.33301 14.166 -17.666 14.499 -24.999s-4.16699 -15.666 -13.5 -24.999l-38 -38c-9.33301 -9.33301 -17.5 -14 -24.5 -14s-14.833 4.66699 -23.5 14l-26 29h-313v-167l327 1c12.667 0 21.5 -2.66699 26.5 -8s7.5 -14.333 7.5 -27v-46
c0 -12.667 -2.5 -21.667 -7.5 -27s-13.833 -8 -26.5 -8z" />
    <glyph glyph-name="G" unicode="G" horiz-adv-x="958" 
d="M758 620l49.998 -49c9.33301 -8.66699 14 -16.667 14 -24s-4.66699 -15.333 -14 -24l-37 -38c-8.66699 -8.66699 -16.5 -13 -23.5 -13s-14.833 4.33301 -23.5 13l-50 53h-342l-88 -89v-256l91 -91h324l47 46v106l-177 -3c-12.667 0 -21.5 2.66699 -26.5 8
s-7.5 14.333 -7.5 27v29c0 12.667 2.5 21.667 7.5 27s14.167 8 27.5 8h257c12.667 0 21.667 -2.66699 27 -8s8 -14.333 8 -27v-283c0 -12.667 -2 -21.5 -6 -26.5s-11.667 -7.5 -23 -7.5h-3c-19.333 0.666992 -35.666 10.667 -48.999 30l-22 33l-39 -41
c-15.333 -16 -34.666 -24 -57.999 -24h-309c-23.333 0 -43.333 8.33301 -60 25l-106 106c-16.667 16.667 -25 36.667 -25 60v267c0 23.333 8.33301 43.333 25 60l105 105c16.667 16.667 36.667 25 60 25h387c23.333 0 43 -8 59 -24z" />
    <glyph glyph-name="H" unicode="H" horiz-adv-x="928" 
d="M789 607v-574c0 -12.667 -2.5 -21.667 -7.5 -27s-14.167 -8 -27.5 -8h-49c-12.667 0 -21.667 2.5 -27 7.5s-8 13.833 -8 26.5l2 235h-416l1 -235c0 -12.667 -2.66699 -21.5 -8 -26.5s-14.333 -7.5 -27 -7.5h-48c-13.333 0 -22.5 2.66699 -27.5 8s-7.5 14.333 -7.5 27v574
c0 12.667 2.5 21.667 7.5 27s14.167 8 27.5 8h48c12.667 0 21.667 -2.5 27 -7.5s8 -13.833 8 -26.5l-1 -231h416l-2 231c0 12.667 2.66699 21.5 8 26.5s14.333 7.5 27 7.5h49c13.333 0 22.5 -2.66699 27.5 -8s7.5 -14.333 7.5 -27z" />
    <glyph glyph-name="I" unicode="I" horiz-adv-x="685" 
d="M529 71v-37c0 -13.333 -2.5 -22.5 -7.5 -27.5s-14.167 -7.5 -27.5 -7.5h-304c-13.333 0 -22.5 2.5 -27.5 7.5s-7.5 14.167 -7.5 27.5v37c0 12.667 2.66699 21.5 8 26.5s14.666 7.5 27.999 7.5l93 -1v432l-93 -2c-13.333 -0.666992 -22.666 1.5 -27.999 6.5
s-8 14.167 -8 27.5v38c0 13.333 2.5 22.5 7.5 27.5s14.167 7.5 27.5 7.5h304c13.333 0 22.5 -2.5 27.5 -7.5s7.5 -14.167 7.5 -27.5v-38c0 -13.333 -2.66699 -22.5 -8 -27.5s-14.666 -7.16699 -27.999 -6.5l-93 2v-432l93 1c13.333 0 22.666 -2.5 27.999 -7.5
s8 -13.833 8 -26.5z" />
    <glyph glyph-name="J" unicode="J" horiz-adv-x="735" 
d="M571 109l-90.999 -90c-16 -16 -35.667 -24 -59 -24h-180c-23.333 0 -43 8 -59 24l-76 74c-17.333 16.667 -18 33 -2 49l37 38c8.66699 9.33301 16.667 13.833 24 13.5s15.666 -5.5 24.999 -15.5l72 -74h140l77 77v350l-329 -2c-12.667 0 -21.5 2.66699 -26.5 8
s-7.5 14.333 -7.5 27v41c0 12.667 2.66699 21.667 8 27s14.333 8 27 8h409c13.333 0 22.5 -2.66699 27.5 -8s7.5 -14.333 7.5 -27v-437c0 -23.333 -8 -43 -24 -59z" />
    <glyph glyph-name="K" unicode="K" horiz-adv-x="879" 
d="M634 553l-2.00098 55c-0.666992 12.667 1.5 21.5 6.5 26.5s14.167 7.5 27.5 7.5h54c12.667 0 21.667 -2.5 27 -7.5s8 -13.833 8 -26.5l-1 -62c0 -23.333 -8.33301 -42.333 -25 -57l-184 -167l183 -172c17.333 -16.667 26 -36 26 -58l1 -60
c0 -12.667 -2.66699 -21.5 -8 -26.5s-14.333 -7.5 -27 -7.5h-53c-12.667 0 -21.667 2.5 -27 7.5s-7.66602 13.833 -6.99902 26.5l2 50l-194 183h-185l1 -233c0 -12.667 -2.66699 -21.5 -8 -26.5s-14.333 -7.5 -27 -7.5h-48c-13.333 0 -22.5 2.66699 -27.5 8
s-7.5 14.333 -7.5 27v574c0 12.667 2.5 21.667 7.5 27s14.167 8 27.5 8h48c12.667 0 21.667 -2.5 27 -7.5s8 -13.833 8 -26.5l-1 -232h186z" />
    <glyph glyph-name="L" unicode="L" horiz-adv-x="763" 
d="M548 109l51.998 54.002c9.33301 9.33301 17.5 14.166 24.5 14.499s15.167 -3.83398 24.5 -12.501l38 -37c8.66699 -9.33301 12.834 -17.5 12.501 -24.5s-5.16602 -15.167 -14.499 -24.5l-55 -54c-16.667 -16.667 -37 -25 -61 -25h-395c-13.333 0 -22.5 2.66699 -27.5 8
s-7.5 14.333 -7.5 27v572c0 12.667 2.5 21.667 7.5 27s14.167 8 27.5 8h47c12.667 0 21.667 -2.66699 27 -8s8 -14.333 8 -27v-498h292z" />
    <glyph glyph-name="M" unicode="M" horiz-adv-x="1084" 
d="M944 563v-530c0 -12.667 -2.66699 -21.667 -8 -27s-14.333 -8 -27 -8h-47c-12.667 0 -21.667 2.5 -27 7.5s-8 13.833 -8 26.5l1 436l-265 -302c-8.66699 -9.33301 -16.167 -14 -22.5 -14s-13.833 5 -22.5 15l-265 300v-434c0 -12.667 -2.5 -21.667 -7.5 -27
s-14.167 -8 -27.5 -8h-44c-13.333 0 -22.5 2.66699 -27.5 8s-7.5 14.333 -7.5 27v531c0 23.333 8.33301 43 25 59l28 26c16 15.333 32 14 48 -4l302 -335l300 335c9.33301 10 17.5 15.167 24.5 15.5s15.167 -3.83398 24.5 -12.501l29 -27c16 -15.333 24 -34.666 24 -57.999z
" />
    <glyph glyph-name="N" unicode="N" horiz-adv-x="965" 
d="M714 154l-1 454c0 12.667 2.66699 21.5 8 26.5s14.333 7.5 27 7.5h43c12.667 0 21.667 -2.66699 27 -8s8 -14.333 8 -27v-543c0 -24 -8.33301 -43 -25 -57l-37 -32c-18 -15.333 -35 -14.333 -51 3l-461 493v-438c0 -12.667 -2.66699 -21.667 -8 -27s-14.333 -8 -27 -8
h-43c-13.333 0 -22.5 2.66699 -27.5 8s-7.5 14.333 -7.5 27v574c0 12.667 2.5 21.667 7.5 27s13.833 8 26.5 8l55 -1c22 0 41.333 -8.66699 58 -26z" />
    <glyph glyph-name="O" unicode="O" horiz-adv-x="994" 
d="M736 620l111 -111c16.667 -16.667 25 -36.667 25 -60v-259c0 -23.333 -8 -43 -24 -59l-113 -112c-16 -16 -35.667 -24 -59 -24h-358c-23.333 0 -43 8 -59 24l-113 112c-16 16 -24 35.667 -24 59v259c0 23.333 8.33301 43.333 25 60l111 111
c16.667 16.667 36.667 25 60 25h358c23.333 0 43.333 -8.33301 60 -25zM752 444l-95 93h-322l-92 -93v-247l93 -93h323l92 91z" />
    <glyph glyph-name="P" unicode="P" horiz-adv-x="825" 
d="M256 201v-166c0 -12.667 -2.33301 -21.5 -7 -26.5s-13.667 -7.83301 -27 -8.5l-47 -1c-13.333 0 -22.666 2.5 -27.999 7.5s-8 13.833 -8 26.5v572c0 12.667 2.5 21.667 7.5 27s14.167 8 27.5 8h401c23.333 0 43 -8 59 -24l81 -80c16 -16 24 -35.667 24 -59v-113
c0 -23.333 -8.33301 -43.333 -25 -60l-79 -79c-16.667 -16.667 -36.334 -25 -59.001 -25zM254 533l2 -227h301l61 61v103l-62 62z" />
    <glyph glyph-name="Q" unicode="Q" horiz-adv-x="1006" 
d="M879 449l0.000976562 -202.999c0 -23.333 -8 -43 -24 -59l-50 -49l81 -76c9.33301 -8.66699 14.166 -16.834 14.499 -24.501s-4.16699 -16.167 -13.5 -25.5l-29 -31c-16 -17.333 -32 -18 -48 -2l-81 83l-42 -42c-16 -16 -35.667 -24 -59 -24h-311
c-23.333 0 -43.333 8.33301 -60 25l-110 110c-16.667 16.667 -25 36.667 -25 60v258c0 23.333 8 43 24 59l112 113c16 16 35.667 24 59 24h367c23.333 0 43 -8 59 -24l112 -113c16 -16 24 -35.667 24 -59zM620.001 102.001l34 33.999l-85 75
c-9.33301 8.66699 -14.166 16.334 -14.499 23.001s3.83398 14.667 12.501 24l33 34c9.33301 9.33301 17.666 14 24.999 14s15.666 -4.66699 24.999 -14l79 -81l32 33v196l-97 95h-332l-90 -90v-246l96 -96z" />
    <glyph glyph-name="R" unicode="R" horiz-adv-x="905" 
d="M257 200l-0.000976562 -164.999c0 -12.667 -2.33301 -21.5 -7 -26.5s-13.667 -7.83301 -27 -8.5l-48 -1c-13.333 0 -22.666 2.5 -27.999 7.5s-8 13.833 -8 26.5v572c0 12.667 2.5 21.667 7.5 27s14.167 8 27.5 8h441c23.333 0 43 -8 59 -24l78 -79
c16 -16 24 -35.667 24 -59v-93c0 -23.333 -8.66699 -43.333 -26 -60l-70 -68l67 -66c17.333 -17.333 26 -37.333 26 -60v-98c0 -12.667 -2.5 -21.667 -7.5 -27s-14.167 -8 -27.5 -8h-53c-13.333 0 -22.5 2.66699 -27.5 8s-7.16699 14.666 -6.5 27.999l2 91l-75 75h-321z
M254.999 533.001l2 -228h319l78 77v94l-57 56z" />
    <glyph glyph-name="S" unicode="S" horiz-adv-x="764" 
d="M146 21l-45.001 44.002c-16.667 16.667 -16.667 32.667 0 48l35 34c9.33301 9.33301 17.833 14.166 25.5 14.499s15.834 -4.16699 24.501 -13.5l44 -45h276l20 27l-416 337c-10 8 -15.333 15.5 -16 22.5s3.33301 16.167 12 27.5l74 98c14.667 19.333 33.667 29 57 29h310
c23.333 0 43 -8 59 -24l43 -44c8.66699 -9.33301 13 -17.333 13 -24s-4.33301 -14.667 -13 -24l-37 -36c-16 -16 -32 -15.333 -48 2l-40 43h-254l-22 -28l418 -335c10 -8 15.333 -15.333 16 -22s-3 -15.334 -11 -26.001l-80 -103c-14 -18 -32.667 -27 -56 -27h-328
c-24 0 -44.333 8.33301 -61 25z" />
    <glyph glyph-name="T" unicode="T" horiz-adv-x="829" 
d="M472 532l-0.00195312 -499c0 -12.667 -2.66699 -21.667 -8 -27s-14.333 -8 -27 -8h-47c-12.667 0 -21.667 2.5 -27 7.5s-8 13.833 -8 26.5l1 500h-164l-47 -50c-8.66699 -9.33301 -16.667 -14.166 -24 -14.499s-15.333 4.16699 -24 13.5l-40 39
c-8.66699 9.33301 -13 17.333 -13 24s4.33301 14.667 13 24l49 48c16 16 35.667 24 59 24h498c23.333 0 43 -8 59 -24l49 -48c8.66699 -9.33301 13 -17.333 13 -24s-4.33301 -14.667 -13 -24l-39 -38c-9.33301 -9.33301 -17.666 -13.833 -24.999 -13.5
s-15.666 5.16602 -24.999 14.499l-46 49h-164z" />
    <glyph glyph-name="U" unicode="U" horiz-adv-x="916" 
d="M660 200l-1 408c0 12.667 2.66699 21.5 8 26.5s14.333 7.5 27 7.5h47c12.667 0 21.667 -2.66699 27 -8s8 -14.333 8 -27v-576c0 -12.667 -2.33301 -21.5 -7 -26.5s-13 -7.5 -25 -7.5h-3c-22 0.666992 -37.667 11 -47 31l-29 60l-74 -70c-16 -15.333 -35.667 -23 -59 -23
h-204c-23.333 0 -43 8 -59 24l-106 104c-16 16 -24 35.667 -24 59v425c0 12.667 2.5 21.667 7.5 27s14.167 8 27.5 8h47c12.667 0 21.667 -2.66699 27 -8s8 -14.333 8 -27v-413l89 -91h212z" />
    <glyph glyph-name="V" unicode="V" horiz-adv-x="871" 
d="M630 312l-2.00195 296c0 12.667 2.66699 21.5 8 26.5s14.333 7.5 27 7.5h49c12.667 0 21.667 -2.5 27 -7.5s8 -13.833 8 -26.5l-1 -302c0 -22.667 -8.33301 -42.667 -25 -60l-260 -268c-9.33301 -10 -17.666 -15 -24.999 -15s-15.666 5 -24.999 15l-261 268
c-16.667 17.333 -25 37.333 -25 60l-1 302c0 12.667 2.66699 21.5 8 26.5s14.333 7.5 27 7.5h49c12.667 0 21.667 -2.5 27 -7.5s8 -13.833 8 -26.5l-1 -294l194 -209z" />
    <glyph glyph-name="W" unicode="W" horiz-adv-x="1127" 
d="M869 210l-1.00391 398c0 12.667 2.66699 21.5 8 26.5s14.333 7.5 27 7.5h49c13.333 0 22.5 -2.66699 27.5 -8s7.5 -14.333 7.5 -27v-412c0 -23.333 -8.33301 -43.666 -25 -60.999l-149 -153c-9.33301 -10 -17.666 -15 -24.999 -15s-15.666 5 -24.999 15l-201 209
l-201 -209c-9.33301 -10 -17.666 -15 -24.999 -15s-15.666 5 -24.999 15l-147 153c-16.667 17.333 -25 37.666 -25 60.999v412c0 12.667 2.5 21.667 7.5 27s14.167 8 27.5 8h49c12.667 0 21.667 -2.66699 27 -8s8 -14.333 8 -27v-395l83 -83l163 165l-2 273
c0 12.667 2.66699 21.5 8 26.5s14.333 7.5 27 7.5h52c12.667 0 21.667 -2.5 27 -7.5s8 -13.833 8 -26.5l-1 -271l164 -167z" />
    <glyph glyph-name="X" unicode="X" horiz-adv-x="903" 
d="M661 543l-1.99902 64.999c-0.666992 12.667 1.66602 21.5 6.99902 26.5s14.333 7.5 27 7.5h52c12.667 0 21.667 -2.5 27 -7.5s8 -13.833 8 -26.5l-1 -70c0 -22.667 -8 -41.667 -24 -57l-168 -159l166 -161c17.333 -16.667 26 -36.334 26 -59.001l1 -70
c0 -12.667 -2.66699 -21.5 -8 -26.5s-14.333 -7.5 -27 -7.5h-51c-13.333 0 -22.5 2.5 -27.5 7.5s-7.16699 13.833 -6.5 26.5l2 64l-168 172h-87l-166 -170l1 -64c0 -13.333 -2.5 -22.666 -7.5 -27.999s-13.833 -8 -26.5 -8h-51c-12.667 0 -21.667 2.5 -27 7.5
s-8 13.833 -8 26.5l1 70c0 22.667 8 41.667 24 57l170 162l-169 160c-16 15.333 -24 34.333 -24 57l-1 70c0 12.667 2.66699 21.5 8 26.5s14.333 7.5 27 7.5h51c12.667 0 21.5 -2.66699 26.5 -8s7.5 -14.666 7.5 -27.999l-1 -61l168 -170h87z" />
    <glyph glyph-name="Y" unicode="Y" horiz-adv-x="807" 
d="M613 521l-2 85c-0.666992 13.333 1.5 22.666 6.5 27.999s14.167 8 27.5 8h51c13.333 0 22.5 -2.66699 27.5 -8s7.5 -14.333 7.5 -27v-95c0 -22.667 -8.66699 -42.667 -26 -60l-243 -238l1 -182c0 -12.667 -2.66699 -21.5 -8 -26.5s-14.333 -7.5 -27 -7.5h-50
c-12.667 0 -21.667 2.5 -27 7.5s-8 13.833 -8 26.5l2 181l-244 239c-17.333 17.333 -26 37.333 -26 60v95c0 12.667 2.5 21.667 7.5 27s14.167 8 27.5 8h52c12.667 0 21.5 -2.66699 26.5 -8s7.5 -14.666 7.5 -27.999l-1 -85l210 -210z" />
    <glyph glyph-name="Z" unicode="Z" horiz-adv-x="831" 
d="M238 536l-60.0029 -62.001c-9.33301 -9.33301 -17.666 -14.166 -24.999 -14.499s-15.666 4.5 -24.999 14.5l-33 34c-9.33301 10 -14.166 18.667 -14.499 26s4.16699 15.333 13.5 24l57 58c16 16 35.667 24 59 24h420c22.667 0 42 -9.33301 58 -28l31 -37
c15.333 -19.333 14.666 -36.333 -2.00098 -51l-456 -420h336l59 60c10 10 18.333 15.167 25 15.5s14.667 -4.16699 24 -13.5l35 -36c9.33301 -9.33301 13.833 -17.833 13.5 -25.5s-5.16602 -16.167 -14.499 -25.5l-56 -55c-16 -16 -35.667 -24 -59 -24h-434
c-24 0 -43 8.66699 -57 26l-33 40c-8.66699 10 -12.667 18.5 -12 25.5s5.66699 14.833 15 23.5l458 421h-323z" />
    <glyph glyph-name="bracketleft" unicode="[" horiz-adv-x="464" 
d="M174 728h157c12.667 0 21.667 -2.66699 27 -8s8 -14.333 8 -27v-38c0 -13.333 -2.66699 -22.5 -8 -27.5s-14.666 -7.16699 -27.999 -6.5l-83 2v-606l83 1c13.333 0 22.666 -2.5 27.999 -7.5s8 -13.833 8 -26.5v-37c0 -12.667 -2.66699 -21.667 -8 -27s-14.333 -8 -27 -8
h-157c-13.333 0 -22.5 2.66699 -27.5 8s-7.5 14.333 -7.5 27v746c0 12.667 2.5 21.667 7.5 27s14.167 8 27.5 8z" />
    <glyph glyph-name="backslash" unicode="\" horiz-adv-x="642" 
d="M75 538l-1 69.999c0 12.667 2.66699 21.5 8 26.5s14.333 7.5 27 7.5h46c12.667 0 21.5 -2.66699 26.5 -8s7.5 -14.666 7.5 -27.999l-1 -66l354 -377c16 -16.667 24 -36.667 24 -60l1 -71c0 -12.667 -2.66699 -21.5 -8 -26.5s-14.333 -7.5 -27 -7.5h-46
c-13.333 0 -22.5 2.5 -27.5 7.5s-7.16699 13.833 -6.5 26.5l2 69l-355 377c-16 16.667 -24 36.667 -24 60z" />
    <glyph glyph-name="bracketright" unicode="]" horiz-adv-x="464" 
d="M289 -88h-157c-13.333 0 -22.5 2.66699 -27.5 8s-7.5 14.333 -7.5 27v37c0 12.667 2.66699 21.5 8 26.5s14.666 7.5 27.999 7.5l83 -1v606l-83 -2c-13.333 -0.666992 -22.666 1.5 -27.999 6.5s-8 14.167 -8 27.5v38c0 12.667 2.5 21.667 7.5 27s14.167 8 27.5 8h157
c12.667 0 21.667 -2.66699 27 -8s8 -14.333 8 -27v-746c0 -12.667 -2.66699 -21.667 -8 -27s-14.333 -8 -27 -8z" />
    <glyph glyph-name="asciicircum" unicode="^" horiz-adv-x="635" 
d="M102 471l191 192c8.66699 8.66699 16.667 13 24 13s15.333 -4.33301 24 -13l192 -191c16.667 -16.667 16.667 -32.667 0 -48l-34 -33c-8.66699 -8.66699 -16.667 -13 -24 -13s-15.333 4.33301 -24 13l-134 136l-134 -136c-8.66699 -8.66699 -16.5 -13 -23.5 -13
s-15.167 4.33301 -24.5 13l-33 32c-9.33301 8.66699 -14 16.667 -14 24s4.66699 15.333 14 24z" />
    <glyph glyph-name="underscore" unicode="_" horiz-adv-x="604" 
d="M606 -78v-32c0 -13.333 -2.66699 -22.5 -8 -27.5s-14.333 -7.5 -27 -7.5h-538c-12.667 0 -21.667 2.5 -27 7.5s-8 14.167 -8 27.5v32c0 13.333 2.66699 22.5 8 27.5s14.333 7.5 27 7.5h538c12.667 0 21.667 -2.5 27 -7.5s8 -14.167 8 -27.5z" />
    <glyph glyph-name="grave" unicode="`" horiz-adv-x="1200" 
d="M478 869l27.999 27c8.66699 9.33301 16.834 13.833 24.501 13.5s16.167 -5.16602 25.5 -14.499l121 -119c9.33301 -8.66699 13.833 -16.667 13.5 -24s-5.16602 -15.666 -14.499 -24.999l-26 -26c-9.33301 -9.33301 -17.833 -14 -25.5 -14s-16.167 4.66699 -25.5 14
l-121 118c-10 9.33301 -14.833 17.666 -14.5 24.999s5.16602 15.666 14.499 24.999z" />
    <glyph glyph-name="a" unicode="a" horiz-adv-x="881" 
d="M755 362l-0.000976562 -327.001c0 -12.667 -2.33301 -21.5 -7 -26.5s-13.667 -7.83301 -27 -8.5l-47 -1c-13.333 0 -22.666 2.33301 -27.999 7s-8 13.334 -8 26.001l2 151h-400l1 -151c0 -12.667 -2.66699 -21.5 -8 -26.5s-14.333 -7.5 -27 -7.5h-48
c-12.667 0 -21.667 2.5 -27 7.5s-8 13.833 -8 26.5l1 331c0 22.667 8 42 24 58l205 208c16 16 35.667 24 59 24h57c22.667 0 42.667 -8.66699 60 -26l202 -206c16 -16 24 -35.667 24 -59zM641.999 357.999l-202 198l-200 -196v-75h400z" />
    <glyph glyph-name="b" unicode="b" horiz-adv-x="891" 
d="M139 35l-0.000976562 570c0 12.667 2.5 21.667 7.5 27s14.167 8 27.5 8h476c22.667 0 42.334 -8 59.001 -24l32 -31c17.333 -17.333 26 -37.333 26 -60v-96c0 -23.333 -8.33301 -43 -25 -59l-50 -48l50 -51c16.667 -16.667 25 -37 25 -61v-96c0 -24 -8 -43.667 -24 -59
l-31 -30c-16.667 -16.667 -37 -25 -61 -25h-477c-13.333 0 -22.5 2.66699 -27.5 8s-7.5 14.333 -7.5 27zM255.999 270v-167h378v167h-378zM253.999 538l2 -166h378v165z" />
    <glyph glyph-name="c" unicode="c" horiz-adv-x="796" 
d="M311 640l357.999 1c12.667 0 21.5 -2.66699 26.5 -8s7.5 -14.333 7.5 -27v-41c0 -12.667 -2.5 -21.667 -7.5 -27s-13.833 -8 -26.5 -8l-339 2l-85 -85v-253l87 -86l339 1c12.667 0 21.5 -2.66699 26.5 -8s7.5 -14.333 7.5 -27v-39c0 -12.667 -2.5 -21.667 -7.5 -27
s-14.167 -8 -27.5 -8h-358c-23.333 -0 -43.333 8.33301 -60 25l-105 105c-16.667 16.667 -25 36.667 -25 60v260c0 23.333 8.33301 43.333 25 60l105 105c16.667 16.667 36.334 25 59.001 25z" />
    <glyph glyph-name="d" unicode="d" horiz-adv-x="944" 
d="M688 0h-514c-13.333 0 -22.5 2.66699 -27.5 8s-7.5 14.333 -7.5 27v570c0 12.667 2.5 21.667 7.5 27s14.167 8 27.5 8h514c23.333 0 43.333 -8.33301 60 -25l31 -31c16.667 -16.667 25 -36.667 25 -60v-409c0 -24 -8 -43.667 -24 -59l-33 -32
c-16 -16 -35.667 -24 -59 -24zM255 532v-424h423v424h-423z" />
    <glyph glyph-name="e" unicode="e" horiz-adv-x="788" 
d="M139 35v570c0 12.667 2.5 21.667 7.5 27s14.167 8 27.5 8h465c12.667 0 21.667 -2.66699 27 -8s8 -14.333 8 -27v-41c0 -12.667 -2.5 -21.667 -7.5 -27s-13.833 -8 -26.5 -8l-385 2v-151l348 1c12.667 0 21.5 -2.66699 26.5 -8s7.5 -14.333 7.5 -27v-45
c0 -12.667 -2.5 -21.667 -7.5 -27s-13.833 -8 -26.5 -8l-348 2v-159l389 1c12.667 0 21.5 -2.66699 26.5 -8s7.5 -14.333 7.5 -27v-40c0 -12.667 -2.66699 -21.667 -8 -27s-14.333 -8 -27 -8h-469c-13.333 0 -22.5 2.66699 -27.5 8s-7.5 14.333 -7.5 27z" />
    <glyph glyph-name="f" unicode="f" horiz-adv-x="720" 
d="M256 252l1 -220c0 -12.667 -2.66699 -21.5 -8 -26.5s-14.333 -7.5 -27 -7.5h-48c-13.333 0 -22.5 2.66699 -27.5 8s-7.5 14.333 -7.5 27v572c0 12.667 2.5 21.667 7.5 27s14.167 8 27.5 8h437c12.667 0 21.667 -2.66699 27 -8s8 -14.333 8 -27v-39
c0 -12.667 -2.5 -21.667 -7.5 -27s-13.833 -8 -26.5 -8l-356 2v-169l336 1c12.667 0 21.5 -2.66699 26.5 -8s7.5 -14.333 7.5 -27v-45c0 -12.667 -2.5 -21.667 -7.5 -27s-13.833 -8 -26.5 -8z" />
    <glyph glyph-name="g" unicode="g" horiz-adv-x="899" 
d="M311 639h410c12.667 0 21.667 -2.5 27 -7.5s8 -14.167 8 -27.5v-39c0 -12.667 -2.5 -21.667 -7.5 -27s-13.833 -8 -26.5 -8l-391 2l-86 -87v-250l92 -92h321v153l-178 -2c-12.667 0 -21.5 2.66699 -26.5 8s-7.5 14.333 -7.5 27v34c0 12.667 2.66699 21.667 8 27
s14.333 8 27 8h256c12.667 0 21.667 -2.66699 27 -8s8 -14.333 8 -27v-288c0 -12.667 -2.66699 -21.667 -8 -27s-14.333 -8 -27 -8h-427c-23.333 -0 -43.333 8.33301 -60 25l-103 103c-16.667 16.667 -25 36.667 -25 60v261c0 23.333 8 43 24 59l106 107
c16 16 35.667 24 59 24z" />
    <glyph glyph-name="h" unicode="h" horiz-adv-x="928" 
d="M789 607v-574c0 -12.667 -2.5 -21.667 -7.5 -27s-14.167 -8 -27.5 -8h-49c-12.667 0 -21.667 2.5 -27 7.5s-8 13.833 -8 26.5l2 235h-416l1 -235c0 -12.667 -2.66699 -21.5 -8 -26.5s-14.333 -7.5 -27 -7.5h-48c-13.333 0 -22.5 2.66699 -27.5 8s-7.5 14.333 -7.5 27v574
c0 12.667 2.5 21.667 7.5 27s14.167 8 27.5 8h48c12.667 0 21.667 -2.5 27 -7.5s8 -13.833 8 -26.5l-1 -231h416l-2 231c0 12.667 2.66699 21.5 8 26.5s14.333 7.5 27 7.5h49c13.333 0 22.5 -2.66699 27.5 -8s7.5 -14.333 7.5 -27z" />
    <glyph glyph-name="i" unicode="i" horiz-adv-x="395" 
d="M139 33v574c0 12.667 2.5 21.667 7.5 27s14.167 8 27.5 8h47c12.667 0 21.667 -2.66699 27 -8s8 -14.333 8 -27v-574c0 -12.667 -2.66699 -21.667 -8 -27s-14.333 -8 -27 -8h-47c-13.333 0 -22.5 2.66699 -27.5 8s-7.5 14.333 -7.5 27z" />
    <glyph glyph-name="j" unicode="j" horiz-adv-x="396" 
d="M231 -119l-91 -91c-9.33301 -9.33301 -17.5 -14.166 -24.5 -14.499s-15.167 4.16699 -24.5 13.5l-35 34c-9.33301 8.66699 -13.833 16.667 -13.5 24s5.5 15.666 15.5 24.999l82 79l-1 657c0 12.667 2.66699 21.5 8 26.5s14.333 7.5 27 7.5h47
c12.667 0 21.667 -2.66699 27 -8s8 -14.333 8 -27v-666c0 -23.333 -8.33301 -43.333 -25 -60z" />
    <glyph glyph-name="k" unicode="k" horiz-adv-x="870" 
d="M521 321l246.996 -245.001c9.33301 -8.66699 13.833 -16.667 13.5 -24s-5.16602 -15.666 -14.499 -24.999l-35 -35c-9.33301 -9.33301 -17.666 -13.833 -24.999 -13.5s-15.666 5.16602 -24.999 14.499l-268 273h-158l1 -234c0 -12.667 -2.66699 -21.5 -8 -26.5
s-14.333 -7.5 -27 -7.5h-48c-13.333 0 -22.5 2.66699 -27.5 8s-7.5 14.333 -7.5 27v574c0 12.667 2.5 21.667 7.5 27s14.167 8 27.5 8h48c12.667 0 21.667 -2.5 27 -7.5s8 -13.833 8 -26.5l-1 -232h162l263 271c9.33301 10 17.5 15.167 24.5 15.5
s15.167 -4.16699 24.5 -13.5l36 -35c9.33301 -8.66699 13.833 -16.667 13.5 -24s-5.16602 -15.666 -14.499 -24.999z" />
    <glyph glyph-name="l" unicode="l" horiz-adv-x="706" 
d="M256 111l354 1c12.667 0 21.5 -2.66699 26.5 -8s7.5 -14.333 7.5 -27v-42c0 -12.667 -2.66699 -21.667 -8 -27s-14.333 -8 -27 -8h-435c-13.333 0 -22.5 2.66699 -27.5 8s-7.5 14.333 -7.5 27v572c0 12.667 2.5 21.667 7.5 27s14.167 8 27.5 8h47
c12.667 0 21.667 -2.66699 27 -8s8 -14.333 8 -27v-496z" />
    <glyph glyph-name="m" unicode="m" horiz-adv-x="1175" 
d="M645 531v-498c0 -12.667 -2.5 -21.667 -7.5 -27s-14.167 -8 -27.5 -8h-47c-12.667 0 -21.667 2.5 -27 7.5s-8 13.833 -8 26.5l1 499h-274v-498c0 -12.667 -2.5 -21.667 -7.5 -27s-14.167 -8 -27.5 -8h-46c-13.333 0 -22.5 2.66699 -27.5 8s-7.5 14.333 -7.5 27v572
c0 12.667 2.5 21.667 7.5 27s14.167 8 27.5 8h743c23.333 0 43.333 -8.33301 60 -25l33 -33c16.667 -16.667 25 -36.667 25 -60v-489c0 -12.667 -2.5 -21.667 -7.5 -27s-14.167 -8 -27.5 -8h-47c-12.667 0 -21.667 2.5 -27 7.5s-8 13.833 -8 26.5l1 499h-274z" />
    <glyph glyph-name="n" unicode="n" horiz-adv-x="902" 
d="M763 522l-0.000976562 -489c0 -12.667 -2.5 -21.667 -7.5 -27s-14.167 -8 -27.5 -8h-47c-12.667 0 -21.667 2.5 -27 7.5s-8 13.833 -8 26.5l1 499h-391v-498c0 -12.667 -2.66699 -21.667 -8 -27s-14.333 -8 -27 -8h-47c-13.333 0 -22.5 2.66699 -27.5 8
s-7.5 14.333 -7.5 27v572c0 12.667 2.5 21.667 7.5 27s14.167 8 27.5 8h470c22.667 0 42.334 -8 59.001 -24l36 -35c16 -16 24 -35.667 24 -59z" />
    <glyph glyph-name="o" unicode="o" horiz-adv-x="933" 
d="M198 21l-35 33.999c-16 16 -24 35.667 -24 59v410c0 22.667 8 42.334 24 59.001l35 36c16 16 35.667 24 59 24h417c23.333 0 43.333 -8.33301 60 -25l34 -34c16.667 -16.667 25 -36.667 25 -60v-410c0 -24 -8 -43.667 -24 -59l-34 -33c-16.667 -16.667 -37 -25 -61 -25
h-417c-23.333 0 -43 8 -59 24zM258 532.999v-426h416v426h-416z" />
    <glyph glyph-name="p" unicode="p" horiz-adv-x="825" 
d="M256 201v-166c0 -12.667 -2.33301 -21.5 -7 -26.5s-13.667 -7.83301 -27 -8.5l-47 -1c-13.333 0 -22.666 2.5 -27.999 7.5s-8 13.833 -8 26.5v572c0 12.667 2.5 21.667 7.5 27s14.167 8 27.5 8h401c23.333 0 43 -8 59 -24l81 -80c16 -16 24 -35.667 24 -59v-113
c0 -23.333 -8.33301 -43.333 -25 -60l-79 -79c-16.667 -16.667 -36.334 -25 -59.001 -25zM254 533l2 -227h301l61 61v103l-62 62z" />
    <glyph glyph-name="q" unicode="q" horiz-adv-x="994" 
d="M438 -100l1 95h-121c-23.333 0 -43 8 -59 24l-113 112c-16 16 -24 35.667 -24 59v259c0 23.333 8.33301 43.333 25 60l111 111c16.667 16.667 36.667 25 60 25h358c23.333 0 43.333 -8.33301 60 -25l111 -111c16.667 -16.667 25 -36.667 25 -60v-259
c0 -23.333 -8 -43 -24 -59l-113 -112c-16 -16 -35.667 -24 -59 -24h-119v-94c0 -12.667 -2.5 -21.667 -7.5 -27s-14.167 -8 -27.5 -8h-49c-12.667 0 -21.667 2.5 -27 7.5s-8 13.833 -8 26.5zM752 444l-95 93h-322l-92 -93v-247l93 -93h323l92 91z" />
    <glyph glyph-name="r" unicode="r" horiz-adv-x="887" 
d="M257 226l-0.000976562 -191c0 -12.667 -2.33301 -21.5 -7 -26.5s-13.667 -7.83301 -27 -8.5l-48 -1c-13.333 0 -22.666 2.5 -27.999 7.5s-8 13.833 -8 26.5v572c0 12.667 2.5 21.667 7.5 27s14.167 8 27.5 8h433c23.333 0 43 -8 59 -24l77 -78c16 -16 24 -35.667 24 -59
v-83c0 -23.333 -8 -43 -24 -59l-80 -81c-16 -16 -32 -23.667 -48 -23l-26 2l170 -165c10 -9.33301 14.833 -17.5 14.5 -24.5s-5.5 -15.167 -15.5 -24.5l-35 -32c-16.667 -15.333 -33 -15 -49 1l-233 236h-184zM254.999 538l2 -209h323l67 67v76l-66 65z" />
    <glyph glyph-name="s" unicode="s" horiz-adv-x="733" 
d="M511 0l-368 -0.00195312c-12.667 0 -21.667 2.66699 -27 8s-8 14.333 -8 27v41c0 12.667 2.5 21.667 7.5 27s13.833 8 26.5 8l326 -1l20 23l-389 334c-10.667 8.66699 -16.334 16.834 -17.001 24.501s3.33301 16.834 12 27.501l70 92c14.667 19.333 33.334 29 56.001 29
l358 1c12.667 0 21.5 -2.66699 26.5 -8s7.5 -14.333 7.5 -27v-43c0 -12.667 -2.5 -21.667 -7.5 -27s-13.833 -8 -26.5 -8l-312 2l-19 -23l389 -334c10.667 -8.66699 16.334 -16.667 17.001 -24s-3 -16 -11 -26l-75 -96c-14.667 -18 -33.334 -27 -56.001 -27z" />
    <glyph glyph-name="t" unicode="t" horiz-adv-x="734" 
d="M425 531v-498c0 -12.667 -2.5 -21.667 -7.5 -27s-14.167 -8 -27.5 -8h-48c-12.667 0 -21.667 2.5 -27 7.5s-8 13.833 -8 26.5l1 499l-220 -2c-12.667 0 -21.5 2.66699 -26.5 8s-7.5 14.333 -7.5 27v41c0 12.667 2.66699 21.667 8 27s14.333 8 27 8h555
c13.333 0 22.5 -2.66699 27.5 -8s7.5 -14.333 7.5 -27v-41c0 -12.667 -2.5 -21.667 -7.5 -27s-13.833 -8 -26.5 -8z" />
    <glyph glyph-name="u" unicode="u" horiz-adv-x="918" 
d="M662 193l-1 415c0 12.667 2.66699 21.5 8 26.5s14.333 7.5 27 7.5h47c12.667 0 21.667 -2.66699 27 -8s8 -14.333 8 -27v-425c0 -23.333 -8.33301 -43.333 -25 -60l-101 -101c-16.667 -16.667 -36.667 -25 -60 -25h-267c-23.333 0 -43 8 -59 24l-103 102
c-16 16 -24 35.667 -24 59v426c0 12.667 2.5 21.667 7.5 27s14.167 8 27.5 8h47c12.667 0 21.667 -2.66699 27 -8s8 -14.333 8 -27v-412l89 -90h230z" />
    <glyph glyph-name="v" unicode="v" horiz-adv-x="871" 
d="M630 312l-2.00195 296c0 12.667 2.66699 21.5 8 26.5s14.333 7.5 27 7.5h49c12.667 0 21.667 -2.5 27 -7.5s8 -13.833 8 -26.5l-1 -302c0 -22.667 -8.33301 -42.667 -25 -60l-260 -268c-9.33301 -10 -17.666 -15 -24.999 -15s-15.666 5 -24.999 15l-261 268
c-16.667 17.333 -25 37.333 -25 60l-1 302c0 12.667 2.66699 21.5 8 26.5s14.333 7.5 27 7.5h49c12.667 0 21.667 -2.5 27 -7.5s8 -13.833 8 -26.5l-1 -294l194 -209z" />
    <glyph glyph-name="w" unicode="w" horiz-adv-x="1068" 
d="M816 156l-1.00098 451.999c0 12.667 2.66699 21.5 8 26.5s14.333 7.5 27 7.5h44c13.333 0 22.5 -2.66699 27.5 -8s7.5 -14.333 7.5 -27v-508c0 -22.667 -8.66699 -42.667 -26 -60l-58 -57c-16 -16 -32 -15.333 -48 2l-263 283l-264 -283c-16 -17.333 -32 -18 -48 -2
l-59 58c-16 16 -24 35.667 -24 59v508c0 12.667 2.5 21.667 7.5 27s14.167 8 27.5 8h44c13.333 0 22.5 -2.66699 27.5 -8s7.5 -14.333 7.5 -27v-451l15 -15l242 265c8.66699 9.33301 16.334 13.833 23.001 13.5s14.667 -5.16602 24 -14.499l245 -263z" />
    <glyph glyph-name="x" unicode="x" horiz-adv-x="844" 
d="M339 320l-237.999 240.003c-9.33301 8.66699 -13.833 16.667 -13.5 24s5.16602 15.666 14.499 24.999l36 36c9.33301 9.33301 17.5 14.166 24.5 14.499s14.833 -4.16699 23.5 -13.5l235 -247l235 247c15.333 16.667 31 16.667 47 0l35 -36
c9.33301 -9.33301 14 -17.333 14 -24s-4.66699 -14.667 -14 -24l-236 -239l240 -245c9.33301 -9.33301 14 -17.333 14 -24s-4.66699 -14.667 -14 -24l-37 -36c-8.66699 -9.33301 -16.667 -13.833 -24 -13.5s-15.333 5.16602 -24 14.499l-236 250l-239 -251
c-15.333 -16.667 -31 -16.667 -47 0l-34 35c-8.66699 8.66699 -13 16.667 -13 24s4.33301 15.333 13 24z" />
    <glyph glyph-name="y" unicode="y" horiz-adv-x="822" 
d="M352 284l-276.999 275c-8.66699 8.66699 -13 16.667 -13 24s4.33301 15.333 13 24l38 37c8.66699 9.33301 16.667 13.833 24 13.5s15.666 -5.5 24.999 -15.5l250 -258l249 258c9.33301 10 17.5 15.167 24.5 15.5s15.167 -4.16699 24.5 -13.5l36 -35
c9.33301 -8.66699 14 -16.667 14 -24s-4.66699 -15.333 -14 -24l-278 -279l1 -250c0 -12.667 -2.66699 -21.5 -8 -26.5s-14.333 -7.5 -27 -7.5h-49c-12.667 0 -21.667 2.5 -27 7.5s-8 13.833 -8 26.5z" />
    <glyph glyph-name="z" unicode="z" horiz-adv-x="812" 
d="M533 534l-385 -2.00195c-12.667 0 -21.5 2.66699 -26.5 8s-7.5 14.333 -7.5 27v38c0 12.667 2.66699 21.667 8 27s14.333 8 27 8h451c23.333 0 43 -9 59 -27l31 -34c9.33301 -10 14 -18.667 14 -26s-4.66699 -15.666 -14 -24.999l-427 -422h404
c12.667 0 21.667 -2.66699 27 -8s8 -14.333 8 -27v-36c0 -12.667 -2.66699 -21.667 -8 -27s-14.333 -8 -27 -8h-473c-23.333 0 -43 9 -59 27l-30 33c-8.66699 10 -13 18.833 -13 26.5s4.33301 15.834 13 24.501z" />
    <glyph glyph-name="braceleft" unicode="{" horiz-adv-x="436" 
d="M110 420l-2.00195 144.999c0 22.667 8.33301 42.334 25 59.001l101 101c9.33301 9.33301 17.5 14.166 24.5 14.499s15.167 -4.16699 24.5 -13.5l32 -33c8.66699 -9.33301 12.834 -17.5 12.501 -24.5s-5.16602 -15.167 -14.499 -24.5l-89 -87l1 -128
c0 -22.667 -8 -41.667 -24 -57l-52 -49l50 -49c17.333 -17.333 26 -37 26 -59l-1 -138l89 -87c9.33301 -9.33301 14.166 -17.666 14.499 -24.999s-4.16699 -15.666 -13.5 -24.999l-30 -30c-9.33301 -9.33301 -17.666 -14.166 -24.999 -14.499s-15.333 4.16699 -24 13.5
l-103 101c-16 16 -24 35.333 -24 58l2 156l-73 73c-9.33301 9.33301 -14 17.666 -14 24.999s4.66699 15.666 14 24.999z" />
    <glyph glyph-name="bar" unicode="|" horiz-adv-x="390" 
d="M139 -67v774c0 12.667 2.5 21.667 7.5 27s14.167 8 27.5 8h42c13.333 0 22.5 -2.66699 27.5 -8s7.5 -14.333 7.5 -27v-774c0 -12.667 -2.5 -21.667 -7.5 -27s-14.167 -8 -27.5 -8h-42c-13.333 0 -22.5 2.66699 -27.5 8s-7.5 14.333 -7.5 27z" />
    <glyph glyph-name="braceright" unicode="}" horiz-adv-x="436" 
d="M325 224l0.998047 -156.001c0 -22.667 -8 -42 -24 -58l-101 -102c-8.66699 -9.33301 -16.667 -13.833 -24 -13.5s-15.666 5.16602 -24.999 14.499l-31 31c-9.33301 9.33301 -14.166 17.5 -14.499 24.5s4.16699 14.833 13.5 23.5l93 89l-2 137c0 22.667 8.33301 42 25 58
l51 49l-51 49c-16.667 16 -25 35.333 -25 58l2 128l-91 88c-10 9.33301 -15.167 17.5 -15.5 24.5s4.16699 15.167 13.5 24.5l33 32c8.66699 8.66699 16.667 13 24 13s15.333 -4.33301 24 -13l101 -102c16 -16 24 -35.333 24 -58l-1 -145l73 -73
c9.33301 -9.33301 14 -17.666 14 -24.999s-4.66699 -15.666 -14 -24.999z" />
    <glyph glyph-name="asciitilde" unicode="~" horiz-adv-x="635" 
d="M397 316l101.999 105c10 10 18.333 15.167 25 15.5s14.667 -4.16699 24 -13.5l27 -28c8.66699 -8.66699 13 -16.667 13 -24s-4.33301 -15.333 -13 -24l-159 -160c-8.66699 -9.33301 -16.667 -13.833 -24 -13.5s-15.666 5.5 -24.999 15.5l-128 132l-105 -107
c-16.667 -16.667 -32.667 -16.667 -48 0l-27 28c-8.66699 9.33301 -13 17.333 -13 24s4.33301 14.667 13 24l160 159c8.66699 8.66699 16.667 13 24 13s15.333 -4.33301 24 -13z" />
    <glyph glyph-name="exclamdown" unicode="&#xa1;" horiz-adv-x="423" 
d="M261 379l-1.00098 -344.998c0 -12.667 -2.33301 -21.334 -7 -26.001s-13.667 -7.33398 -27 -8.00098l-48 -1c-13.333 0 -22.666 2.5 -27.999 7.5s-8 13.833 -8 26.5v345c0 13.333 2.66699 22.5 8 27.5s14.333 7.5 27 7.5h49c12.667 0 21.667 -2.5 27 -7.5
s8 -13.833 8 -26.5zM265.999 607.002v-51c0 -13.333 -2.66699 -22.5 -8 -27.5s-14.333 -7.5 -27 -7.5h-60c-12.667 0 -21.667 2.5 -27 7.5s-8 14.167 -8 27.5v51c0 12.667 2.66699 21.667 8 27s14.333 8 27 8h60c12.667 0 21.667 -2.66699 27 -8s8 -14.333 8 -27z" />
    <glyph glyph-name="cent" unicode="&#xa2;" 
d="M663 523l22.998 -22.9971c9.33301 -8.66699 13.833 -16.834 13.5 -24.501s-5.16602 -16.5 -14.499 -26.5l-32 -33c-9.33301 -10 -17.5 -14.833 -24.5 -14.5s-15.167 5.16602 -24.5 14.499l-25 27h-250l-53 -51v-141l52 -50h252l26 27
c8.66699 9.33301 16.334 14 23.001 14s14.667 -4.66699 24 -14l36 -35c16.667 -16.667 16.667 -32.667 0 -48l-26 -25c-16 -16 -35.667 -24 -59 -24h-101v-63c0 -12.667 -2.5 -21.667 -7.5 -27s-14.167 -8 -27.5 -8h-41c-12.667 0 -21.5 2.66699 -26.5 8
s-7.5 14.666 -7.5 27.999v62h-82c-23.333 0 -43.333 8.33301 -60 25l-66 66c-16.667 16.667 -25 36.667 -25 60v149c0 23.333 8 43 24 59l67 68c16 16 35.667 24 59 24h82v60c0 12.667 2.66699 21.667 8 27s14.333 8 27 8h41c13.333 0 22.5 -2.66699 27.5 -8
s7.5 -14.333 7.5 -27v-60h101c23.333 0 43 -8 59 -24z" />
    <glyph glyph-name="sterling" unicode="&#xa3;" 
d="M598 620l35 -34.999c9.33301 -9.33301 14 -17.666 14 -24.999s-4.66699 -15.666 -14 -24.999l-34 -34c-9.33301 -9.33301 -17.666 -14 -24.999 -14s-15.333 5 -24 15l-35 38h-114l-46 -46v-121l167 1c12.667 0 21.5 -2.66699 26.5 -8s7.5 -14.333 7.5 -27v-31
c0 -12.667 -2.5 -21.667 -7.5 -27s-13.833 -8 -26.5 -8l-167 2l1 -69c0 -22.667 -8 -42 -24 -58l-45 -44h292l46 47c9.33301 9.33301 17.5 14.166 24.5 14.499s15.167 -3.83398 24.5 -12.501l34 -33c9.33301 -9.33301 14 -17.333 14 -24s-4.66699 -14.667 -14 -24l-49 -48
c-16 -16 -35.667 -24 -59 -24h-358c-23.333 0 -43.333 8.33301 -60 25l-31 31c-9.33301 9.33301 -14 17.833 -14 25.5s4.66699 16.167 14 25.5l93 95v73l-51 -2c-12.667 -0.666992 -21.5 1.66602 -26.5 6.99902s-7.5 14.333 -7.5 27v33c0 13.333 2.66699 22.5 8 27.5
s14.666 7.16699 27.999 6.5l49 -1l-2 124c0 22.667 8 42 24 58l65 66c16 16 35.667 24 59 24h148c23.333 0 43.333 -8.33301 60 -25z" />
    <glyph glyph-name="currency" unicode="&#xa4;" 
d="M163 256l-0.000976562 128.003c0 25.333 8.66699 44.666 26 57.999l4 3l-93 91c-17.333 17.333 -18 33.666 -2 48.999l36 37c9.33301 9.33301 17.333 14 24 14s14.667 -4.66699 24 -14l93 -95l14 15c8.66699 9.33301 24.334 14 47.001 14h176
c23.333 0 39.333 -4.66699 48 -14l14 -15l91 93c16.667 17.333 33 18 49 2l36 -37c9.33301 -8.66699 14 -16.667 14 -24s-4.66699 -15.333 -14 -24l-94 -92l15 -14c9.33301 -8.66699 14 -24.334 14 -47.001v-128c0 -22.667 -4.66699 -38.334 -14 -47.001l-15 -14l94 -92
c16.667 -16.667 16.667 -32.667 0 -48l-36 -35c-16 -16 -32.333 -15.333 -49 2l-91 93l-14 -16c-9.33301 -10 -25.333 -15 -48 -15h-176c-22 0 -37.667 5 -47 15l-14 16l-91 -93c-9.33301 -9.33301 -17.5 -14.166 -24.5 -14.499s-15.167 3.83398 -24.5 12.501l-35 34
c-9.33301 9.33301 -14 17.666 -14 24.999s4.66699 15.666 14 24.999l93 91l-16 14c-9.33301 8.66699 -14 24.334 -14 47.001zM576.999 386.003l-71 71h-163l-70 -71v-131l70 -72h163l71 72v131z" />
    <glyph glyph-name="yen" unicode="&#xa5;" 
d="M599 106l-118 0.99707v-75c0 -12.667 -2.66699 -21.5 -8 -26.5s-14.333 -7.5 -27 -7.5h-46c-12.667 0 -21.667 2.5 -27 7.5s-8 13.833 -8 26.5v75l-120 1c-12.667 0 -21.5 2.66699 -26.5 8s-7.83301 14.333 -8.5 27l-1 20c-0.666992 12.667 1.5 21.5 6.5 26.5
s14.167 7.5 27.5 7.5h123v45h-123c-12.667 0 -21.667 2.66699 -27 8s-8 14.333 -8 27v21c0 13.333 2.66699 22.5 8 27.5s14.333 7.5 27 7.5h106l-235 228c-17.333 16.667 -18 33 -2 49l37 36c8.66699 9.33301 16.667 13.833 24 13.5s15.666 -5.5 24.999 -15.5l229 -238
l230 240c8.66699 9.33301 16.5 13.833 23.5 13.5s15.167 -5.16602 24.5 -14.499l32 -32c9.33301 -9.33301 13.833 -17.666 13.5 -24.999s-5.16602 -15.666 -14.499 -24.999l-236 -230h98c13.333 0 22.5 -2.5 27.5 -7.5s7.5 -14.167 7.5 -27.5v-21
c0 -12.667 -2.5 -21.667 -7.5 -27s-14.167 -8 -27.5 -8h-118v-45h118c13.333 0 22.5 -2.5 27.5 -7.5s7.5 -14.167 7.5 -27.5v-21c0 -12.667 -2.5 -21.667 -7.5 -27s-13.833 -8 -26.5 -8z" />
    <glyph glyph-name="brokenbar" unicode="&#xa6;" horiz-adv-x="390" 
d="M138 496v211c0 12.667 2.66699 21.667 8 27s14.333 8 27 8h44c12.667 0 21.667 -2.66699 27 -8s8 -14.333 8 -27v-211c0 -13.333 -2.66699 -22.5 -8 -27.5s-14.333 -7.5 -27 -7.5h-44c-12.667 0 -21.667 2.5 -27 7.5s-8 14.167 -8 27.5zM138 -68l2.00098 210.998
c0 12.667 2.33301 21.334 7 26.001s13.667 7.33398 27 8.00098l42 1c13.333 0 22.666 -2.5 27.999 -7.5s8 -13.833 8 -26.5v-211c0 -12.667 -2.66699 -21.667 -8 -27s-14.333 -8 -27 -8h-44c-12.667 0 -21.667 2.5 -27 7.5s-8 13.833 -8 26.5z" />
    <glyph glyph-name="section" unicode="&#xa7;" horiz-adv-x="687" 
d="M565 625l32.999 -31.998c12 -12 11.667 -24.333 -1 -37l-35 -35c-12.667 -12.667 -25 -12.334 -37 0.999023l-29 31h-272l-26 -28v-23l40 -43h250c18 0 33 -6 45 -18l61 -60c12 -12 18 -27 18 -45v-46c0 -18 -6 -33 -18 -45l-29 -28l27 -26
c13.333 -13.333 20 -28.666 20 -45.999v-45c0 -18 -6 -33 -18 -45l-42 -41c-12 -12 -27 -18 -45 -18h-332c-18.667 0 -34.334 6.33301 -47.001 19l-30 29c-13.333 13.333 -14 25.666 -2 36.999l35 36c12.667 12.667 25.334 12.667 38.001 0l30 -31h286l27 29v21l-41 43
l-252 -1c-17.333 0 -32.333 6.33301 -45 19l-59 59c-12.667 12.667 -19 28 -19 46v47c0 18 6.33301 33 19 45l29 27l-27 25c-14 13.333 -21 28.666 -21 45.999v47c0 18 6.33301 33.333 19 46l40 40c12.667 12.667 28 19 46 19h317c18.667 0 34.334 -6.33301 47.001 -19z
M197.999 310.002l40 -40h241l33 34v24l-40 41h-241l-33 -35v-24z" />
    <glyph glyph-name="dieresis" unicode="&#xa8;" horiz-adv-x="1200" 
d="M412 749v55c0 13.333 2.66699 22.5 8 27.5s14.333 7.5 27 7.5h57c13.333 0 22.5 -2.5 27.5 -7.5s7.5 -14.167 7.5 -27.5v-55c0 -12.667 -2.5 -21.667 -7.5 -27s-14.167 -8 -27.5 -8h-57c-12.667 0 -21.667 2.66699 -27 8s-8 14.333 -8 27zM659 749v55
c0 13.333 2.5 22.5 7.5 27.5s14.167 7.5 27.5 7.5h58c13.333 0 22.5 -2.5 27.5 -7.5s7.5 -14.167 7.5 -27.5v-55c0 -12.667 -2.5 -21.667 -7.5 -27s-14.167 -8 -27.5 -8h-58c-13.333 0 -22.5 2.66699 -27.5 8s-7.5 14.333 -7.5 27z" />
    <glyph glyph-name="copyright" unicode="&#xa9;" horiz-adv-x="953" 
d="M625 490l29.999 -28.998c12.667 -12.667 12.334 -25.334 -0.999023 -38.001l-37 -38c-12 -12 -24 -11.667 -36 1l-27 29h-141l-46 -47v-95l47 -48h141l25 26c13.333 12.667 26 13 38 1l37 -37c12.667 -12.667 12.334 -25.334 -0.999023 -38.001l-28 -27
c-12.667 -12.667 -28.334 -19 -47.001 -19h-184c-18 0 -33 6 -45 18l-70 68c-12 12 -18 27 -18 45v114c0 18 6 33 18 45l71 69c12 12 27 18 45 18h184c18 0 33 -6 45 -18zM685.999 627.002l126 -127c12 -12 18 -27 18 -45v-272c0 -18 -6.33301 -33.333 -19 -46l-123 -123
c-12.667 -12.667 -28 -19 -46 -19h-331c-18 0 -33.333 6.33301 -46 19l-124 124c-12.667 12.667 -19 28 -19 46v271c0 18 6 33 18 45l125 127c12 12 27 18 45 18h331c18 0 33 -6 45 -18zM742.999 451.002l-113 114h-309l-110 -112v-264l112 -114h309l111 112v264z" />
    <glyph glyph-name="ordfeminine" unicode="&#xaa;" horiz-adv-x="497" 
d="M405 290h-314c-18 0 -27 9 -27 27v37c0 18 9 27 27 27h314c18 0 27 -9 27 -27v-37c0 -18 -9 -27 -27 -27zM430 638l1.00195 -172c0 -17.333 -9 -26 -27 -26h-46c-18 0 -26.667 9 -26 27l2 55h-173l1 -54c0 -18.667 -8.66699 -28 -26 -28h-44c-18 0 -27 8.66699 -27 26
l1 172c0 18 6.33301 33.333 19 46l91 94c13.333 13.333 28.666 20 45.999 20h52c17.333 0 32.666 -6.66699 45.999 -20l91 -94c12.667 -12.667 19 -28 19 -46zM336.002 633l-88 86l-87 -84v-30h173z" />
    <glyph glyph-name="guillemotleft" unicode="&#xab;" horiz-adv-x="711" 
d="M235 106l-166 190.002c-14.667 17.333 -14.667 34 0 50l167 192c8.66699 9.33301 16.334 14.333 23.001 15s15 -3.33301 25 -12l29 -24c10.667 -8.66699 16.334 -16.5 17.001 -23.5s-3.33301 -15.167 -12 -24.5l-130 -144l131 -146
c9.33301 -10 13.666 -18.667 12.999 -26s-6.33398 -15.333 -17.001 -24l-30 -25c-10.667 -8.66699 -19.5 -12.834 -26.5 -12.501s-14.833 5.16602 -23.5 14.499zM517 106.002l-165.998 190c-8 9.33301 -12 17.833 -12 25.5s4.33301 16.5 13 26.5l165 190
c8 9.33301 15.5 14.333 22.5 15s15.5 -3 25.5 -11l32 -26c10.667 -8.66699 16.167 -16.5 16.5 -23.5s-4.16699 -15.5 -13.5 -25.5l-128 -142l130 -146c9.33301 -10 13.833 -18.5 13.5 -25.5s-5.83301 -14.833 -16.5 -23.5l-33 -27
c-10.667 -8.66699 -19.334 -12.667 -26.001 -12s-14.334 5.66699 -23.001 15z" />
    <glyph glyph-name="logicalnot" unicode="&#xac;" horiz-adv-x="635" 
d="M433 325l-316 -2c-12.667 0 -21.5 2.66699 -26.5 8s-7.5 14.333 -7.5 27v45c0 12.667 2.5 21.667 7.5 27s14.167 8 27.5 8h392c13.333 0 22.5 -2.66699 27.5 -8s7.5 -14.333 7.5 -27v-210c0 -12.667 -2.5 -21.667 -7.5 -27s-14.167 -8 -27.5 -8h-44
c-12.667 0 -21.667 2.5 -27 7.5s-8 13.833 -8 26.5z" />
    <glyph glyph-name="registered" unicode="&#xae;" horiz-adv-x="740" 
d="M524 809l73 -74c12 -12 18 -27 18 -45v-150c0 -18 -6 -33 -18 -45l-72 -73c-12 -12 -27 -18 -45 -18h-219c-18 0 -33.333 6.33301 -46 19l-72 72c-12.667 12.667 -19 28 -19 46v150c0 18 6 33 18 45l74 73c12 12 27 18 45 18h218c18 0 33 -6 45 -18zM541 695l-66 63h-212
l-63 -62v-157l65 -66h214l61 63zM321 554l-0.000976562 -17.999c0 -18 -9 -27.333 -27 -28l-23 -1c-9.33301 -0.666992 -16 1.16602 -20 5.49902s-6 11.166 -6 20.499v163c0 18 8.66699 27 26 27l154 -1c18 0 33.333 -6.33301 46 -19l11 -11
c13.333 -13.333 20 -28.666 20 -45.999v-12c0 -18.667 -4.33301 -31 -13 -37l-14 -10l14 -11c9.33301 -7.33301 14 -20.333 14 -39v-5c0.666992 -9.33301 -1.16602 -16 -5.49902 -20s-11.5 -6 -21.5 -6h-28c-9.33301 0 -16 1.33301 -20 4s-5.66699 7 -5 13l2 18l-16 13h-88z
M317.999 660.001l3 -43h89l17 15v17l-12 9z" />
    <glyph glyph-name="macron" unicode="&#xaf;" horiz-adv-x="1200" 
d="M480 836h239c12.667 0 21.667 -2.66699 27 -8s8 -14.333 8 -27v-47c0 -13.333 -2.66699 -22.5 -8 -27.5s-14.333 -7.5 -27 -7.5h-239c-13.333 0 -22.5 2.5 -27.5 7.5s-7.5 14.167 -7.5 27.5v47c0 12.667 2.5 21.667 7.5 27s14.167 8 27.5 8z" />
    <glyph glyph-name="degree" unicode="&#xb0;" horiz-adv-x="580" 
d="M400 680l60 -62c12 -12 18 -26.667 18 -44l1 -94c0 -17.333 -6 -32 -18 -44l-60 -62c-13.333 -13.333 -28.666 -20 -45.999 -20h-131c-18 0 -33 6 -45 18l-62 64c-12 12 -18 27 -18 45v94c0 18 6.33301 33.333 19 46l60 60c12.667 12.667 28 19 46 19h130
c17.333 0 32.666 -6.66699 45.999 -20zM374 566l-37 38h-96l-36 -37v-78l37 -37h95l36 38z" />
    <glyph glyph-name="plusminus" unicode="&#xb1;" horiz-adv-x="635" 
d="M260 351l-124.002 -1.99805c-13.333 0 -22.666 2.5 -27.999 7.5s-8 13.833 -8 26.5v46c0 12.667 2.5 21.667 7.5 27s13.833 8 26.5 8l126 -2l-2 127c0 13.333 2.5 22.666 7.5 27.999s13.833 8 26.5 8h50c12.667 0 21.667 -2.5 27 -7.5s8 -13.833 8 -26.5l-2 -129l127 2
c12.667 0 21.5 -2.66699 26.5 -8s7.5 -14.333 7.5 -27v-46c0 -12.667 -2.66699 -21.5 -8 -26.5s-14.666 -7.5 -27.999 -7.5l-125 2l2 -120c0 -12.667 -2.66699 -21.5 -8 -26.5s-14.333 -7.5 -27 -7.5h-50c-12.667 0 -21.5 2.66699 -26.5 8s-7.5 14.666 -7.5 27.999z
M500.998 40.002h-366c-12.667 0 -21.667 2.66699 -27 8s-8 14.333 -8 27v44c0 12.667 2.66699 21.667 8 27s14.333 8 27 8h366c12.667 0 21.667 -2.66699 27 -8s8 -14.333 8 -27v-44c0 -12.667 -2.66699 -21.667 -8 -27s-14.333 -8 -27 -8z" />
    <glyph glyph-name="twosuperior" unicode="&#xb2;" horiz-adv-x="473" 
d="M323 518l-1 22c-0.666992 18 7.66602 27 24.999 27h23c18 0 27 -9 27 -27v-71c0 -18 -9 -27 -27 -27h-283c-18 0 -27 8.66699 -27 26l1 48c0 18 6.33301 33.333 19 46l70 72c13.333 13.333 28.333 20 45 20l64 -1l39 39l-25 25h-113l-30 -32
c-12 -12.667 -24 -13.334 -36 -2.00098l-23 22c-12.667 12.667 -13 25.334 -1 38.001l32 32c12.667 12.667 28 19 46 19h147c18 0 33 -6 45 -18l58 -59c12 -12 12 -24 0 -36l-88 -86c-11.333 -11.333 -26.666 -17 -45.999 -17l-60 1l-47 -48v-13h166z" />
    <glyph glyph-name="threesuperior" unicode="&#xb3;" horiz-adv-x="473" 
d="M149 719l-19.999 -22.002c-12.667 -14 -25.334 -14.667 -38.001 -2l-28 28c-12.667 12.667 -12.334 25.334 0.999023 38.001l14 14c12.667 12.667 28.334 19 47.001 19h178c18.667 0 34.334 -6.33301 47.001 -19l50 -49c12 -12 12 -24.333 0 -37l-68 -72l67 -73
c12.667 -13.333 12.334 -26.666 -0.999023 -39.999l-48 -47c-12.667 -12.667 -28.334 -19 -47.001 -19h-179c-18.667 0 -34.334 6.33301 -47.001 19l-15 15c-12 12 -12 24 0 36l29 28c12 12 24 11.667 36 -1l19 -21h131l24 24l-38 39l-101 -2c-17.333 0 -26 9 -26 27v27
c0 18 8.66699 27 26 27l101 -1l37 39l-24 25h-127z" />
    <glyph glyph-name="acute" unicode="&#xb4;" horiz-adv-x="1200" 
d="M522 776l121.999 119.999c9.33301 9.33301 17.333 14 24 14s14.667 -4.66699 24 -14l28 -27c9.33301 -9.33301 14 -17.666 14 -24.999s-4.66699 -15.666 -14 -24.999l-120 -118c-9.33301 -9.33301 -17.833 -14 -25.5 -14s-16.167 4.66699 -25.5 14l-26 26
c-9.33301 9.33301 -14.166 17.666 -14.499 24.999s4.16699 15.333 13.5 24z" />
    <glyph glyph-name="mu" unicode="&#xb5;" horiz-adv-x="938" 
d="M139 -221v827.999c0 12.667 2.5 21.667 7.5 27s14.167 8 27.5 8h47c12.667 0 21.667 -2.66699 27 -8s8 -14.333 8 -27v-399l104 -104h232l89 90l-1 414c0 12.667 2.66699 21.5 8 26.5s14.333 7.5 27 7.5h48c12.667 0 21.667 -2.66699 27 -8s8 -14.333 8 -27v-576
c0 -13.333 -1.83301 -22.333 -5.5 -27s-10.5 -7 -20.5 -7h-2c-17.333 0.666992 -31.333 10.667 -42 30l-32 57l-62 -63c-17.333 -17.333 -37.333 -26 -60 -26h-200c-22.667 0 -42.667 8.66699 -60 26l-62 63l4 -304c0 -13.333 -2.5 -22.666 -7.5 -27.999
s-13.833 -8 -26.5 -8h-48c-13.333 0 -22.5 2.66699 -27.5 8s-7.5 14.333 -7.5 27z" />
    <glyph glyph-name="paragraph" unicode="&#xb6;" horiz-adv-x="673" 
d="M513 -86l-89.001 -89c-9.33301 -9.33301 -17.5 -14.166 -24.5 -14.499s-15.167 4.16699 -24.5 13.5l-32 33c-17.333 17.333 -17.666 33.666 -0.999023 48.999l81 77v320l-209 -2c-22.667 0 -42 8 -58 24l-48 47c-16 16 -24 35.667 -24 59v80c0 23.333 8 43 24 59l47 46
c16 16 35.333 24 58 24l291 1c12.667 0 21.5 -2.66699 26.5 -8s7.5 -14.333 7.5 -27v-632c0 -23.333 -8.33301 -43.333 -25 -60z" />
    <glyph glyph-name="periodcentered" unicode="&#xb7;" horiz-adv-x="317" 
d="M98 299v46c0 12.667 2.66699 21.667 8 27s14.333 8 27 8h50c12.667 0 21.667 -2.66699 27 -8s8 -14.333 8 -27v-46c0 -12.667 -2.66699 -21.667 -8 -27s-14.333 -8 -27 -8h-50c-12.667 0 -21.667 2.66699 -27 8s-8 14.333 -8 27z" />
    <glyph glyph-name="cedilla" unicode="&#xb8;" horiz-adv-x="641" 
d="M339 -31l52.999 -49.9961c9.33301 -9.33301 14.166 -17.5 14.499 -24.5s-4.16699 -15.167 -13.5 -24.5l-87 -87c-9.33301 -9.33301 -17.666 -13.833 -24.999 -13.5s-15.666 5.16602 -24.999 14.499l-18 18c-9.33301 9.33301 -13.833 17.666 -13.5 24.999
s5.5 15.666 15.5 24.999l41 37l-22 20c-14 13.333 -21 31.666 -21 54.999v30c0 12.667 2.66699 21.5 8 26.5s14.333 7.5 27 7.5h34c13.333 0 22.5 -2 27.5 -6s7.16699 -11.333 6.5 -22z" />
    <glyph glyph-name="onesuperior" unicode="&#xb9;" horiz-adv-x="473" 
d="M392 442l-287 0.000976562c-18 0 -27 9 -27 27v34c0 18 8.66699 27 26 27l113 -1v171h-36l-34 -35c-12.667 -12.667 -25 -13.334 -37 -2.00098l-31 30c-12 12 -12 24 0 36l44 45c12 12 27 18 45 18h125c18 0 27 -8.66699 27 -26l-1 -237l72 1
c18.667 0 28 -8.66699 28 -26v-35c0 -18 -9 -27 -27 -27z" />
    <glyph glyph-name="ordmasculine" unicode="&#xba;" horiz-adv-x="549" 
d="M417 769l44 -44c16.667 -16.667 25 -36.667 25 -60v-98c0 -23.333 -8 -43 -24 -59l-47 -46c-16 -16 -35.667 -24 -59 -24h-166c-23.333 0 -43.333 8.33301 -60 25l-43 43c-16.667 16.667 -25 36.667 -25 60v98c0 23.333 8 43 24 59l46 47c16 16 35.667 24 59 24h166
c23.333 0 43.333 -8.33301 60 -25zM386 666l-39 37h-146l-38 -37v-98l38 -38h146l38 37zM428 289h-309c-12.667 0 -21.667 2.5 -27 7.5s-8 14.167 -8 27.5v23c0 12.667 2.66699 21.667 8 27s14.333 8 27 8h309c13.333 0 22.5 -2.66699 27.5 -8s7.5 -14.333 7.5 -27v-23
c0 -13.333 -2.5 -22.5 -7.5 -27.5s-14.167 -7.5 -27.5 -7.5z" />
    <glyph glyph-name="guillemotright" unicode="&#xbb;" horiz-adv-x="711" 
d="M475 538l165.997 -189.002c8 -9.33301 12 -17.666 12 -24.999s-4 -15.666 -12 -24.999l-167 -193c-14 -17.333 -30 -18.333 -48 -3l-29 24c-10.667 9.33301 -16.167 17.5 -16.5 24.5s3.83398 15.5 12.501 25.5l129 144l-131 145c-9.33301 10 -13.833 18.5 -13.5 25.5
s5.83301 14.833 16.5 23.5l32 26c10.667 8.66699 19.334 12.667 26.001 12s14.334 -5.66699 23.001 -15zM192.997 537.998l164.999 -189c8 -9.33301 12 -17.833 12 -25.5s-4.33301 -16.5 -13 -26.5l-163 -189c-8.66699 -10 -16.5 -15.5 -23.5 -16.5s-15.5 2.5 -25.5 10.5
l-32 26c-10.667 8.66699 -16.167 16.5 -16.5 23.5s4.16699 15.5 13.5 25.5l129 144l-131 145c-9.33301 10 -13.833 18.5 -13.5 25.5s5.5 14.5 15.5 22.5l35 28c10 8 18.333 11.667 25 11s14.334 -5.66699 23.001 -15z" />
    <glyph glyph-name="onequarter" unicode="&#xbc;" horiz-adv-x="928" 
d="M359 330l-252.998 -0.000976562c-18 0 -27 9 -27 27v32c0 18 8.66699 27 26 27l96 -1v136h-30l-24 -25c-12.667 -13.333 -25.334 -13.666 -38.001 -0.999023l-27 27c-12.667 12.667 -13 25 -1 37l31 32c13.333 13.333 28.666 20 45.999 20h116c18 0 27 -8.66699 27 -26
l-1 -200l58 1c18.667 0 28 -8.66699 28 -26v-33c0 -18 -9 -27 -27 -27zM143.002 42.999l619 620c12 12 24 12 36 0l31 -30c12 -12 12 -24 0 -36l-620 -619c-12 -12 -24 -12 -36 0l-30 29c-12 12 -12 24 0 36zM796.002 58.999l-0.000976562 -32.002
c0 -18 -8.66699 -27 -26 -27l-37 -1c-10 0 -17.167 2 -21.5 6s-6.16602 10.333 -5.49902 19l2 35l-163 -2c-17.333 0 -26 8.66699 -26 26l1 43c0 18 6 33.333 18 46l109 118c12 12.667 27 19 45 19h78c18 0 27 -8.66699 27 -26l-1 -146l31 1c18.667 0.666992 28 -8 28 -26
v-29c0 -9.33301 -2.16699 -16.166 -6.5 -20.499s-10.833 -6.16602 -19.5 -5.49902zM710.001 233.997l-11 -3l-78 -86v-8h87z" />
    <glyph glyph-name="onehalf" unicode="&#xbd;" horiz-adv-x="928" 
d="M360 330l-250.999 -0.000976562c-18 0 -27 9 -27 27v32c0 18 8.66699 27 26 27l97 -1v136h-31l-24 -25c-13.333 -13.333 -25.666 -14 -36.999 -2l-28 29c-12.667 12.667 -12.334 25.334 0.999023 38.001l29 30c13.333 13.333 28.666 20 45.999 20h116
c18 0 27 -8.66699 27 -26l-1 -200l56 1c18.667 0 28 -8.66699 28 -26v-33c0 -18 -9 -27 -27 -27zM129.001 43.999l617.999 618c12.667 12.667 25.334 12.667 38.001 0l28 -28c12.667 -12.667 13 -25 1 -37l-620 -619c-12 -12 -24 -12 -36 0l-30 29
c-12 12 -11.667 24.333 1 37zM777 72.999l-0.000976562 10.999c0 18.667 9 28 27 28h17c18.667 0 28 -8.66699 28 -26v-60c0 -18 -9 -27 -27 -27h-248c-18 0 -27 8.66699 -27 26l1 38c0 17.333 6 32 18 44l64 65c12 12 26.667 18 44 18l48 -1l29 30l-18 18h-94l-26 -29
c-11.333 -12.667 -23.333 -12.667 -36 0l-20 20c-12.667 12.667 -12.667 25.334 0 38.001l26 26c12.667 12.667 28 19 46 19h125c18 0 33 -6 45 -18l48 -49c12 -12 12 -24 0 -36l-75 -76c-11.333 -11.333 -26.666 -17 -45.999 -17l-46 1l-38 -38v-5h135z" />
    <glyph glyph-name="threequarters" unicode="&#xbe;" horiz-adv-x="928" 
d="M156 570l-14.001 -16.999c-11.333 -14 -23.666 -14.333 -36.999 -1l-26 26c-12.667 12 -12.334 24.667 0.999023 38l7 7c12.667 12.667 28.334 19 47.001 19h157c18 0 33.333 -6.33301 46 -19l38 -38c12.667 -12.667 13 -25.334 1 -38.001l-57 -61l56 -61
c12.667 -14 13 -27 1 -39l-40 -39c-12 -12 -27 -18 -45 -18h-158c-18.667 0 -34.334 6.33301 -47.001 19l-6 6c-13.333 13.333 -13.666 26 -0.999023 38l25 25c12.667 12.667 24 13.667 34 3l16 -18h111l16 16l-30 30l-75 -2c-18.667 -0.666992 -28 8 -28 26v27
c0 17.333 9.33301 26 28 26l75 -1l30 29l-16 17h-109zM129.999 43.001l619 620c12 12 24.333 11.667 37 -1l28 -28c12.667 -12.667 13 -25 1 -37l-620 -619c-12 -12 -24.333 -11.667 -37 1l-27 27c-12.667 12.667 -13 25 -1 37zM788.999 59.001v-32.002
c0 -18 -8.66699 -27 -26 -27l-37 -1c-10 0 -17.167 2 -21.5 6s-6.16602 10.333 -5.49902 19l2 35l-162 -2c-17.333 0 -26 8.66699 -26 26l1 43c0 18 6 33.333 18 46l107 116c13.333 14 28.666 21 45.999 21h78c18 0 27 -8.66699 27 -26l-1 -146l32 1
c18.667 0.666992 28 -8 28 -26v-29c0 -9.33301 -2.16699 -16.166 -6.5 -20.499s-10.833 -6.16602 -19.5 -5.49902zM702.999 233.999l-11 -3l-78 -86v-8h87z" />
    <glyph glyph-name="questiondown" unicode="&#xbf;" horiz-adv-x="734" 
d="M222 20l-99.999 106.003c-9.33301 9.33301 -14 17.666 -14 24.999s4.66699 15.666 14 24.999l239 244c10 10 18.333 15.167 25 15.5s14.667 -4.16699 24 -13.5l26 -27c17.333 -16.667 17.666 -33.334 0.999023 -50.001l-183 -185l57 -58h160l59 60
c10 10 18.333 15.167 25 15.5s14.667 -4.16699 24 -13.5l34 -35c8.66699 -8.66699 13 -16.667 13 -24s-4.33301 -15.333 -13 -24l-63 -62c-16 -16 -35.333 -24 -58 -24l-212 -1c-22 0 -41.333 8.66699 -58 26zM436.001 607.003v-55c0 -13.333 -2.66699 -22.5 -8 -27.5
s-14.333 -7.5 -27 -7.5h-58c-12.667 0 -21.667 2.5 -27 7.5s-8 14.167 -8 27.5v55c0 12.667 2.66699 21.667 8 27s14.333 8 27 8h58c12.667 0 21.667 -2.66699 27 -8s8 -14.333 8 -27z" />
    <glyph glyph-name="Agrave" unicode="&#xc0;" horiz-adv-x="886" 
d="M761 419l-0.000976562 -384.001c0 -12.667 -2.33301 -21.5 -7 -26.5s-13.667 -7.83301 -27 -8.5l-48 -1c-13.333 0 -22.666 2.33301 -27.999 7s-8 13.334 -8 26.001l2 149h-405l1 -149c0 -12.667 -2.66699 -21.5 -8 -26.5s-14.333 -7.5 -27 -7.5h-47
c-12.667 0 -21.667 2.66699 -27 8s-8 14.333 -8 27v385c0 24 8.33301 44.333 25 61l138 141c17.333 17.333 37.333 26 60 26h191c23.333 0 43 -8 59 -24l139 -142c16.667 -16.667 25 -37 25 -61zM645.999 411.999l-126 124h-155l-125 -123v-131h405zM320.999 868.999
l27.999 27c8.66699 9.33301 16.834 13.833 24.501 13.5s16.167 -5.16602 25.5 -14.499l121 -119c9.33301 -8.66699 13.833 -16.667 13.5 -24s-5.16602 -15.666 -14.499 -24.999l-26 -26c-9.33301 -9.33301 -17.833 -14 -25.5 -14s-16.167 4.66699 -25.5 14l-121 118
c-10 9.33301 -14.833 17.666 -14.5 24.999s5.16602 15.666 14.499 24.999z" />
    <glyph glyph-name="Aacute" unicode="&#xc1;" horiz-adv-x="886" 
d="M761 419l-0.000976562 -384.001c0 -12.667 -2.33301 -21.5 -7 -26.5s-13.667 -7.83301 -27 -8.5l-48 -1c-13.333 0 -22.666 2.33301 -27.999 7s-8 13.334 -8 26.001l2 149h-405l1 -149c0 -12.667 -2.66699 -21.5 -8 -26.5s-14.333 -7.5 -27 -7.5h-47
c-12.667 0 -21.667 2.66699 -27 8s-8 14.333 -8 27v385c0 24 8.33301 44.333 25 61l138 141c17.333 17.333 37.333 26 60 26h191c23.333 0 43 -8 59 -24l139 -142c16.667 -16.667 25 -37 25 -61zM645.999 411.999l-126 124h-155l-125 -123v-131h405zM364.999 775.999
l121.999 119.999c8.66699 9.33301 16.5 14 23.5 14s15.167 -4.66699 24.5 -14l28 -27c9.33301 -9.33301 14 -17.666 14 -24.999s-4.66699 -15.666 -14 -24.999l-120 -118c-9.33301 -9.33301 -17.833 -14 -25.5 -14s-16.167 4.66699 -25.5 14l-26 26
c-9.33301 9.33301 -14.166 17.666 -14.499 24.999s4.16699 15.333 13.5 24z" />
    <glyph glyph-name="Acircumflex" unicode="&#xc2;" horiz-adv-x="886" 
d="M761 419l-0.000976562 -384.001c0 -12.667 -2.33301 -21.5 -7 -26.5s-13.667 -7.83301 -27 -8.5l-48 -1c-13.333 0 -22.666 2.33301 -27.999 7s-8 13.334 -8 26.001l2 149h-405l1 -149c0 -12.667 -2.66699 -21.5 -8 -26.5s-14.333 -7.5 -27 -7.5h-47
c-12.667 0 -21.667 2.66699 -27 8s-8 14.333 -8 27v385c0 24 8.33301 44.333 25 61l138 141c17.333 17.333 37.333 26 60 26h191c23.333 0 43 -8 59 -24l139 -142c16.667 -16.667 25 -37 25 -61zM645.999 411.999l-126 124h-155l-125 -123v-131h405zM295.999 772.999
l123.001 112.999c17.333 15.333 34.333 15 51 -1l118 -110c9.33301 -9.33301 14.166 -17.666 14.499 -24.999s-4.16699 -15.666 -13.5 -24.999l-22 -22c-9.33301 -9.33301 -17.5 -14.166 -24.5 -14.499s-15.167 3.83398 -24.5 12.501l-76 74l-76 -74
c-9.33301 -8.66699 -17.5 -12.834 -24.5 -12.501s-15.167 5.16602 -24.5 14.499l-21 21c-17.333 17.333 -17.333 33.666 0 48.999z" />
    <glyph glyph-name="Atilde" unicode="&#xc3;" horiz-adv-x="886" 
d="M761 419l-0.000976562 -384.001c0 -12.667 -2.33301 -21.5 -7 -26.5s-13.667 -7.83301 -27 -8.5l-48 -1c-13.333 0 -22.666 2.33301 -27.999 7s-8 13.334 -8 26.001l2 149h-405l1 -149c0 -12.667 -2.66699 -21.5 -8 -26.5s-14.333 -7.5 -27 -7.5h-47
c-12.667 0 -21.667 2.66699 -27 8s-8 14.333 -8 27v385c0 24 8.33301 44.333 25 61l138 141c17.333 17.333 37.333 26 60 26h191c23.333 0 43 -8 59 -24l139 -142c16.667 -16.667 25 -37 25 -61zM645.999 411.999l-126 124h-155l-125 -123v-131h405zM494.999 798.999
l54.999 62.999c14 16.667 30.333 17.334 49 2.00098l20 -17c10 -8.66699 15.167 -16.667 15.5 -24s-3.83398 -16 -12.501 -26l-89 -99c-16 -18 -32.667 -19 -50 -3l-82 77l-55 -61c-8.66699 -10 -16.667 -15.333 -24 -16s-15.666 3 -24.999 11l-21 18
c-10 8.66699 -15.167 16.667 -15.5 24s3.83398 16 12.501 26l89 100c16 18 32.667 19 50 3z" />
    <glyph glyph-name="Adieresis" unicode="&#xc4;" horiz-adv-x="886" 
d="M761 419l-0.000976562 -384.001c0 -12.667 -2.33301 -21.5 -7 -26.5s-13.667 -7.83301 -27 -8.5l-48 -1c-13.333 0 -22.666 2.33301 -27.999 7s-8 13.334 -8 26.001l2 149h-405l1 -149c0 -12.667 -2.66699 -21.5 -8 -26.5s-14.333 -7.5 -27 -7.5h-47
c-12.667 0 -21.667 2.66699 -27 8s-8 14.333 -8 27v385c0 24 8.33301 44.333 25 61l138 141c17.333 17.333 37.333 26 60 26h191c23.333 0 43 -8 59 -24l139 -142c16.667 -16.667 25 -37 25 -61zM645.999 411.999l-126 124h-155l-125 -123v-131h405zM254.999 748.999v55
c0 13.333 2.5 22.5 7.5 27.5s14.167 7.5 27.5 7.5h57c12.667 0 21.667 -2.5 27 -7.5s8 -14.167 8 -27.5v-55c0 -12.667 -2.66699 -21.667 -8 -27s-14.333 -8 -27 -8h-57c-13.333 0 -22.5 2.66699 -27.5 8s-7.5 14.333 -7.5 27zM501.999 748.999v55
c0 13.333 2.66699 22.5 8 27.5s14.333 7.5 27 7.5h58c12.667 0 21.667 -2.5 27 -7.5s8 -14.167 8 -27.5v-55c0 -12.667 -2.66699 -21.667 -8 -27s-14.333 -8 -27 -8h-58c-12.667 0 -21.667 2.66699 -27 8s-8 14.333 -8 27z" />
    <glyph glyph-name="Aring" unicode="&#xc5;" horiz-adv-x="886" 
d="M761 419l-0.000976562 -384.001c0 -12.667 -2.33301 -21.5 -7 -26.5s-13.667 -7.83301 -27 -8.5l-48 -1c-13.333 0 -22.666 2.33301 -27.999 7s-8 13.334 -8 26.001l2 149h-405l1 -149c0 -12.667 -2.66699 -21.5 -8 -26.5s-14.333 -7.5 -27 -7.5h-47
c-12.667 0 -21.667 2.66699 -27 8s-8 14.333 -8 27v385c0 24 8.33301 44.333 25 61l138 141c17.333 17.333 37.333 26 60 26h191c23.333 0 43 -8 59 -24l139 -142c16.667 -16.667 25 -37 25 -61zM645.999 411.999l-126 124h-155l-125 -123v-131h405zM530.999 913.999
l25 -25.001c16.667 -16.667 25 -36.667 25 -60v-25c0 -22 -8 -41.333 -24 -58l-27 -28c-16 -16 -35.667 -24 -59 -24h-58c-24 0 -43.667 8 -59 24l-27 28c-16 16 -24 35.667 -24 59v24c0 22.667 8 42.334 24 59.001l27 28c16 16 35.667 24 59 24h58
c22.667 0 42.667 -8.66699 60 -26zM493.999 834.998l-26 23h-52l-24 -24v-34l24 -25h53l23 25z" />
    <glyph glyph-name="AE" unicode="&#xc6;" horiz-adv-x="1392" 
d="M206 -2l-47.001 0.000976562c-12.667 0 -21.667 2.66699 -27 8s-8 14.333 -8 27v375c0 23.333 8.33301 43.666 25 60.999l145 149c16.667 17.333 36.667 26 60 26h193c22.667 0 42.334 -8.66699 59.001 -26l70 -74l-2 62c-0.666992 12.667 1.5 21.5 6.5 26.5
s14.167 7.5 27.5 7.5h474c23.333 0 43.333 -8.33301 60 -25l39 -39c9.33301 -9.33301 14.166 -17.666 14.499 -24.999s-4.16699 -15.333 -13.5 -24l-37 -36c-8.66699 -9.33301 -16.667 -13.833 -24 -13.5s-15.333 5.16602 -24 14.499l-40 43h-378v-158l370 1
c12.667 0 21.5 -2.66699 26.5 -8s7.5 -14.333 7.5 -27v-45c0 -12.667 -2.5 -21.667 -7.5 -27s-13.833 -8 -26.5 -8l-370 2v-160h384l40 42c8.66699 8.66699 16.334 13 23.001 13s14.667 -4.33301 24 -13l36 -35c9.33301 -9.33301 14 -17.333 14 -24
s-4.66699 -14.667 -14 -24l-40 -39c-16.667 -16.667 -37 -25 -61 -25h-487c-12.667 0 -21.667 2.5 -27 7.5s-8 13.833 -8 26.5l2 148h-425l1 -150c0 -12.667 -2.66699 -21.5 -8 -26.5s-14.333 -7.5 -27 -7.5zM665.999 403.001l-133 134h-162l-131 -131v-123h425z" />
    <glyph glyph-name="Ccedilla" unicode="&#xc7;" horiz-adv-x="911" 
d="M517 -31l53 -49.9971c9.33301 -9.33301 14.166 -17.5 14.499 -24.5s-4.16699 -15.167 -13.5 -24.5l-87 -87c-9.33301 -9.33301 -17.666 -13.833 -24.999 -13.5s-15.666 5.16602 -24.999 14.499l-18 18c-9.33301 9.33301 -13.833 17.666 -13.5 24.999
s5.5 15.666 15.5 24.999l41 37l-22 20c-14 13.333 -21 31.666 -21 54.999v30v2h-100c-23.333 0 -43.333 8.33301 -60 25l-109 109c-16.667 16.667 -25 36.667 -25 60v259c0 23.333 8 43 24 59l111 112c16 16 35.667 24 59 24h354c23.333 0 43 -8 59 -24l60 -59
c8.66699 -8.66699 13 -16.667 13 -24s-4.33301 -15.333 -13 -24l-40 -39c-8.66699 -9.33301 -16.667 -13.833 -24 -13.5s-15.333 5.16602 -24 14.499l-57 61h-309l-92 -92v-247l93 -93h310l57 60c8.66699 9.33301 16.5 13.833 23.5 13.5s15.167 -5.16602 24.5 -14.499
l36 -36c9.33301 -9.33301 14.166 -17.666 14.499 -24.999s-4.16699 -15.333 -13.5 -24l-59 -58c-16 -16 -35.667 -24 -59 -24h-152z" />
    <glyph glyph-name="Egrave" unicode="&#xc8;" horiz-adv-x="829" 
d="M139 35v570c0 12.667 2.5 21.667 7.5 27s14.167 8 27.5 8h445c23.333 0 43.333 -8.33301 60 -25l39 -39c9.33301 -9.33301 14.166 -17.666 14.499 -24.999s-4.16699 -15.333 -13.5 -24l-37 -36c-8.66699 -9.33301 -16.667 -13.833 -24 -13.5s-15.333 5.16602 -24 14.499
l-40 43h-340v-158l332 1c12.667 0 21.5 -2.66699 26.5 -8s7.5 -14.333 7.5 -27v-45c0 -12.667 -2.5 -21.667 -7.5 -27s-13.833 -8 -26.5 -8l-332 2v-160h346l40 42c8.66699 8.66699 16.334 13 23.001 13s14.667 -4.33301 24 -13l36 -35c8.66699 -9.33301 13 -17.333 13 -24
s-4.33301 -14.667 -13 -24l-40 -39c-16.667 -16.667 -37 -25 -61 -25h-448c-13.333 0 -22.5 2.66699 -27.5 8s-7.5 14.333 -7.5 27zM292 869l27.999 27c8.66699 9.33301 16.834 13.833 24.501 13.5s16.167 -5.16602 25.5 -14.499l121 -119
c9.33301 -8.66699 13.833 -16.667 13.5 -24s-5.16602 -15.666 -14.499 -24.999l-26 -26c-9.33301 -9.33301 -17.833 -14 -25.5 -14s-16.167 4.66699 -25.5 14l-121 118c-10 9.33301 -14.833 17.666 -14.5 24.999s5.16602 15.666 14.499 24.999z" />
    <glyph glyph-name="Eacute" unicode="&#xc9;" horiz-adv-x="829" 
d="M139 35v570c0 12.667 2.5 21.667 7.5 27s14.167 8 27.5 8h445c23.333 0 43.333 -8.33301 60 -25l39 -39c9.33301 -9.33301 14.166 -17.666 14.499 -24.999s-4.16699 -15.333 -13.5 -24l-37 -36c-8.66699 -9.33301 -16.667 -13.833 -24 -13.5s-15.333 5.16602 -24 14.499
l-40 43h-340v-158l332 1c12.667 0 21.5 -2.66699 26.5 -8s7.5 -14.333 7.5 -27v-45c0 -12.667 -2.5 -21.667 -7.5 -27s-13.833 -8 -26.5 -8l-332 2v-160h346l40 42c8.66699 8.66699 16.334 13 23.001 13s14.667 -4.33301 24 -13l36 -35c8.66699 -9.33301 13 -17.333 13 -24
s-4.33301 -14.667 -13 -24l-40 -39c-16.667 -16.667 -37 -25 -61 -25h-448c-13.333 0 -22.5 2.66699 -27.5 8s-7.5 14.333 -7.5 27zM336 776l121.999 119.999c9.33301 9.33301 17.333 14 24 14s14.667 -4.66699 24 -14l28 -27c9.33301 -9.33301 14 -17.666 14 -24.999
s-4.66699 -15.666 -14 -24.999l-120 -118c-9.33301 -9.33301 -17.833 -14 -25.5 -14s-16.167 4.66699 -25.5 14l-26 26c-9.33301 9.33301 -14.166 17.666 -14.499 24.999s4.16699 15.333 13.5 24z" />
    <glyph glyph-name="Ecircumflex" unicode="&#xca;" horiz-adv-x="829" 
d="M139 35v570c0 12.667 2.5 21.667 7.5 27s14.167 8 27.5 8h445c23.333 0 43.333 -8.33301 60 -25l39 -39c9.33301 -9.33301 14.166 -17.666 14.499 -24.999s-4.16699 -15.333 -13.5 -24l-37 -36c-8.66699 -9.33301 -16.667 -13.833 -24 -13.5s-15.333 5.16602 -24 14.499
l-40 43h-340v-158l332 1c12.667 0 21.5 -2.66699 26.5 -8s7.5 -14.333 7.5 -27v-45c0 -12.667 -2.5 -21.667 -7.5 -27s-13.833 -8 -26.5 -8l-332 2v-160h346l40 42c8.66699 8.66699 16.334 13 23.001 13s14.667 -4.33301 24 -13l36 -35c8.66699 -9.33301 13 -17.333 13 -24
s-4.33301 -14.667 -13 -24l-40 -39c-16.667 -16.667 -37 -25 -61 -25h-448c-13.333 0 -22.5 2.66699 -27.5 8s-7.5 14.333 -7.5 27zM267 773l123.001 112.999c17.333 15.333 34.333 15 51 -1l118 -110c9.33301 -9.33301 14.166 -17.666 14.499 -24.999
s-4.16699 -15.666 -13.5 -24.999l-22 -22c-9.33301 -9.33301 -17.5 -14.166 -24.5 -14.499s-15.167 3.83398 -24.5 12.501l-76 74l-76 -74c-9.33301 -8.66699 -17.5 -12.834 -24.5 -12.501s-15.167 5.16602 -24.5 14.499l-21 21c-17.333 17.333 -17.333 33.666 0 48.999z
" />
    <glyph glyph-name="Edieresis" unicode="&#xcb;" horiz-adv-x="829" 
d="M139 35v570c0 12.667 2.5 21.667 7.5 27s14.167 8 27.5 8h445c23.333 0 43.333 -8.33301 60 -25l39 -39c9.33301 -9.33301 14.166 -17.666 14.499 -24.999s-4.16699 -15.333 -13.5 -24l-37 -36c-8.66699 -9.33301 -16.667 -13.833 -24 -13.5s-15.333 5.16602 -24 14.499
l-40 43h-340v-158l332 1c12.667 0 21.5 -2.66699 26.5 -8s7.5 -14.333 7.5 -27v-45c0 -12.667 -2.5 -21.667 -7.5 -27s-13.833 -8 -26.5 -8l-332 2v-160h346l40 42c8.66699 8.66699 16.334 13 23.001 13s14.667 -4.33301 24 -13l36 -35c8.66699 -9.33301 13 -17.333 13 -24
s-4.33301 -14.667 -13 -24l-40 -39c-16.667 -16.667 -37 -25 -61 -25h-448c-13.333 0 -22.5 2.66699 -27.5 8s-7.5 14.333 -7.5 27zM226 749v55c0 13.333 2.66699 22.5 8 27.5s14.333 7.5 27 7.5h57c13.333 0 22.5 -2.5 27.5 -7.5s7.5 -14.167 7.5 -27.5v-55
c0 -12.667 -2.5 -21.667 -7.5 -27s-14.167 -8 -27.5 -8h-57c-12.667 0 -21.667 2.66699 -27 8s-8 14.333 -8 27zM473 749v55c0 13.333 2.5 22.5 7.5 27.5s14.167 7.5 27.5 7.5h58c13.333 0 22.5 -2.5 27.5 -7.5s7.5 -14.167 7.5 -27.5v-55c0 -12.667 -2.5 -21.667 -7.5 -27
s-14.167 -8 -27.5 -8h-58c-13.333 0 -22.5 2.66699 -27.5 8s-7.5 14.333 -7.5 27z" />
    <glyph glyph-name="Igrave" unicode="&#xcc;" horiz-adv-x="395" 
d="M139 33v574c0 12.667 2.5 21.667 7.5 27s14.167 8 27.5 8h47c12.667 0 21.667 -2.66699 27 -8s8 -14.333 8 -27v-574c0 -12.667 -2.66699 -21.667 -8 -27s-14.333 -8 -27 -8h-47c-13.333 0 -22.5 2.66699 -27.5 8s-7.5 14.333 -7.5 27zM76 869l27.999 27
c8.66699 9.33301 16.834 13.833 24.501 13.5s16.167 -5.16602 25.5 -14.499l121 -119c9.33301 -8.66699 13.833 -16.667 13.5 -24s-5.16602 -15.666 -14.499 -24.999l-26 -26c-9.33301 -9.33301 -17.833 -14 -25.5 -14s-16.167 4.66699 -25.5 14l-121 118
c-10 9.33301 -14.833 17.666 -14.5 24.999s5.16602 15.666 14.499 24.999z" />
    <glyph glyph-name="Iacute" unicode="&#xcd;" horiz-adv-x="395" 
d="M139 33v574c0 12.667 2.5 21.667 7.5 27s14.167 8 27.5 8h47c12.667 0 21.667 -2.66699 27 -8s8 -14.333 8 -27v-574c0 -12.667 -2.66699 -21.667 -8 -27s-14.333 -8 -27 -8h-47c-13.333 0 -22.5 2.66699 -27.5 8s-7.5 14.333 -7.5 27zM120 776l121.999 119.999
c9.33301 9.33301 17.333 14 24 14s14.667 -4.66699 24 -14l28 -27c9.33301 -9.33301 14 -17.666 14 -24.999s-4.66699 -15.666 -14 -24.999l-120 -118c-9.33301 -9.33301 -17.833 -14 -25.5 -14s-16.167 4.66699 -25.5 14l-26 26
c-9.33301 9.33301 -14.166 17.666 -14.499 24.999s4.16699 15.333 13.5 24z" />
    <glyph glyph-name="Icircumflex" unicode="&#xce;" horiz-adv-x="395" 
d="M139 33v574c0 12.667 2.5 21.667 7.5 27s14.167 8 27.5 8h47c12.667 0 21.667 -2.66699 27 -8s8 -14.333 8 -27v-574c0 -12.667 -2.66699 -21.667 -8 -27s-14.333 -8 -27 -8h-47c-13.333 0 -22.5 2.66699 -27.5 8s-7.5 14.333 -7.5 27zM51 773l123.001 112.999
c17.333 15.333 34.333 15 51 -1l118 -110c9.33301 -9.33301 14.166 -17.666 14.499 -24.999s-4.16699 -15.666 -13.5 -24.999l-22 -22c-9.33301 -9.33301 -17.5 -14.166 -24.5 -14.499s-15.167 3.83398 -24.5 12.501l-76 74l-76 -74
c-9.33301 -8.66699 -17.5 -12.834 -24.5 -12.501s-15.167 5.16602 -24.5 14.499l-21 21c-17.333 17.333 -17.333 33.666 0 48.999z" />
    <glyph glyph-name="Idieresis" unicode="&#xcf;" horiz-adv-x="395" 
d="M139 33v574c0 12.667 2.5 21.667 7.5 27s14.167 8 27.5 8h47c12.667 0 21.667 -2.66699 27 -8s8 -14.333 8 -27v-574c0 -12.667 -2.66699 -21.667 -8 -27s-14.333 -8 -27 -8h-47c-13.333 0 -22.5 2.66699 -27.5 8s-7.5 14.333 -7.5 27zM10 749v55
c0 13.333 2.66699 22.5 8 27.5s14.333 7.5 27 7.5h57c13.333 0 22.5 -2.5 27.5 -7.5s7.5 -14.167 7.5 -27.5v-55c0 -12.667 -2.5 -21.667 -7.5 -27s-14.167 -8 -27.5 -8h-57c-12.667 0 -21.667 2.66699 -27 8s-8 14.333 -8 27zM257 749v55c0 13.333 2.5 22.5 7.5 27.5
s14.167 7.5 27.5 7.5h58c13.333 0 22.5 -2.5 27.5 -7.5s7.5 -14.167 7.5 -27.5v-55c0 -12.667 -2.5 -21.667 -7.5 -27s-14.167 -8 -27.5 -8h-58c-13.333 0 -22.5 2.66699 -27.5 8s-7.5 14.333 -7.5 27z" />
    <glyph glyph-name="Eth" unicode="&#xd0;" horiz-adv-x="970" 
d="M655 0h-483c-13.333 0 -22.5 2.66699 -27.5 8s-7.5 14.333 -7.5 27v227h-40c-12.667 0 -21.667 2.66699 -27 8s-8 14.333 -8 27v49c0 13.333 2.66699 22.5 8 27.5s14.333 7.5 27 7.5h40v224c0 12.667 2.5 21.667 7.5 27s14.167 8 27.5 8h483c23.333 0 43 -8 59 -24
l109 -110c16 -16 24 -35.667 24 -59v-255c0 -23.333 -8.33301 -43.333 -25 -60l-107 -107c-16.667 -16.667 -36.667 -25 -60 -25zM372 262h-114v-149h373l87 87v239l-88 88h-372v-146h114c13.333 0 22.5 -2.5 27.5 -7.5s7.5 -14.167 7.5 -27.5v-49
c0 -12.667 -2.5 -21.667 -7.5 -27s-14.167 -8 -27.5 -8z" />
    <glyph glyph-name="Ntilde" unicode="&#xd1;" horiz-adv-x="965" 
d="M714 154l-1 454c0 12.667 2.66699 21.5 8 26.5s14.333 7.5 27 7.5h43c12.667 0 21.667 -2.66699 27 -8s8 -14.333 8 -27v-543c0 -24 -8.33301 -43 -25 -57l-37 -32c-18 -15.333 -35 -14.333 -51 3l-461 493v-438c0 -12.667 -2.66699 -21.667 -8 -27s-14.333 -8 -27 -8
h-43c-13.333 0 -22.5 2.66699 -27.5 8s-7.5 14.333 -7.5 27v574c0 12.667 2.5 21.667 7.5 27s13.833 8 26.5 8l55 -1c22 0 41.333 -8.66699 58 -26zM535 799l54.999 62.999c14 16.667 30.333 17.334 49 2.00098l20 -17c10 -8.66699 15.167 -16.667 15.5 -24
s-3.83398 -16 -12.501 -26l-89 -99c-16 -18 -32.667 -19 -50 -3l-82 77l-55 -61c-8.66699 -10 -16.667 -15.333 -24 -16s-15.666 3 -24.999 11l-21 18c-10 8.66699 -15.167 16.667 -15.5 24s3.83398 16 12.501 26l89 100c16 18 32.667 19 50 3z" />
    <glyph glyph-name="Ograve" unicode="&#xd2;" horiz-adv-x="994" 
d="M736 620l111 -111c16.667 -16.667 25 -36.667 25 -60v-259c0 -23.333 -8 -43 -24 -59l-113 -112c-16 -16 -35.667 -24 -59 -24h-358c-23.333 0 -43 8 -59 24l-113 112c-16 16 -24 35.667 -24 59v259c0 23.333 8.33301 43.333 25 60l111 111
c16.667 16.667 36.667 25 60 25h358c23.333 0 43.333 -8.33301 60 -25zM752 444l-95 93h-322l-92 -93v-247l93 -93h323l92 91zM376 869l27.999 27c8.66699 9.33301 16.834 13.833 24.501 13.5s16.167 -5.16602 25.5 -14.499l121 -119
c9.33301 -8.66699 13.833 -16.667 13.5 -24s-5.16602 -15.666 -14.499 -24.999l-26 -26c-9.33301 -9.33301 -17.833 -14 -25.5 -14s-16.167 4.66699 -25.5 14l-121 118c-10 9.33301 -14.833 17.666 -14.5 24.999s5.16602 15.666 14.499 24.999z" />
    <glyph glyph-name="Oacute" unicode="&#xd3;" horiz-adv-x="994" 
d="M736 620l111 -111c16.667 -16.667 25 -36.667 25 -60v-259c0 -23.333 -8 -43 -24 -59l-113 -112c-16 -16 -35.667 -24 -59 -24h-358c-23.333 0 -43 8 -59 24l-113 112c-16 16 -24 35.667 -24 59v259c0 23.333 8.33301 43.333 25 60l111 111
c16.667 16.667 36.667 25 60 25h358c23.333 0 43.333 -8.33301 60 -25zM752 444l-95 93h-322l-92 -93v-247l93 -93h323l92 91zM420 776l121.999 119.999c9.33301 9.33301 17.333 14 24 14s14.667 -4.66699 24 -14l28 -27c9.33301 -9.33301 14 -17.666 14 -24.999
s-4.66699 -15.666 -14 -24.999l-120 -118c-9.33301 -9.33301 -17.833 -14 -25.5 -14s-16.167 4.66699 -25.5 14l-26 26c-9.33301 9.33301 -14.166 17.666 -14.499 24.999s4.16699 15.333 13.5 24z" />
    <glyph glyph-name="Ocircumflex" unicode="&#xd4;" horiz-adv-x="994" 
d="M736 620l111 -111c16.667 -16.667 25 -36.667 25 -60v-259c0 -23.333 -8 -43 -24 -59l-113 -112c-16 -16 -35.667 -24 -59 -24h-358c-23.333 0 -43 8 -59 24l-113 112c-16 16 -24 35.667 -24 59v259c0 23.333 8.33301 43.333 25 60l111 111
c16.667 16.667 36.667 25 60 25h358c23.333 0 43.333 -8.33301 60 -25zM752 444l-95 93h-322l-92 -93v-247l93 -93h323l92 91zM351 773l123.001 112.999c17.333 15.333 34.333 15 51 -1l118 -110c9.33301 -9.33301 14.166 -17.666 14.499 -24.999
s-4.16699 -15.666 -13.5 -24.999l-22 -22c-9.33301 -9.33301 -17.5 -14.166 -24.5 -14.499s-15.167 3.83398 -24.5 12.501l-76 74l-76 -74c-9.33301 -8.66699 -17.5 -12.834 -24.5 -12.501s-15.167 5.16602 -24.5 14.499l-21 21c-17.333 17.333 -17.333 33.666 0 48.999z
" />
    <glyph glyph-name="Otilde" unicode="&#xd5;" horiz-adv-x="994" 
d="M736 620l111 -111c16.667 -16.667 25 -36.667 25 -60v-259c0 -23.333 -8 -43 -24 -59l-113 -112c-16 -16 -35.667 -24 -59 -24h-358c-23.333 0 -43 8 -59 24l-113 112c-16 16 -24 35.667 -24 59v259c0 23.333 8.33301 43.333 25 60l111 111
c16.667 16.667 36.667 25 60 25h358c23.333 0 43.333 -8.33301 60 -25zM752 444l-95 93h-322l-92 -93v-247l93 -93h323l92 91zM550 799l54.999 62.999c14 16.667 30.333 17.334 49 2.00098l20 -17c10 -8.66699 15.167 -16.667 15.5 -24s-3.83398 -16 -12.501 -26l-89 -99
c-16 -18 -32.667 -19 -50 -3l-82 77l-55 -61c-8.66699 -10 -16.667 -15.333 -24 -16s-15.666 3 -24.999 11l-21 18c-10 8.66699 -15.167 16.667 -15.5 24s3.83398 16 12.501 26l89 100c16 18 32.667 19 50 3z" />
    <glyph glyph-name="Odieresis" unicode="&#xd6;" horiz-adv-x="994" 
d="M736 620l111 -111c16.667 -16.667 25 -36.667 25 -60v-259c0 -23.333 -8 -43 -24 -59l-113 -112c-16 -16 -35.667 -24 -59 -24h-358c-23.333 0 -43 8 -59 24l-113 112c-16 16 -24 35.667 -24 59v259c0 23.333 8.33301 43.333 25 60l111 111
c16.667 16.667 36.667 25 60 25h358c23.333 0 43.333 -8.33301 60 -25zM752 444l-95 93h-322l-92 -93v-247l93 -93h323l92 91zM310 749v55c0 13.333 2.66699 22.5 8 27.5s14.333 7.5 27 7.5h57c13.333 0 22.5 -2.5 27.5 -7.5s7.5 -14.167 7.5 -27.5v-55
c0 -12.667 -2.5 -21.667 -7.5 -27s-14.167 -8 -27.5 -8h-57c-12.667 0 -21.667 2.66699 -27 8s-8 14.333 -8 27zM557 749v55c0 13.333 2.5 22.5 7.5 27.5s14.167 7.5 27.5 7.5h58c13.333 0 22.5 -2.5 27.5 -7.5s7.5 -14.167 7.5 -27.5v-55c0 -12.667 -2.5 -21.667 -7.5 -27
s-14.167 -8 -27.5 -8h-58c-13.333 0 -22.5 2.66699 -27.5 8s-7.5 14.333 -7.5 27z" />
    <glyph glyph-name="multiply" unicode="&#xd7;" horiz-adv-x="635" 
d="M317 242l-134.999 -138.001c-16.667 -16.667 -32.667 -16.667 -48 0l-34 35c-9.33301 8.66699 -14 16.667 -14 24s4.66699 15.333 14 24l136 133l-137 134c-8.66699 9.33301 -13 17.333 -13 24s4.33301 14.667 13 24l39 38c8.66699 9.33301 16.667 13.833 24 13.5
s15.666 -5.5 24.999 -15.5l132 -136l132 135c9.33301 9.33301 17.666 14.166 24.999 14.499s15.666 -4.16699 24.999 -13.5l33 -33c9.33301 -9.33301 14.166 -17.666 14.499 -24.999s-4.16699 -15.333 -13.5 -24l-135 -133l135 -133
c9.33301 -8.66699 13.833 -16.667 13.5 -24s-5.16602 -15.666 -14.499 -24.999l-36 -36c-9.33301 -9.33301 -17.666 -14 -24.999 -14s-15.666 5 -24.999 15z" />
    <glyph glyph-name="Oslash" unicode="&#xd8;" horiz-adv-x="968" 
d="M82 21l82 75l-37 37c-16 16 -24 35.667 -24 59v254c0 23.333 8 43 24 59l115 114c16 16 35.667 24 59 24h365c23.333 0 43 -8 59 -24l2 -2l84 78c9.33301 9.33301 17.833 13.833 25.5 13.5s15.834 -5.16602 24.501 -14.499l25 -26c16 -16.667 15.333 -33 -2 -49l-83 -76
l38 -37c16 -16 24 -35.667 24 -59v-255c0 -22.667 -8.66699 -42.667 -26 -60l-113 -111c-16 -16 -35.667 -24 -59 -24h-364c-24 0 -44.333 8.33301 -61 25l-1 1l-84 -78c-9.33301 -9.33301 -17.833 -13.833 -25.5 -13.5s-15.834 5.16602 -24.501 14.499l-25 26
c-16 16.667 -15.333 33 2 49zM746 449l-23 22l-399 -369h331l90 89zM223 448v-256l21 -22l397 368h-329z" />
    <glyph glyph-name="Ugrave" unicode="&#xd9;" horiz-adv-x="918" 
d="M662 193l-1 415c0 12.667 2.66699 21.5 8 26.5s14.333 7.5 27 7.5h47c12.667 0 21.667 -2.66699 27 -8s8 -14.333 8 -27v-425c0 -23.333 -8.33301 -43.333 -25 -60l-101 -101c-16.667 -16.667 -36.667 -25 -60 -25h-267c-23.333 0 -43 8 -59 24l-103 102
c-16 16 -24 35.667 -24 59v426c0 12.667 2.5 21.667 7.5 27s14.167 8 27.5 8h47c12.667 0 21.667 -2.66699 27 -8s8 -14.333 8 -27v-412l89 -90h230zM337 869l27.999 27c8.66699 9.33301 16.834 13.833 24.501 13.5s16.167 -5.16602 25.5 -14.499l121 -119
c9.33301 -8.66699 13.833 -16.667 13.5 -24s-5.16602 -15.666 -14.499 -24.999l-26 -26c-9.33301 -9.33301 -17.833 -14 -25.5 -14s-16.167 4.66699 -25.5 14l-121 118c-10 9.33301 -14.833 17.666 -14.5 24.999s5.16602 15.666 14.499 24.999z" />
    <glyph glyph-name="Uacute" unicode="&#xda;" horiz-adv-x="918" 
d="M662 193l-1 415c0 12.667 2.66699 21.5 8 26.5s14.333 7.5 27 7.5h47c12.667 0 21.667 -2.66699 27 -8s8 -14.333 8 -27v-425c0 -23.333 -8.33301 -43.333 -25 -60l-101 -101c-16.667 -16.667 -36.667 -25 -60 -25h-267c-23.333 0 -43 8 -59 24l-103 102
c-16 16 -24 35.667 -24 59v426c0 12.667 2.5 21.667 7.5 27s14.167 8 27.5 8h47c12.667 0 21.667 -2.66699 27 -8s8 -14.333 8 -27v-412l89 -90h230zM381 776l121.999 119.999c8.66699 9.33301 16.5 14 23.5 14s15.167 -4.66699 24.5 -14l28 -27
c9.33301 -9.33301 14 -17.666 14 -24.999s-4.66699 -15.666 -14 -24.999l-120 -118c-9.33301 -9.33301 -17.833 -14 -25.5 -14s-16.167 4.66699 -25.5 14l-26 26c-9.33301 9.33301 -14.166 17.666 -14.499 24.999s4.16699 15.333 13.5 24z" />
    <glyph glyph-name="Ucircumflex" unicode="&#xdb;" horiz-adv-x="918" 
d="M662 193l-1 415c0 12.667 2.66699 21.5 8 26.5s14.333 7.5 27 7.5h47c12.667 0 21.667 -2.66699 27 -8s8 -14.333 8 -27v-425c0 -23.333 -8.33301 -43.333 -25 -60l-101 -101c-16.667 -16.667 -36.667 -25 -60 -25h-267c-23.333 0 -43 8 -59 24l-103 102
c-16 16 -24 35.667 -24 59v426c0 12.667 2.5 21.667 7.5 27s14.167 8 27.5 8h47c12.667 0 21.667 -2.66699 27 -8s8 -14.333 8 -27v-412l89 -90h230zM312 773l123.001 112.999c17.333 15.333 34.333 15 51 -1l118 -110c9.33301 -9.33301 14.166 -17.666 14.499 -24.999
s-4.16699 -15.666 -13.5 -24.999l-22 -22c-9.33301 -9.33301 -17.5 -14.166 -24.5 -14.499s-15.167 3.83398 -24.5 12.501l-76 74l-76 -74c-9.33301 -8.66699 -17.5 -12.834 -24.5 -12.501s-15.167 5.16602 -24.5 14.499l-21 21c-17.333 17.333 -17.333 33.666 0 48.999z
" />
    <glyph glyph-name="Udieresis" unicode="&#xdc;" horiz-adv-x="918" 
d="M662 193l-1 415c0 12.667 2.66699 21.5 8 26.5s14.333 7.5 27 7.5h47c12.667 0 21.667 -2.66699 27 -8s8 -14.333 8 -27v-425c0 -23.333 -8.33301 -43.333 -25 -60l-101 -101c-16.667 -16.667 -36.667 -25 -60 -25h-267c-23.333 0 -43 8 -59 24l-103 102
c-16 16 -24 35.667 -24 59v426c0 12.667 2.5 21.667 7.5 27s14.167 8 27.5 8h47c12.667 0 21.667 -2.66699 27 -8s8 -14.333 8 -27v-412l89 -90h230zM271 749v55c0 13.333 2.5 22.5 7.5 27.5s14.167 7.5 27.5 7.5h57c12.667 0 21.667 -2.5 27 -7.5s8 -14.167 8 -27.5v-55
c0 -12.667 -2.66699 -21.667 -8 -27s-14.333 -8 -27 -8h-57c-13.333 0 -22.5 2.66699 -27.5 8s-7.5 14.333 -7.5 27zM518 749v55c0 13.333 2.66699 22.5 8 27.5s14.333 7.5 27 7.5h58c12.667 0 21.667 -2.5 27 -7.5s8 -14.167 8 -27.5v-55
c0 -12.667 -2.66699 -21.667 -8 -27s-14.333 -8 -27 -8h-58c-12.667 0 -21.667 2.66699 -27 8s-8 14.333 -8 27z" />
    <glyph glyph-name="Yacute" unicode="&#xdd;" horiz-adv-x="807" 
d="M613 521l-2 85c-0.666992 13.333 1.5 22.666 6.5 27.999s14.167 8 27.5 8h51c13.333 0 22.5 -2.66699 27.5 -8s7.5 -14.333 7.5 -27v-95c0 -22.667 -8.66699 -42.667 -26 -60l-243 -238l1 -182c0 -12.667 -2.66699 -21.5 -8 -26.5s-14.333 -7.5 -27 -7.5h-50
c-12.667 0 -21.667 2.5 -27 7.5s-8 13.833 -8 26.5l2 181l-244 239c-17.333 17.333 -26 37.333 -26 60v95c0 12.667 2.5 21.667 7.5 27s14.167 8 27.5 8h52c12.667 0 21.5 -2.66699 26.5 -8s7.5 -14.666 7.5 -27.999l-1 -85l210 -210zM326 776l121.999 119.999
c9.33301 9.33301 17.333 14 24 14s14.667 -4.66699 24 -14l28 -27c9.33301 -9.33301 14 -17.666 14 -24.999s-4.66699 -15.666 -14 -24.999l-120 -118c-9.33301 -9.33301 -17.833 -14 -25.5 -14s-16.167 4.66699 -25.5 14l-26 26
c-9.33301 9.33301 -14.166 17.666 -14.499 24.999s4.16699 15.333 13.5 24z" />
    <glyph glyph-name="Thorn" unicode="&#xde;" horiz-adv-x="845" 
d="M255 101l-0.000976562 -66.001c0 -12.667 -2.33301 -21.5 -7 -26.5s-13.667 -7.83301 -27 -8.5l-46 -1c-13.333 0 -22.666 2.5 -27.999 7.5s-8 13.833 -8 26.5v574c0 12.667 2.5 21.667 7.5 27s14.167 8 27.5 8h48c12.667 0 21.5 -2.66699 26.5 -8
s7.5 -14.666 7.5 -27.999l-1 -62h341c23.333 0 43.333 -8.33301 60 -25l78 -78c16.667 -16.667 25 -36.667 25 -60v-118c0 -23.333 -8 -43 -24 -59l-81 -80c-16 -16 -35.333 -24 -58 -24zM254.999 437.999v-231h322l62 63v104l-62 64h-322z" />
    <glyph glyph-name="germandbls" unicode="&#xdf;" horiz-adv-x="1501" 
d="M146 21l-45.001 44.002c-16.667 16.667 -16.667 32.667 0 48l35 34c9.33301 9.33301 17.833 14.166 25.5 14.499s15.834 -4.16699 24.501 -13.5l44 -45h276l20 27l-416 337c-10 8 -15.333 15.5 -16 22.5s3.33301 16.167 12 27.5l74 98c14.667 19.333 33.667 29 57 29h310
c23.333 0 43 -8 59 -24l43 -44c8.66699 -9.33301 13 -17.333 13 -24s-4.33301 -14.667 -13 -24l-37 -36c-16 -16 -32 -15.333 -48 2l-40 43h-254l-22 -28l418 -335c10 -8 15.333 -15.333 16 -22s-3 -15.334 -11 -26.001l-80 -103c-14 -18 -32.667 -27 -56 -27h-328
c-24 0 -44.333 8.33301 -61 25zM882.999 21.002l-45.001 44.002c-16.667 16.667 -16.667 32.667 0 48l35 34c9.33301 9.33301 17.833 14.166 25.5 14.499s15.834 -4.16699 24.501 -13.5l44 -45h276l20 27l-416 337c-10 8 -15.333 15.5 -16 22.5s3.33301 16.167 12 27.5
l74 98c14.667 19.333 33.667 29 57 29h310c23.333 0 43.333 -8.33301 60 -25l42 -42c9.33301 -9.33301 14.166 -17.5 14.499 -24.5s-4.16699 -15.167 -13.5 -24.5l-36 -35c-17.333 -17.333 -33.666 -17.333 -48.999 0l-40 44h-255l-22 -28l418 -335
c10 -8 15.333 -15.333 16 -22s-3 -15.334 -11 -26.001l-80 -103c-14 -18 -32.667 -27 -56 -27h-328c-24 0 -44.333 8.33301 -61 25z" />
    <glyph glyph-name="agrave" unicode="&#xe0;" horiz-adv-x="793" 
d="M675 279l-0.00195312 -244.001c0 -12.667 -2.33301 -21.5 -7 -26.5s-13.667 -7.83301 -27 -8.5l-48 -1c-13.333 0 -22.666 2.5 -27.999 7.5s-7.66602 14.167 -6.99902 27.5l2 71h-330l1 -71c0 -13.333 -2.5 -22.666 -7.5 -27.999s-13.833 -8 -26.5 -8h-48
c-12.667 0 -21.667 2.5 -27 7.5s-8 13.833 -8 26.5l1 247c0 22.667 8 42 24 58l89 90c16 16 35.667 24 59 24h217c23.333 0 43 -8 59 -24l88 -89c16 -16 24 -35.667 24 -59zM561.998 272.999l-76 71h-182l-74 -69v-71h330zM274.998 671.999l27.999 27
c16.667 16.667 33.334 16.334 50.001 -0.999023l121 -119c9.33301 -8.66699 13.833 -16.667 13.5 -24s-5.16602 -15.666 -14.499 -24.999l-26 -26c-16.667 -17.333 -33.667 -17.333 -51 0l-121 118c-10 9.33301 -14.833 17.666 -14.5 24.999s5.16602 15.666 14.499 24.999z
" />
    <glyph glyph-name="aacute" unicode="&#xe1;" horiz-adv-x="793" 
d="M675 279l-0.00195312 -244.001c0 -12.667 -2.33301 -21.5 -7 -26.5s-13.667 -7.83301 -27 -8.5l-48 -1c-13.333 0 -22.666 2.5 -27.999 7.5s-7.66602 14.167 -6.99902 27.5l2 71h-330l1 -71c0 -13.333 -2.5 -22.666 -7.5 -27.999s-13.833 -8 -26.5 -8h-48
c-12.667 0 -21.667 2.5 -27 7.5s-8 13.833 -8 26.5l1 247c0 22.667 8 42 24 58l89 90c16 16 35.667 24 59 24h217c23.333 0 43 -8 59 -24l88 -89c16 -16 24 -35.667 24 -59zM561.998 272.999l-76 71h-182l-74 -69v-71h330zM318.998 578.999l121.999 119.999
c8.66699 8.66699 16.5 13 23.5 13s15.167 -4.33301 24.5 -13l28 -27c9.33301 -9.33301 14 -17.666 14 -24.999s-4.66699 -15.666 -14 -24.999l-120 -118c-16.667 -17.333 -33.667 -17.333 -51 0l-26 26c-9.33301 9.33301 -14.166 17.666 -14.499 24.999
s4.16699 15.333 13.5 24z" />
    <glyph glyph-name="acircumflex" unicode="&#xe2;" horiz-adv-x="793" 
d="M675 279l-0.00195312 -244.001c0 -12.667 -2.33301 -21.5 -7 -26.5s-13.667 -7.83301 -27 -8.5l-48 -1c-13.333 0 -22.666 2.5 -27.999 7.5s-7.66602 14.167 -6.99902 27.5l2 71h-330l1 -71c0 -13.333 -2.5 -22.666 -7.5 -27.999s-13.833 -8 -26.5 -8h-48
c-12.667 0 -21.667 2.5 -27 7.5s-8 13.833 -8 26.5l1 247c0 22.667 8 42 24 58l89 90c16 16 35.667 24 59 24h217c23.333 0 43 -8 59 -24l88 -89c16 -16 24 -35.667 24 -59zM561.998 272.999l-76 71h-182l-74 -69v-71h330zM249.998 575.999l123.001 112.999
c17.333 15.333 34.333 15 51 -1l118 -110c9.33301 -9.33301 14.166 -17.666 14.499 -24.999s-4.16699 -15.666 -13.5 -24.999l-22 -22c-16.667 -17.333 -33 -18 -49 -2l-76 74l-76 -74c-16 -16 -32.333 -15.333 -49 2l-21 21c-17.333 17.333 -17.333 33.666 0 48.999z" />
    <glyph glyph-name="atilde" unicode="&#xe3;" horiz-adv-x="881" 
d="M755 362l-0.000976562 -327.001c0 -12.667 -2.33301 -21.5 -7 -26.5s-13.667 -7.83301 -27 -8.5l-47 -1c-13.333 0 -22.666 2.33301 -27.999 7s-8 13.334 -8 26.001l2 151h-400l1 -151c0 -12.667 -2.66699 -21.5 -8 -26.5s-14.333 -7.5 -27 -7.5h-48
c-12.667 0 -21.667 2.5 -27 7.5s-8 13.833 -8 26.5l1 331c0 22.667 8 42 24 58l205 208c16 16 35.667 24 59 24h57c22.667 0 42.667 -8.66699 60 -26l202 -206c16 -16 24 -35.667 24 -59zM641.999 357.999l-202 198l-200 -196v-75h400zM491.999 798.999l54.999 62.999
c14 16.667 30.333 17.334 49 2.00098l20 -17c10 -8.66699 15.167 -16.667 15.5 -24s-3.83398 -16 -12.501 -26l-89 -99c-16 -18 -32.667 -19 -50 -3l-82 77l-55 -61c-8.66699 -10 -16.667 -15.333 -24 -16s-15.666 3 -24.999 11l-21 18c-10 8.66699 -15.167 16.667 -15.5 24
s3.83398 16 12.501 26l89 100c16 18 32.667 19 50 3z" />
    <glyph glyph-name="adieresis" unicode="&#xe4;" horiz-adv-x="793" 
d="M675 279l-0.00195312 -244.001c0 -12.667 -2.33301 -21.5 -7 -26.5s-13.667 -7.83301 -27 -8.5l-48 -1c-13.333 0 -22.666 2.5 -27.999 7.5s-7.66602 14.167 -6.99902 27.5l2 71h-330l1 -71c0 -13.333 -2.5 -22.666 -7.5 -27.999s-13.833 -8 -26.5 -8h-48
c-12.667 0 -21.667 2.5 -27 7.5s-8 13.833 -8 26.5l1 247c0 22.667 8 42 24 58l89 90c16 16 35.667 24 59 24h217c23.333 0 43 -8 59 -24l88 -89c16 -16 24 -35.667 24 -59zM561.998 272.999l-76 71h-182l-74 -69v-71h330zM208.998 551.999v55c0 12.667 2.5 21.667 7.5 27
s14.167 8 27.5 8h57c12.667 0 21.667 -2.66699 27 -8s8 -14.333 8 -27v-55c0 -13.333 -2.66699 -22.5 -8 -27.5s-14.333 -7.5 -27 -7.5h-57c-13.333 0 -22.5 2.5 -27.5 7.5s-7.5 14.167 -7.5 27.5zM455.998 551.999v55c0 12.667 2.66699 21.667 8 27s14.333 8 27 8h58
c12.667 0 21.667 -2.66699 27 -8s8 -14.333 8 -27v-55c0 -13.333 -2.66699 -22.5 -8 -27.5s-14.333 -7.5 -27 -7.5h-58c-12.667 0 -21.667 2.5 -27 7.5s-8 14.167 -8 27.5z" />
    <glyph glyph-name="aring" unicode="&#xe5;" horiz-adv-x="793" 
d="M675 279l-0.00195312 -244.001c0 -12.667 -2.33301 -21.5 -7 -26.5s-13.667 -7.83301 -27 -8.5l-48 -1c-13.333 0 -22.666 2.5 -27.999 7.5s-7.66602 14.167 -6.99902 27.5l2 71h-330l1 -71c0 -13.333 -2.5 -22.666 -7.5 -27.999s-13.833 -8 -26.5 -8h-48
c-12.667 0 -21.667 2.5 -27 7.5s-8 13.833 -8 26.5l1 247c0 22.667 8 42 24 58l89 90c16 16 35.667 24 59 24h217c23.333 0 43 -8 59 -24l88 -89c16 -16 24 -35.667 24 -59zM561.998 272.999l-76 71h-182l-74 -69v-71h330zM484.998 716.999l25 -25.001
c16.667 -16.667 25 -36.667 25 -60v-25c0 -22 -8 -41.333 -24 -58l-27 -28c-16 -16 -35.667 -24 -59 -24h-58c-24 0 -43.667 8 -59 24l-27 28c-16 16 -24 35.667 -24 59v24c0 22.667 8 42.334 24 59.001l27 28c16 16 35.667 24 59 24h58c22.667 0 42.667 -8.66699 60 -26z
M447.998 637.998l-26 23h-52l-24 -24v-34l24 -25h53l23 25z" />
    <glyph glyph-name="ae" unicode="&#xe6;" horiz-adv-x="1332" 
d="M206 -2h-47.001c-12.667 0 -21.667 2.66699 -27 8s-8 14.333 -8 27v376c0 24 8.33301 44.333 25 61l145 148c17.333 17.333 37.333 26 60 26h193c22.667 0 42.334 -8.66699 59.001 -26l70 -74l-2 62c-0.666992 12.667 1.5 21.5 6.5 26.5s14.167 7.5 27.5 7.5h475
c12.667 0 21.667 -2.66699 27 -8s8 -14.333 8 -27v-40c0 -12.667 -2.5 -21.667 -7.5 -27s-13.833 -8 -26.5 -8l-403 1v-153l366 1c12.667 0 21.5 -2.66699 26.5 -8s7.5 -14.333 7.5 -27v-45c0 -12.667 -2.5 -21.667 -7.5 -27s-13.833 -8 -26.5 -8l-366 2v-157h406
c12.667 0 21.667 -2.5 27 -7.5s8 -14.167 8 -27.5v-39c0 -12.667 -2.66699 -21.667 -8 -27s-14.333 -8 -27 -8h-489c-12.667 0 -21.667 2.5 -27 7.5s-8 13.833 -8 26.5l2 148h-425l1 -150c0 -12.667 -2.66699 -21.5 -8 -26.5s-14.333 -7.5 -27 -7.5zM665.999 403l-133 135
h-162l-131 -131v-124h425z" />
    <glyph glyph-name="ccedilla" unicode="&#xe7;" horiz-adv-x="796" 
d="M516 -31l52.998 -49.9961c9.33301 -9.33301 14.166 -17.5 14.499 -24.5s-4.16699 -15.167 -13.5 -24.5l-87 -87c-9.33301 -9.33301 -17.666 -13.833 -24.999 -13.5s-15.666 5.16602 -24.999 14.499l-18 18c-9.33301 9.33301 -13.833 17.666 -13.5 24.999
s5.5 15.666 15.5 24.999l41 37l-22 20c-14 13.333 -21 31.666 -21 54.999v30v6h-103c-23.333 -0 -43.333 8.33301 -60 25l-105 105c-16.667 16.667 -25 36.667 -25 60v260c0 23.333 8.33301 43.333 25 60l105 105c16.667 16.667 36.334 25 59.001 25l358 1
c12.667 0 21.5 -2.66699 26.5 -8s7.5 -14.333 7.5 -27v-41c0 -12.667 -2.5 -21.667 -7.5 -27s-13.833 -8 -26.5 -8l-339 2l-85 -85v-253l87 -86l339 1c12.667 0 21.5 -2.66699 26.5 -8s7.5 -14.333 7.5 -27v-39c0 -12.667 -2.5 -21.667 -7.5 -27s-14.167 -8 -27.5 -8h-152z
" />
    <glyph glyph-name="egrave" unicode="&#xe8;" horiz-adv-x="704" 
d="M127 35v377c0 13.333 2.5 22.5 7.5 27.5s14.167 7.5 27.5 7.5h400c13.333 0 22.5 -2.5 27.5 -7.5s7.5 -14.167 7.5 -27.5v-22c0 -12.667 -2.5 -21.667 -7.5 -27s-13.833 -8 -26.5 -8l-323 2v-84l289 1c12.667 0 21.5 -2.66699 26.5 -8s7.5 -14.333 7.5 -27v-28
c0 -12.667 -2.5 -21.667 -7.5 -27s-13.833 -8 -26.5 -8l-289 2v-89l326 1c12.667 0 21.5 -2.66699 26.5 -8s7.5 -14.333 7.5 -27v-20c0 -12.667 -2.66699 -21.667 -8 -27s-14.333 -8 -27 -8h-403c-13.333 0 -22.5 2.66699 -27.5 8s-7.5 14.333 -7.5 27zM231 672l27.999 27
c16.667 16.667 33.334 16.334 50.001 -0.999023l121 -119c9.33301 -8.66699 13.833 -16.667 13.5 -24s-5.16602 -15.666 -14.499 -24.999l-26 -26c-16.667 -17.333 -33.667 -17.333 -51 0l-121 118c-10 9.33301 -14.833 17.666 -14.5 24.999s5.16602 15.666 14.499 24.999z
" />
    <glyph glyph-name="eacute" unicode="&#xe9;" horiz-adv-x="704" 
d="M127 35v377c0 13.333 2.5 22.5 7.5 27.5s14.167 7.5 27.5 7.5h400c13.333 0 22.5 -2.5 27.5 -7.5s7.5 -14.167 7.5 -27.5v-22c0 -12.667 -2.5 -21.667 -7.5 -27s-13.833 -8 -26.5 -8l-323 2v-84l289 1c12.667 0 21.5 -2.66699 26.5 -8s7.5 -14.333 7.5 -27v-28
c0 -12.667 -2.5 -21.667 -7.5 -27s-13.833 -8 -26.5 -8l-289 2v-89l326 1c12.667 0 21.5 -2.66699 26.5 -8s7.5 -14.333 7.5 -27v-20c0 -12.667 -2.66699 -21.667 -8 -27s-14.333 -8 -27 -8h-403c-13.333 0 -22.5 2.66699 -27.5 8s-7.5 14.333 -7.5 27zM275 579
l121.999 119.999c8.66699 8.66699 16.5 13 23.5 13s15.167 -4.33301 24.5 -13l28 -27c9.33301 -9.33301 14 -17.666 14 -24.999s-4.66699 -15.666 -14 -24.999l-120 -118c-16.667 -17.333 -33.667 -17.333 -51 0l-26 26c-9.33301 9.33301 -14.166 17.666 -14.499 24.999
s4.16699 15.333 13.5 24z" />
    <glyph glyph-name="ecircumflex" unicode="&#xea;" horiz-adv-x="704" 
d="M127 35v377c0 13.333 2.5 22.5 7.5 27.5s14.167 7.5 27.5 7.5h400c13.333 0 22.5 -2.5 27.5 -7.5s7.5 -14.167 7.5 -27.5v-22c0 -12.667 -2.5 -21.667 -7.5 -27s-13.833 -8 -26.5 -8l-323 2v-84l289 1c12.667 0 21.5 -2.66699 26.5 -8s7.5 -14.333 7.5 -27v-28
c0 -12.667 -2.5 -21.667 -7.5 -27s-13.833 -8 -26.5 -8l-289 2v-89l326 1c12.667 0 21.5 -2.66699 26.5 -8s7.5 -14.333 7.5 -27v-20c0 -12.667 -2.66699 -21.667 -8 -27s-14.333 -8 -27 -8h-403c-13.333 0 -22.5 2.66699 -27.5 8s-7.5 14.333 -7.5 27zM206 576
l123.001 112.999c17.333 15.333 34.333 15 51 -1l118 -110c9.33301 -9.33301 14.166 -17.666 14.499 -24.999s-4.16699 -15.666 -13.5 -24.999l-22 -22c-16.667 -17.333 -33 -18 -49 -2l-76 74l-76 -74c-16 -16 -32.333 -15.333 -49 2l-21 21
c-17.333 17.333 -17.333 33.666 0 48.999z" />
    <glyph glyph-name="edieresis" unicode="&#xeb;" horiz-adv-x="704" 
d="M127 35v377c0 13.333 2.5 22.5 7.5 27.5s14.167 7.5 27.5 7.5h400c13.333 0 22.5 -2.5 27.5 -7.5s7.5 -14.167 7.5 -27.5v-22c0 -12.667 -2.5 -21.667 -7.5 -27s-13.833 -8 -26.5 -8l-323 2v-84l289 1c12.667 0 21.5 -2.66699 26.5 -8s7.5 -14.333 7.5 -27v-28
c0 -12.667 -2.5 -21.667 -7.5 -27s-13.833 -8 -26.5 -8l-289 2v-89l326 1c12.667 0 21.5 -2.66699 26.5 -8s7.5 -14.333 7.5 -27v-20c0 -12.667 -2.66699 -21.667 -8 -27s-14.333 -8 -27 -8h-403c-13.333 0 -22.5 2.66699 -27.5 8s-7.5 14.333 -7.5 27zM165 552v55
c0 12.667 2.5 21.667 7.5 27s14.167 8 27.5 8h57c12.667 0 21.667 -2.66699 27 -8s8 -14.333 8 -27v-55c0 -13.333 -2.66699 -22.5 -8 -27.5s-14.333 -7.5 -27 -7.5h-57c-13.333 0 -22.5 2.5 -27.5 7.5s-7.5 14.167 -7.5 27.5zM412 552v55c0 12.667 2.66699 21.667 8 27
s14.333 8 27 8h58c12.667 0 21.667 -2.66699 27 -8s8 -14.333 8 -27v-55c0 -13.333 -2.66699 -22.5 -8 -27.5s-14.333 -7.5 -27 -7.5h-58c-12.667 0 -21.667 2.5 -27 7.5s-8 14.167 -8 27.5z" />
    <glyph glyph-name="igrave" unicode="&#xec;" horiz-adv-x="620" 
d="M478 66v-32c0 -13.333 -2.66699 -22.5 -8 -27.5s-14.333 -7.5 -27 -7.5h-268c-12.667 0 -21.667 2.5 -27 7.5s-8 14.167 -8 27.5v32c0 12.667 2.66699 21.5 8 26.5s14.666 7.5 27.999 7.5l75 -1v248l-75 -2c-13.333 -0.666992 -22.666 1.5 -27.999 6.5s-8 14.167 -8 27.5
v34c0 12.667 2.66699 21.667 8 27s14.333 8 27 8h268c12.667 0 21.667 -2.66699 27 -8s8 -14.333 8 -27v-34c0 -13.333 -2.66699 -22.5 -8 -27.5s-14.666 -7.16699 -27.999 -6.5l-75 2v-248l75 1c13.333 0 22.666 -2.5 27.999 -7.5s8 -13.833 8 -26.5zM188 672l28 27
c16 16.667 32.667 16.334 50 -0.999023l121 -119c9.33301 -8.66699 13.833 -16.667 13.5 -24s-5.16602 -15.666 -14.499 -24.999l-26 -26c-17.333 -17.333 -34.333 -17.333 -51 0l-121 118c-10 9.33301 -14.833 17.666 -14.5 24.999s5.16602 15.666 14.499 24.999z" />
    <glyph glyph-name="iacute" unicode="&#xed;" horiz-adv-x="620" 
d="M478 66v-32c0 -13.333 -2.66699 -22.5 -8 -27.5s-14.333 -7.5 -27 -7.5h-268c-12.667 0 -21.667 2.5 -27 7.5s-8 14.167 -8 27.5v32c0 12.667 2.66699 21.5 8 26.5s14.666 7.5 27.999 7.5l75 -1v248l-75 -2c-13.333 -0.666992 -22.666 1.5 -27.999 6.5s-8 14.167 -8 27.5
v34c0 12.667 2.66699 21.667 8 27s14.333 8 27 8h268c12.667 0 21.667 -2.66699 27 -8s8 -14.333 8 -27v-34c0 -13.333 -2.66699 -22.5 -8 -27.5s-14.666 -7.16699 -27.999 -6.5l-75 2v-248l75 1c13.333 0 22.666 -2.5 27.999 -7.5s8 -13.833 8 -26.5zM232 579
l121.999 119.999c9.33301 8.66699 17.333 13 24 13s14.667 -4.33301 24 -13l28 -27c9.33301 -9.33301 14 -17.666 14 -24.999s-4.66699 -15.666 -14 -24.999l-120 -118c-17.333 -17.333 -34.333 -17.333 -51 0l-26 26c-9.33301 9.33301 -14.166 17.666 -14.499 24.999
s4.16699 15.333 13.5 24z" />
    <glyph glyph-name="icircumflex" unicode="&#xee;" horiz-adv-x="620" 
d="M478 66v-32c0 -13.333 -2.66699 -22.5 -8 -27.5s-14.333 -7.5 -27 -7.5h-268c-12.667 0 -21.667 2.5 -27 7.5s-8 14.167 -8 27.5v32c0 12.667 2.66699 21.5 8 26.5s14.666 7.5 27.999 7.5l75 -1v248l-75 -2c-13.333 -0.666992 -22.666 1.5 -27.999 6.5s-8 14.167 -8 27.5
v34c0 12.667 2.66699 21.667 8 27s14.333 8 27 8h268c12.667 0 21.667 -2.66699 27 -8s8 -14.333 8 -27v-34c0 -13.333 -2.66699 -22.5 -8 -27.5s-14.666 -7.16699 -27.999 -6.5l-75 2v-248l75 1c13.333 0 22.666 -2.5 27.999 -7.5s8 -13.833 8 -26.5zM163 576
l122.999 112.999c17.333 15.333 34.333 15 51 -1l118 -110c9.33301 -9.33301 14.166 -17.666 14.499 -24.999s-4.16699 -15.666 -13.5 -24.999l-22 -22c-17.333 -17.333 -33.666 -18 -48.999 -2l-76 74l-76 -74c-15.333 -16 -31.666 -15.333 -48.999 2l-21 21
c-17.333 17.333 -17.333 33.666 0 48.999z" />
    <glyph glyph-name="idieresis" unicode="&#xef;" horiz-adv-x="620" 
d="M478 66v-32c0 -13.333 -2.66699 -22.5 -8 -27.5s-14.333 -7.5 -27 -7.5h-268c-12.667 0 -21.667 2.5 -27 7.5s-8 14.167 -8 27.5v32c0 12.667 2.66699 21.5 8 26.5s14.666 7.5 27.999 7.5l75 -1v248l-75 -2c-13.333 -0.666992 -22.666 1.5 -27.999 6.5s-8 14.167 -8 27.5
v34c0 12.667 2.66699 21.667 8 27s14.333 8 27 8h268c12.667 0 21.667 -2.66699 27 -8s8 -14.333 8 -27v-34c0 -13.333 -2.66699 -22.5 -8 -27.5s-14.666 -7.16699 -27.999 -6.5l-75 2v-248l75 1c13.333 0 22.666 -2.5 27.999 -7.5s8 -13.833 8 -26.5zM122 552v55
c0 12.667 2.66699 21.667 8 27s14.333 8 27 8h57c13.333 0 22.5 -2.66699 27.5 -8s7.5 -14.333 7.5 -27v-55c0 -13.333 -2.5 -22.5 -7.5 -27.5s-14.167 -7.5 -27.5 -7.5h-57c-12.667 0 -21.667 2.5 -27 7.5s-8 14.167 -8 27.5zM369 552v55c0 12.667 2.5 21.667 7.5 27
s14.167 8 27.5 8h58c13.333 0 22.5 -2.66699 27.5 -8s7.5 -14.333 7.5 -27v-55c0 -13.333 -2.5 -22.5 -7.5 -27.5s-14.167 -7.5 -27.5 -7.5h-58c-13.333 0 -22.5 2.5 -27.5 7.5s-7.5 14.167 -7.5 27.5z" />
    <glyph glyph-name="eth" unicode="&#xf0;" horiz-adv-x="970" 
d="M655 0h-483c-13.333 0 -22.5 2.66699 -27.5 8s-7.5 14.333 -7.5 27v227h-40c-12.667 0 -21.667 2.66699 -27 8s-8 14.333 -8 27v49c0 13.333 2.66699 22.5 8 27.5s14.333 7.5 27 7.5h40v224c0 12.667 2.5 21.667 7.5 27s14.167 8 27.5 8h483c23.333 0 43 -8 59 -24
l109 -110c16 -16 24 -35.667 24 -59v-255c0 -23.333 -8.33301 -43.333 -25 -60l-107 -107c-16.667 -16.667 -36.667 -25 -60 -25zM372 262h-114v-149h373l87 87v239l-88 88h-372v-146h114c13.333 0 22.5 -2.5 27.5 -7.5s7.5 -14.167 7.5 -27.5v-49
c0 -12.667 -2.5 -21.667 -7.5 -27s-14.167 -8 -27.5 -8z" />
    <glyph glyph-name="ntilde" unicode="&#xf1;" horiz-adv-x="857" 
d="M612 155l-2.00098 260.002c0 12.667 2.66699 21.5 8 26.5s14.333 7.5 27 7.5h49c12.667 0 21.667 -2.5 27 -7.5s8 -13.833 8 -26.5l-1 -350c0 -23.333 -8.33301 -42 -25 -56l-29 -25c-9.33301 -8.66699 -17.666 -13 -24.999 -13s-16.333 4 -27 12l-378 295l1 -246
c0 -12.667 -2.66699 -21.5 -8 -26.5s-14.333 -7.5 -27 -7.5h-48c-13.333 0 -22.5 2.66699 -27.5 8s-7.5 14.333 -7.5 27v381c0 13.333 2.5 22.666 7.5 27.999s13.833 7.66602 26.5 6.99902l43 -1c22 0 42.667 -7.33301 62 -22zM480.999 602.002l54.999 62.999
c14 16.667 30.333 17.334 49 2.00098l20 -17c10 -8.66699 15.167 -16.667 15.5 -24s-3.83398 -16 -12.501 -26l-89 -99c-16 -18 -32.667 -19 -50 -3l-82 77l-55 -61c-8.66699 -10 -16.667 -15.333 -24 -16s-15.666 3 -24.999 11l-21 18c-10 8.66699 -15.167 16.667 -15.5 24
s3.83398 16 12.501 26l89 100c16 18 32.667 19 50 3z" />
    <glyph glyph-name="ograve" unicode="&#xf2;" horiz-adv-x="879" 
d="M666 427l74 -70c17.333 -16.667 26 -36 26 -58l1 -152c0 -22 -8.66699 -41.333 -26 -58l-74 -69c-16.667 -16 -37 -24 -61 -24h-335c-24 0 -44.333 8 -61 24l-73 68c-17.333 16.667 -26 36.334 -26 59.001v150c0 23.333 8 42.666 24 57.999l77 73
c16 15.333 35.667 23 59 23h335c23.333 0 43.333 -8 60 -24zM646 292l-59 51h-297l-57 -51v-137l58 -52h297l57 50zM318 672l28 27c16 16.667 32.667 16.334 50 -0.999023l121 -119c9.33301 -8.66699 13.833 -16.667 13.5 -24s-5.16602 -15.666 -14.499 -24.999l-26 -26
c-17.333 -17.333 -34.333 -17.333 -51 0l-121 118c-10 9.33301 -14.833 17.666 -14.5 24.999s5.16602 15.666 14.499 24.999z" />
    <glyph glyph-name="oacute" unicode="&#xf3;" horiz-adv-x="879" 
d="M666 427l74 -70c17.333 -16.667 26 -36 26 -58l1 -152c0 -22 -8.66699 -41.333 -26 -58l-74 -69c-16.667 -16 -37 -24 -61 -24h-335c-24 0 -44.333 8 -61 24l-73 68c-17.333 16.667 -26 36.334 -26 59.001v150c0 23.333 8 42.666 24 57.999l77 73
c16 15.333 35.667 23 59 23h335c23.333 0 43.333 -8 60 -24zM646 292l-59 51h-297l-57 -51v-137l58 -52h297l57 50zM362 579l121.999 119.999c9.33301 8.66699 17.333 13 24 13s14.667 -4.33301 24 -13l28 -27c9.33301 -9.33301 14 -17.666 14 -24.999
s-4.66699 -15.666 -14 -24.999l-120 -118c-17.333 -17.333 -34.333 -17.333 -51 0l-26 26c-9.33301 9.33301 -14.166 17.666 -14.499 24.999s4.16699 15.333 13.5 24z" />
    <glyph glyph-name="ocircumflex" unicode="&#xf4;" horiz-adv-x="879" 
d="M666 427l74 -70c17.333 -16.667 26 -36 26 -58l1 -152c0 -22 -8.66699 -41.333 -26 -58l-74 -69c-16.667 -16 -37 -24 -61 -24h-335c-24 0 -44.333 8 -61 24l-73 68c-17.333 16.667 -26 36.334 -26 59.001v150c0 23.333 8 42.666 24 57.999l77 73
c16 15.333 35.667 23 59 23h335c23.333 0 43.333 -8 60 -24zM646 292l-59 51h-297l-57 -51v-137l58 -52h297l57 50zM293 576l122.999 112.999c17.333 15.333 34.333 15 51 -1l118 -110c9.33301 -9.33301 14.166 -17.666 14.499 -24.999s-4.16699 -15.666 -13.5 -24.999
l-22 -22c-17.333 -17.333 -33.666 -18 -48.999 -2l-76 74l-76 -74c-15.333 -16 -31.666 -15.333 -48.999 2l-21 21c-17.333 17.333 -17.333 33.666 0 48.999z" />
    <glyph glyph-name="otilde" unicode="&#xf5;" horiz-adv-x="879" 
d="M666 427l74 -70c17.333 -16.667 26 -36 26 -58l1 -152c0 -22 -8.66699 -41.333 -26 -58l-74 -69c-16.667 -16 -37 -24 -61 -24h-335c-24 0 -44.333 8 -61 24l-73 68c-17.333 16.667 -26 36.334 -26 59.001v150c0 23.333 8 42.666 24 57.999l77 73
c16 15.333 35.667 23 59 23h335c23.333 0 43.333 -8 60 -24zM646 292l-59 51h-297l-57 -51v-137l58 -52h297l57 50zM492 602l54.999 62.999c14 16.667 30.333 17.334 49 2.00098l20 -17c10 -8.66699 15.167 -16.667 15.5 -24s-3.83398 -16 -12.501 -26l-89 -99
c-16 -18 -32.667 -19 -50 -3l-82 77l-55 -61c-8.66699 -10 -16.667 -15.333 -24 -16s-15.666 3 -24.999 11l-21 18c-10 8.66699 -15.167 16.667 -15.5 24s3.83398 16 12.501 26l89 100c16 18 32.667 19 50 3z" />
    <glyph glyph-name="odieresis" unicode="&#xf6;" horiz-adv-x="879" 
d="M666 427l74 -70c17.333 -16.667 26 -36 26 -58l1 -152c0 -22 -8.66699 -41.333 -26 -58l-74 -69c-16.667 -16 -37 -24 -61 -24h-335c-24 0 -44.333 8 -61 24l-73 68c-17.333 16.667 -26 36.334 -26 59.001v150c0 23.333 8 42.666 24 57.999l77 73
c16 15.333 35.667 23 59 23h335c23.333 0 43.333 -8 60 -24zM646 292l-59 51h-297l-57 -51v-137l58 -52h297l57 50zM252 552v55c0 12.667 2.66699 21.667 8 27s14.333 8 27 8h57c13.333 0 22.5 -2.66699 27.5 -8s7.5 -14.333 7.5 -27v-55c0 -13.333 -2.5 -22.5 -7.5 -27.5
s-14.167 -7.5 -27.5 -7.5h-57c-12.667 0 -21.667 2.5 -27 7.5s-8 14.167 -8 27.5zM499 552v55c0 12.667 2.5 21.667 7.5 27s14.167 8 27.5 8h58c13.333 0 22.5 -2.66699 27.5 -8s7.5 -14.333 7.5 -27v-55c0 -13.333 -2.5 -22.5 -7.5 -27.5s-14.167 -7.5 -27.5 -7.5h-58
c-13.333 0 -22.5 2.5 -27.5 7.5s-7.5 14.167 -7.5 27.5z" />
    <glyph glyph-name="divide" unicode="&#xf7;" horiz-adv-x="635" 
d="M262 119l1 37c0.666992 13.333 3.33398 22.333 8.00098 27s13.667 7.33398 27 8.00098l40 1c13.333 0 22.666 -2.5 27.999 -7.5s8 -13.833 8 -26.5v-40c0 -13.333 -2.66699 -22.5 -8 -27.5s-14.333 -7.5 -27 -7.5h-43c-13.333 0 -22.5 2.66699 -27.5 8
s-7.16699 14.666 -6.5 27.999zM261 486v40c0 13.333 2.5 22.5 7.5 27.5s14.167 7.5 27.5 7.5h43c12.667 0 21.667 -2.5 27 -7.5s8 -14.167 8 -27.5v-40c0 -13.333 -2.66699 -22.5 -8 -27.5s-14.333 -7.5 -27 -7.5h-43c-13.333 0 -22.5 2.5 -27.5 7.5s-7.5 14.167 -7.5 27.5z
M520 268h-405c-12.667 0 -21.667 2.66699 -27 8s-8 14.333 -8 27v37c0 13.333 2.66699 22.5 8 27.5s14.333 7.5 27 7.5h405c13.333 0 22.5 -2.5 27.5 -7.5s7.5 -14.167 7.5 -27.5v-37c0 -12.667 -2.5 -21.667 -7.5 -27s-14.167 -8 -27.5 -8z" />
    <glyph glyph-name="oslash" unicode="&#xf8;" horiz-adv-x="891" 
d="M58 13l78.999 77.001c-11.333 13.333 -17 30.666 -17 51.999v376c0 23.333 8 43 24 59l40 39c16 16 35.667 24 59 24h384c20 0 37 -5.66699 51 -17l80 78c8.66699 9.33301 16.667 13.833 24 13.5s15.666 -5.16602 24.999 -14.499l24 -24
c9.33301 -9.33301 14.166 -17.666 14.499 -24.999s-4.16699 -15.333 -13.5 -24l-80 -79c11.333 -14 17 -31 17 -51v-376c0 -23.333 -8 -43 -24 -59l-39 -38c-16 -16 -35.667 -24 -59 -24h-384c-21.333 0 -38.666 5.66699 -51.999 17l-79 -78
c-8.66699 -9.33301 -16.667 -13.833 -24 -13.5s-15.666 5.16602 -24.999 14.499l-24 24c-9.33301 9.33301 -14.166 17.666 -14.499 24.999s4.16699 15.333 13.5 24zM300.999 105.001h353v347zM236.999 535.001v-346l352 346h-352z" />
    <glyph glyph-name="ugrave" unicode="&#xf9;" horiz-adv-x="816" 
d="M571 156l-2 259c0 12.667 2.66699 21.5 8 26.5s14.333 7.5 27 7.5h49c12.667 0 21.667 -2.5 27 -7.5s8 -13.833 8 -26.5l-1 -273c0 -22.667 -8.33301 -42 -25 -58l-68 -64c-16 -15.333 -35.667 -23 -59 -23h-256c-23.333 0 -43.333 8 -60 24l-68 64
c-16 15.333 -24 34.333 -24 57l-1 273c0 12.667 2.66699 21.5 8 26.5s14.333 7.5 27 7.5h49c12.667 0 21.667 -2.5 27 -7.5s8 -13.833 8 -26.5l-1 -258l56 -52h216zM286 672l28 27c16 16.667 32.667 16.334 50 -0.999023l121 -119c9.33301 -8.66699 13.833 -16.667 13.5 -24
s-5.16602 -15.666 -14.499 -24.999l-26 -26c-17.333 -17.333 -34.333 -17.333 -51 0l-121 118c-10 9.33301 -14.833 17.666 -14.5 24.999s5.16602 15.666 14.499 24.999z" />
    <glyph glyph-name="uacute" unicode="&#xfa;" horiz-adv-x="816" 
d="M571 156l-2 259c0 12.667 2.66699 21.5 8 26.5s14.333 7.5 27 7.5h49c12.667 0 21.667 -2.5 27 -7.5s8 -13.833 8 -26.5l-1 -273c0 -22.667 -8.33301 -42 -25 -58l-68 -64c-16 -15.333 -35.667 -23 -59 -23h-256c-23.333 0 -43.333 8 -60 24l-68 64
c-16 15.333 -24 34.333 -24 57l-1 273c0 12.667 2.66699 21.5 8 26.5s14.333 7.5 27 7.5h49c12.667 0 21.667 -2.5 27 -7.5s8 -13.833 8 -26.5l-1 -258l56 -52h216zM330 579l121.999 119.999c9.33301 8.66699 17.333 13 24 13s14.667 -4.33301 24 -13l28 -27
c9.33301 -9.33301 14 -17.666 14 -24.999s-4.66699 -15.666 -14 -24.999l-120 -118c-17.333 -17.333 -34.333 -17.333 -51 0l-26 26c-9.33301 9.33301 -14.166 17.666 -14.499 24.999s4.16699 15.333 13.5 24z" />
    <glyph glyph-name="ucircumflex" unicode="&#xfb;" horiz-adv-x="816" 
d="M571 156l-2 259c0 12.667 2.66699 21.5 8 26.5s14.333 7.5 27 7.5h49c12.667 0 21.667 -2.5 27 -7.5s8 -13.833 8 -26.5l-1 -273c0 -22.667 -8.33301 -42 -25 -58l-68 -64c-16 -15.333 -35.667 -23 -59 -23h-256c-23.333 0 -43.333 8 -60 24l-68 64
c-16 15.333 -24 34.333 -24 57l-1 273c0 12.667 2.66699 21.5 8 26.5s14.333 7.5 27 7.5h49c12.667 0 21.667 -2.5 27 -7.5s8 -13.833 8 -26.5l-1 -258l56 -52h216zM261 576l122.999 112.999c17.333 15.333 34.333 15 51 -1l118 -110
c9.33301 -9.33301 14.166 -17.666 14.499 -24.999s-4.16699 -15.666 -13.5 -24.999l-22 -22c-17.333 -17.333 -33.666 -18 -48.999 -2l-76 74l-76 -74c-15.333 -16 -31.666 -15.333 -48.999 2l-21 21c-17.333 17.333 -17.333 33.666 0 48.999z" />
    <glyph glyph-name="udieresis" unicode="&#xfc;" horiz-adv-x="816" 
d="M571 156l-2 259c0 12.667 2.66699 21.5 8 26.5s14.333 7.5 27 7.5h49c12.667 0 21.667 -2.5 27 -7.5s8 -13.833 8 -26.5l-1 -273c0 -22.667 -8.33301 -42 -25 -58l-68 -64c-16 -15.333 -35.667 -23 -59 -23h-256c-23.333 0 -43.333 8 -60 24l-68 64
c-16 15.333 -24 34.333 -24 57l-1 273c0 12.667 2.66699 21.5 8 26.5s14.333 7.5 27 7.5h49c12.667 0 21.667 -2.5 27 -7.5s8 -13.833 8 -26.5l-1 -258l56 -52h216zM220 552v55c0 12.667 2.66699 21.667 8 27s14.333 8 27 8h57c13.333 0 22.5 -2.66699 27.5 -8
s7.5 -14.333 7.5 -27v-55c0 -13.333 -2.5 -22.5 -7.5 -27.5s-14.167 -7.5 -27.5 -7.5h-57c-12.667 0 -21.667 2.5 -27 7.5s-8 14.167 -8 27.5zM467 552v55c0 12.667 2.5 21.667 7.5 27s14.167 8 27.5 8h58c13.333 0 22.5 -2.66699 27.5 -8s7.5 -14.333 7.5 -27v-55
c0 -13.333 -2.5 -22.5 -7.5 -27.5s-14.167 -7.5 -27.5 -7.5h-58c-13.333 0 -22.5 2.5 -27.5 7.5s-7.5 14.167 -7.5 27.5z" />
    <glyph glyph-name="yacute" unicode="&#xfd;" horiz-adv-x="724" 
d="M531 358l-1.99902 56.999c-0.666992 12.667 1.66602 21.5 6.99902 26.5s14.333 7.5 27 7.5h51c12.667 0 21.667 -2.5 27 -7.5s8 -13.833 8 -26.5l-1 -66c0 -22.667 -8.66699 -41.334 -26 -56.001l-202 -171l1 -88c0 -13.333 -2.5 -22.666 -7.5 -27.999
s-13.833 -8 -26.5 -8h-52c-13.333 0 -22.5 2.66699 -27.5 8s-7.16699 14.666 -6.5 27.999l2 87l-204 172c-17.333 14.667 -26 33.334 -26 56.001l-1 66c0 12.667 2.66699 21.5 8 26.5s14.333 7.5 27 7.5h53c12.667 0 21.5 -2.66699 26.5 -8s7.5 -14.666 7.5 -27.999l-1 -55
l169 -139zM284.001 578.999l121.999 119.999c9.33301 8.66699 17.333 13 24 13s14.667 -4.33301 24 -13l28 -27c9.33301 -9.33301 14 -17.666 14 -24.999s-4.66699 -15.666 -14 -24.999l-120 -118c-17.333 -17.333 -34.333 -17.333 -51 0l-26 26
c-9.33301 9.33301 -14.166 17.666 -14.499 24.999s4.16699 15.333 13.5 24z" />
    <glyph glyph-name="thorn" unicode="&#xfe;" horiz-adv-x="845" 
d="M255 101l-0.000976562 -66.001c0 -12.667 -2.33301 -21.5 -7 -26.5s-13.667 -7.83301 -27 -8.5l-46 -1c-13.333 0 -22.666 2.5 -27.999 7.5s-8 13.833 -8 26.5v574c0 12.667 2.5 21.667 7.5 27s14.167 8 27.5 8h48c12.667 0 21.5 -2.66699 26.5 -8
s7.5 -14.666 7.5 -27.999l-1 -62h341c23.333 0 43.333 -8.33301 60 -25l78 -78c16.667 -16.667 25 -36.667 25 -60v-118c0 -23.333 -8 -43 -24 -59l-81 -80c-16 -16 -35.333 -24 -58 -24zM254.999 437.999v-231h322l62 63v104l-62 64h-322z" />
    <glyph glyph-name="ydieresis" unicode="&#xff;" horiz-adv-x="724" 
d="M531 358l-1.99902 56.999c-0.666992 12.667 1.66602 21.5 6.99902 26.5s14.333 7.5 27 7.5h51c12.667 0 21.667 -2.5 27 -7.5s8 -13.833 8 -26.5l-1 -66c0 -22.667 -8.66699 -41.334 -26 -56.001l-202 -171l1 -88c0 -13.333 -2.5 -22.666 -7.5 -27.999
s-13.833 -8 -26.5 -8h-52c-13.333 0 -22.5 2.66699 -27.5 8s-7.16699 14.666 -6.5 27.999l2 87l-204 172c-17.333 14.667 -26 33.334 -26 56.001l-1 66c0 12.667 2.66699 21.5 8 26.5s14.333 7.5 27 7.5h53c12.667 0 21.5 -2.66699 26.5 -8s7.5 -14.666 7.5 -27.999l-1 -55
l169 -139zM174.001 551.999v55c0 12.667 2.66699 21.667 8 27s14.333 8 27 8h57c13.333 0 22.5 -2.66699 27.5 -8s7.5 -14.333 7.5 -27v-55c0 -13.333 -2.5 -22.5 -7.5 -27.5s-14.167 -7.5 -27.5 -7.5h-57c-12.667 0 -21.667 2.5 -27 7.5s-8 14.167 -8 27.5z
M421.001 551.999v55c0 12.667 2.5 21.667 7.5 27s14.167 8 27.5 8h58c13.333 0 22.5 -2.66699 27.5 -8s7.5 -14.333 7.5 -27v-55c0 -13.333 -2.5 -22.5 -7.5 -27.5s-14.167 -7.5 -27.5 -7.5h-58c-13.333 0 -22.5 2.5 -27.5 7.5s-7.5 14.167 -7.5 27.5z" />
    <glyph glyph-name="OE" unicode="&#x152;" horiz-adv-x="1495" 
d="M259 21l-113.001 111c-16 16 -24 35.667 -24 59v256c0 23.333 8.33301 43.333 25 60l111 111c16.667 16.667 36.667 25 60 25h314c23.333 0 43 -8 59 -24l78 -79l-2 66c-0.666992 12.667 1.5 21.5 6.5 26.5s14.167 7.5 27.5 7.5h484c23.333 0 43 -8 59 -24l42 -41
c16.667 -16.667 16.667 -32.667 0 -48l-36 -35c-17.333 -17.333 -34 -17.333 -50 0l-40 43h-377v-158l369 1c12.667 0 21.5 -2.66699 26.5 -8s7.5 -14.333 7.5 -27v-45c0 -12.667 -2.5 -21.667 -7.5 -27s-13.833 -8 -26.5 -8l-369 2v-160h383l40 42
c8.66699 8.66699 16.334 13 23.001 13s14.667 -4.33301 24 -13l36 -35c8.66699 -9.33301 13 -17.333 13 -24s-4.33301 -14.667 -13 -24l-41 -40c-16 -16 -35.667 -24 -59 -24h-488c-13.333 0 -22.5 2.5 -27.5 7.5s-7.16699 13.833 -6.5 26.5l2 67l-78 -80
c-16 -16 -35.667 -24 -59 -24h-314c-23.333 0 -43 8 -59 24zM759.999 417l-121 118h-304l-92 -93v-243l94 -94h304l118 116z" />
    <glyph glyph-name="oe" unicode="&#x153;" horiz-adv-x="1435" 
d="M259 21l-113 111c-16 16 -24 35.667 -24 59v256c0 23.333 8.33301 43.333 25 60l111 111c16.667 16.667 36.667 25 60 25h314c23.333 0 43 -8 59 -24l78 -79l-2 66c-0.666992 12.667 1.5 21.5 6.5 26.5s14.167 7.5 27.5 7.5h485c13.333 0 22.5 -2.66699 27.5 -8
s7.5 -14.333 7.5 -27v-40c0 -12.667 -2.5 -21.667 -7.5 -27s-13.833 -8 -26.5 -8l-403 1v-153l366 1c12.667 0 21.5 -2.66699 26.5 -8s7.5 -14.333 7.5 -27v-45c0 -12.667 -2.5 -21.667 -7.5 -27s-13.833 -8 -26.5 -8l-366 2v-157h406c13.333 0 22.5 -2.5 27.5 -7.5
s7.5 -14.167 7.5 -27.5v-39c0 -12.667 -2.5 -21.667 -7.5 -27s-14.167 -8 -27.5 -8h-489c-13.333 0 -22.5 2.5 -27.5 7.5s-7.16699 13.833 -6.5 26.5l2 67l-78 -80c-16 -16 -35.667 -24 -59 -24h-314c-23.333 0 -43 8 -59 24zM760 417l-121 118h-304l-92 -93v-243l94 -94
h304l118 116z" />
    <glyph glyph-name="Ydieresis" unicode="&#x178;" horiz-adv-x="807" 
d="M613 521l-2 85c-0.666992 13.333 1.5 22.666 6.5 27.999s14.167 8 27.5 8h51c13.333 0 22.5 -2.66699 27.5 -8s7.5 -14.333 7.5 -27v-95c0 -22.667 -8.66699 -42.667 -26 -60l-243 -238l1 -182c0 -12.667 -2.66699 -21.5 -8 -26.5s-14.333 -7.5 -27 -7.5h-50
c-12.667 0 -21.667 2.5 -27 7.5s-8 13.833 -8 26.5l2 181l-244 239c-17.333 17.333 -26 37.333 -26 60v95c0 12.667 2.5 21.667 7.5 27s14.167 8 27.5 8h52c12.667 0 21.5 -2.66699 26.5 -8s7.5 -14.666 7.5 -27.999l-1 -85l210 -210zM216 749v55
c0 13.333 2.66699 22.5 8 27.5s14.333 7.5 27 7.5h57c13.333 0 22.5 -2.5 27.5 -7.5s7.5 -14.167 7.5 -27.5v-55c0 -12.667 -2.5 -21.667 -7.5 -27s-14.167 -8 -27.5 -8h-57c-12.667 0 -21.667 2.66699 -27 8s-8 14.333 -8 27zM463 749v55c0 13.333 2.5 22.5 7.5 27.5
s14.167 7.5 27.5 7.5h58c13.333 0 22.5 -2.5 27.5 -7.5s7.5 -14.167 7.5 -27.5v-55c0 -12.667 -2.5 -21.667 -7.5 -27s-14.167 -8 -27.5 -8h-58c-13.333 0 -22.5 2.66699 -27.5 8s-7.5 14.333 -7.5 27z" />
    <glyph glyph-name="tilde" unicode="&#x2dc;" horiz-adv-x="1200" 
d="M652 799l54.999 62.999c14 16.667 30.333 17.334 49 2.00098l20 -17c10 -8.66699 15.167 -16.667 15.5 -24s-3.83398 -16 -12.501 -26l-89 -99c-16 -18 -32.667 -19 -50 -3l-82 77l-55 -61c-8.66699 -10 -16.667 -15.333 -24 -16s-15.666 3 -24.999 11l-21 18
c-10 8.66699 -15.167 16.667 -15.5 24s3.83398 16 12.501 26l89 100c16 18 32.667 19 50 3z" />
    <glyph glyph-name="endash" unicode="&#x2013;" horiz-adv-x="709" 
d="M611 265h-515c-13.333 0 -22.5 2.5 -27.5 7.5s-7.5 14.167 -7.5 27.5v43c0 12.667 2.5 21.667 7.5 27s14.167 8 27.5 8h515c12.667 0 21.667 -2.66699 27 -8s8 -14.333 8 -27v-43c0 -13.333 -2.66699 -22.5 -8 -27.5s-14.333 -7.5 -27 -7.5z" />
    <glyph glyph-name="emdash" unicode="&#x2014;" horiz-adv-x="1399" 
d="M1301 265h-1205c-13.333 0 -22.5 2.5 -27.5 7.5s-7.5 14.167 -7.5 27.5v43c0 12.667 2.5 21.667 7.5 27s14.167 8 27.5 8h1205c12.667 0 21.667 -2.66699 27 -8s8 -14.333 8 -27v-43c0 -13.333 -2.66699 -22.5 -8 -27.5s-14.333 -7.5 -27 -7.5z" />
    <glyph glyph-name="quoteleft" unicode="&#x2018;" horiz-adv-x="326" 
d="M222 707v-161.001c0 -13.333 -2.66699 -22.5 -8 -27.5s-14.333 -7.5 -27 -7.5h-48c-12.667 0 -21.667 2.5 -27 7.5s-8 14.167 -8 27.5v121c0 22.667 8 42.334 24 59.001l28 29c17.333 16.667 32 19 44 7l2 -2c13.333 -11.333 20 -29 20 -53z" />
    <glyph glyph-name="quoteright" unicode="&#x2019;" horiz-adv-x="326" 
d="M104 547v160c0 12.667 2.66699 21.667 8 27s14.333 8 27 8h48c12.667 0 21.667 -2.66699 27 -8s8 -14.333 8 -27v-120c0 -22.667 -8 -42.334 -24 -59.001l-29 -30c-9.33301 -9.33301 -17 -14.333 -23 -15s-12.667 2.33301 -20 9l-2 2
c-13.333 12.667 -20 30.334 -20 53.001z" />
    <glyph glyph-name="quotedblleft" unicode="&#x201c;" horiz-adv-x="508" 
d="M404 707v-160.001c0 -12.667 -2.66699 -21.667 -8 -27s-14.333 -8 -27 -8h-47c-13.333 0 -22.5 2.66699 -27.5 8s-7.5 14.333 -7.5 27v121c0 22.667 8 42.334 24 59.001l27 28c17.333 16.667 32 19 44 7l2 -2c13.333 -11.333 20 -29 20 -53zM221 706.999v-159.999
c0 -12.667 -2.5 -21.667 -7.5 -27s-14.167 -8 -27.5 -8h-47c-12.667 0 -21.667 2.66699 -27 8s-8 14.333 -8 27v121c0 23.333 8.33301 43.333 25 60l26 26c17.333 17.333 32 20 44 8l2 -2c13.333 -12.667 20 -30.334 20 -53.001z" />
    <glyph glyph-name="quotedblright" unicode="&#x201d;" horiz-adv-x="508" 
d="M104 548v157.998c0 13.333 2.66699 22.5 8 27.5s14.333 7.5 27 7.5h47c13.333 0 22.5 -2.5 27.5 -7.5s7.5 -14.167 7.5 -27.5v-120c0 -23.333 -8.33301 -43.333 -25 -60l-26 -26c-17.333 -17.333 -32 -19.666 -44 -6.99902l-2 2c-13.333 12.667 -20 30.334 -20 53.001z
M287 547.998l0.000976562 157.998c0 13.333 2.5 22.5 7.5 27.5s14.167 7.5 27.5 7.5h47c12.667 0 21.667 -2.5 27 -7.5s8 -14.167 8 -27.5v-120c0 -23.333 -8.33301 -43.333 -25 -60l-26 -26c-16.667 -17.333 -31.334 -19.666 -44.001 -6.99902l-2 2
c-13.333 12.667 -20 30.334 -20 53.001z" />
    <glyph glyph-name="quotedblbase" unicode="&#x201e;" horiz-adv-x="508" 
d="M104 -69v157.999c0 12.667 2.66699 21.667 8 27s14.333 8 27 8h47c13.333 0 22.5 -2.66699 27.5 -8s7.5 -14.333 7.5 -27v-119c0 -23.333 -8.33301 -43.333 -25 -60l-26 -26c-17.333 -17.333 -32 -20 -44 -8l-2 2c-13.333 12.667 -20 30.334 -20 53.001zM287 -69.001
v157.999c0 12.667 2.5 21.667 7.5 27s14.167 8 27.5 8h47c12.667 0 21.667 -2.66699 27 -8s8 -14.333 8 -27v-119c0 -23.333 -8.33301 -43.333 -25 -60l-26 -26c-17.333 -17.333 -32 -20 -44 -8l-2 2c-13.333 12.667 -20 30.334 -20 53.001z" />
    <glyph glyph-name="bullet" unicode="&#x2022;" horiz-adv-x="575" 
d="M315 455l114.002 -114.002c9.33301 -9.33301 14.166 -17.666 14.499 -24.999s-4.16699 -15.333 -13.5 -24l-120 -121c-9.33301 -8.66699 -17.333 -13 -24 -13s-14.667 4.33301 -24 13l-118 117c-9.33301 9.33301 -14 17.333 -14 24s4.66699 14.667 14 24l122 120
c8.66699 9.33301 16.667 13.833 24 13.5s15.666 -5.16602 24.999 -14.499z" />
    <glyph glyph-name="ellipsis" unicode="&#x2026;" horiz-adv-x="1000" 
d="M100 33v56c0 12.667 2.66699 21.667 8 27s14.333 8 27 8h59c13.333 0 22.5 -2.66699 27.5 -8s7.5 -14.333 7.5 -27v-56c0 -12.667 -2.5 -21.667 -7.5 -27s-14.167 -8 -27.5 -8h-59c-12.667 0 -21.667 2.66699 -27 8s-8 14.333 -8 27zM434 33v56
c0 12.667 2.66699 21.667 8 27s14.333 8 27 8h59c13.333 0 22.5 -2.66699 27.5 -8s7.5 -14.333 7.5 -27v-56c0 -12.667 -2.5 -21.667 -7.5 -27s-14.167 -8 -27.5 -8h-59c-12.667 0 -21.667 2.66699 -27 8s-8 14.333 -8 27zM767 33v56c0 12.667 2.5 21.667 7.5 27
s14.167 8 27.5 8h59c12.667 0 21.667 -2.66699 27 -8s8 -14.333 8 -27v-56c0 -12.667 -2.66699 -21.667 -8 -27s-14.333 -8 -27 -8h-59c-13.333 0 -22.5 2.66699 -27.5 8s-7.5 14.333 -7.5 27z" />
    <glyph glyph-name="guilsinglleft" unicode="&#x2039;" horiz-adv-x="463" 
d="M267 93l-195.001 202.001c-9.33301 9.33301 -14 17.833 -14 25.5s4.66699 16.5 14 26.5l196 204c9.33301 10 17.666 15.167 24.999 15.5s15.333 -3.83398 24 -12.501l33 -31c17.333 -16 18 -32 2 -48l-152 -150l154 -153c16 -16 15.333 -32 -2 -48l-35 -33
c-9.33301 -9.33301 -17.666 -13.833 -24.999 -13.5s-15.666 5.5 -24.999 15.5z" />
    <glyph glyph-name="guilsinglright" unicode="&#x203a;" horiz-adv-x="463" 
d="M195 552l195.998 -204.001c16 -16.667 16.333 -33 1 -49l-199 -208c-15.333 -16.667 -31.666 -16.667 -48.999 0l-32 30c-17.333 16 -18 32 -2 48l153 151l-155 152c-16 16 -15.333 32 2 48l35 33c9.33301 9.33301 17.833 13.833 25.5 13.5
s15.834 -5.16602 24.501 -14.499z" />
    <glyph glyph-name="Euro" unicode="&#x20ac;" 
d="M698 620l33.0049 -30.0029c10 -9.33301 15.5 -17.5 16.5 -24.5s-2.83301 -15.5 -11.5 -25.5l-27 -32c-8.66699 -10 -16.334 -15.167 -23.001 -15.5s-14.334 3.83398 -23.001 12.501l-43 41h-267l-90 -89v-23h347c12.667 0 20 -2 22 -6s-1.33301 -10.667 -10 -20l-31 -35
c-15.333 -17.333 -34.666 -26 -57.999 -26h-270v-65h216c13.333 0 20.666 -2 21.999 -6s-2.33398 -11 -11.001 -21l-30 -33c-16 -18 -35.667 -27 -59 -27h-138v-10l92 -91h236l82 83c16 16 32 15.333 48 -2l25 -27c9.33301 -9.33301 14 -17.666 14 -24.999
s-4.66699 -15.666 -14 -24.999l-80 -78c-16 -16 -35.667 -24 -59 -24h-264c-23.333 0 -43 8 -59 24l-101 103c-16 16 -24 35.667 -24 59v13h-97c-12.667 0 -20 2 -22 6s1.33301 11 10 21l28 33c15.333 18 34.666 27 57.999 27h23v65h-98c-12.667 0 -20 2 -22 6
s1.33301 11 10 21l28 33c15.333 18 34.666 27 57.999 27h24v23c0 24 8.33301 44.333 25 61l98 100c17.333 17.333 37.333 26 60 26h294c23.333 0 44 -8 62 -24z" />
    <glyph glyph-name="trademark" unicode="&#x2122;" horiz-adv-x="1088" 
d="M279 708l1 -243c0 -17.333 -9 -26 -27 -26h-39c-18 0 -27 8.66699 -27 26l2 243l-109 -2c-17.333 0 -26 9 -26 27v35c0 18 9 27 27 27h305c18 0 27 -9 27 -27v-35c0 -18 -8.66699 -27 -26 -27zM948 734v-268.001c0 -18 -9 -27 -27 -27h-37c-18 0 -27 8.66699 -27 26
l2 194l-123 -134c-12.667 -14 -25 -14.667 -37 -2l-125 135l1 -193c0 -17.333 -9 -26 -27 -26h-36c-18 0 -27 9 -27 27v269c0 18 6.33301 33 19 45l24 22c12.667 12 25 11.667 37 -1l151 -163l152 163c12 13.333 24.667 13.333 38 0l22 -21
c13.333 -13.333 20 -28.666 20 -45.999z" />
    <glyph glyph-name=".null" horiz-adv-x="0" 
 />
    <glyph glyph-name="nonmarkingreturn" horiz-adv-x="333" 
 />
    <glyph glyph-name="estimated" horiz-adv-x="784" 
d="M752 311l-584.002 0.00195312c-3.33301 0 -5 -1.33301 -5 -4v-177c0 -6.66699 2.66699 -13.334 8 -20.001c60.667 -64 134.334 -96 221.001 -96c92.667 0 170.334 35.667 233.001 107h51c-32.667 -38.667 -74 -69.167 -124 -91.5s-103.667 -33.5 -161 -33.5
c-99.333 0 -184.333 31.667 -255 95s-106 139.666 -106 228.999s35.333 165.833 106 229.5s155.667 95.5 255 95.5c100 0 185.167 -31.833 255.5 -95.5s105.5 -140.167 105.5 -229.5v-9zM619.998 334.002l-0.000976562 178c0 8 -3 15 -9 21
c-62.667 61.333 -135.667 92 -219 92c-85.333 0 -158.666 -31.667 -219.999 -95c-6 -6 -9 -13.333 -9 -22v-174c0 -4 1.66699 -6 5 -6h448c2.66699 0 4 2 4 6z" />
    </font>
</defs>
</svg>
